<?xml version="1.0" encoding="UTF-8" standalone="no"?>
<svg
   xmlns:dc="http://purl.org/dc/elements/1.1/"
   xmlns:cc="http://creativecommons.org/ns#"
   xmlns:rdf="http://www.w3.org/1999/02/22-rdf-syntax-ns#"
   xmlns:svg="http://www.w3.org/2000/svg"
   xmlns="http://www.w3.org/2000/svg"
   id="svg8"
   version="1.1"
   viewBox="0 0 2248.2129 1449.5918"
   height="1449.5918mm"
   width="2248.2129mm">
  <defs
     id="defs2">
    <marker
       id="DistanceX"
       orient="auto"
       refX="0"
       refY="0"
       style="overflow:visible">
      <path
         d="M 3,-3 -3,3 M 0,-5 V 5"
         style="stroke:#000000;stroke-width:0.5"
         id="path4487" />
    </marker>
    <pattern
       height="8"
       id="Hatch"
       patternUnits="userSpaceOnUse"
       width="8"
       x="0"
       y="0">
      <path
         d="M8 4 l-4,4"
         linecap="square"
         stroke="#000000"
         stroke-width="0.25"
         id="path4490" />
      <path
         d="M6 2 l-4,4"
         linecap="square"
         stroke="#000000"
         stroke-width="0.25"
         id="path4492" />
      <path
         d="M4 0 l-4,4"
         linecap="square"
         stroke="#000000"
         stroke-width="0.25"
         id="path4494" />
    </pattern>
    <symbol
       id="*Model_Space" />
    <symbol
       id="*Paper_Space" />
    <symbol
       id="*Paper_Space0" />
  </defs>
  <metadata
     id="metadata5">
    <rdf:RDF>
      <cc:Work
         rdf:about="">
        <dc:format>image/svg+xml</dc:format>
        <dc:type
           rdf:resource="http://purl.org/dc/dcmitype/StillImage" />
        <dc:title></dc:title>
      </cc:Work>
    </rdf:RDF>
  </metadata>
  <g
     transform="translate(1595.8208,591.83756)"
     id="layer1">
    <g
       style="stroke-width:30.23622085;stroke-miterlimit:4;stroke-dasharray:none"
       transform="matrix(0.26458333,0,0,0.26458333,-286.02823,-168.87475)"
       id="g4556">
      <path
         d="m -4341.3324,3796.3416 c 4.8702,1.2978 9.7405,2.5957 14.6257,3.8509 8.1251,2.0877 16.2913,4.0574 24.4795,5.9597 9.2935,2.1591 18.6153,4.2315 27.9464,6.1966 9.5002,2.0008 19.0099,3.8903 28.5106,5.6765 7.2049,1.3546 14.4045,2.6497 21.5972,3.8876 6.9549,1.1969 13.9032,2.3401 20.8358,3.4314 6.6563,1.0479 13.2981,2.0478 19.9369,3.0037 5.5632,0.8011 11.1244,1.5712 16.6869,2.3119 4.1329,0.5503 8.2666,1.0844 12.3994,1.6025 2.2261,0.2791 4.452,0.5535 6.6806,0.8237 2.7258,0.3306 5.4555,0.6547 8.1864,0.9724 3.7936,0.4412 7.5895,0.8698 11.3865,1.286 4.8768,0.5344 9.7553,1.0483 14.6345,1.5421 5.6686,0.5737 11.338,1.1202 17.0057,1.6403 5.4565,0.5008 10.9113,0.9772 16.3649,1.4301 5.1601,0.4285 10.3189,0.836 15.4753,1.2233 8.6728,0.6514 17.3385,1.2455 26.0037,1.7854 7.8018,0.4861 15.6032,0.9283 23.4087,1.3289 7.3891,0.3793 14.7819,0.7212 22.2419,1.03 7.997,0.331 16.0712,0.6239 24.2464,0.8786 8.4999,0.2649 17.1089,0.4885 25.6924,0.6779 8.0432,0.1775 16.0639,0.325 24.0313,0.4443 8.9204,0.1336 17.7739,0.2319 26.6191,0.2942 9.0342,0.064 18.0596,0.09 27.0598,0.075 10.4966,-0.017 20.959,-0.089 31.3134,-0.2125 8.9382,-0.107 17.7959,-0.2529 26.6083,-0.4344 9.4033,-0.1936 18.7551,-0.4277 28.0759,-0.6999 9.0888,-0.2655 18.148,-0.5673 27.1866,-0.904 8.1748,-0.3046 16.3327,-0.6378 24.4635,-0.9985 7.2227,-0.3205 14.424,-0.6625 21.6022,-1.0253 6.9585,-0.3517 13.8953,-0.7227 20.8184,-1.1129 10.6857,-0.6023 21.339,-1.25 31.9601,-1.9407 11.8351,-0.7696 23.6303,-1.5927 35.39,-2.4661 13.0118,-0.9663 25.9802,-1.9943 38.9079,-3.0797 14.2241,-1.1943 28.399,-2.458 42.5277,-3.7863 12.0403,-1.132 24.0471,-2.3109 36.0218,-3.5342 12.826,-1.3103 25.6152,-2.6715 38.3686,-4.0806 13.5957,-1.5021 27.1507,-3.0587 40.6689,-4.6665 13.6434,-1.6228 27.2493,-3.2978 40.8181,-5.0218 23.7448,-3.017 47.3759,-6.1841 70.8918,-9.4852 22.825,-3.2042 45.5415,-6.5346 68.1487,-9.978 21.831,-3.3252 43.56,-6.7557 65.1849,-10.2806 20.7693,-3.3853 41.4425,-6.8577 62.0162,-10.4078 19.651,-3.3908 39.2111,-6.8525 58.6766,-10.3768 18.4828,-3.3464 36.8803,-6.7493 55.1863,-10.2013 17.631,-3.3246 35.1771,-6.6949 52.6054,-10.0986 18.28,-3.57 36.4303,-7.1768 54.4666,-10.8151 16.7005,-3.3687 33.3033,-6.7644 49.8122,-10.1805 17.2403,-3.5674 34.3782,-7.1571 51.4192,-10.7623 5.5116,-1.1661 11.0131,-2.3337 16.506,-3.5031 5.5608,-1.1838 11.1128,-2.3694 16.6508,-3.5552 4.9127,-1.0519 9.8144,-2.1041 14.7007,-3.1553 3.8806,-0.8349 7.7515,-1.6692 11.5947,-2.4988 2.8715,-0.6199 5.7276,-1.2373 8.5725,-1.8529 3.0075,-0.6508 6.0026,-1.2996 8.9943,-1.9485 3.3892,-0.7351 6.7741,-1.4703 10.1536,-2.2051 3.7799,-0.8219 7.5529,-1.6434 11.3211,-2.465 4.1763,-0.9105 8.3467,-1.8209 12.511,-2.7313 4.8871,-1.0684 9.7658,-2.1365 14.6382,-3.2048 5.7956,-1.2707 11.582,-2.5415 17.3611,-3.8126 5.1969,-1.143 10.3879,-2.2863 15.573,-3.4298 5.7707,-1.2726 11.5342,-2.5453 17.2926,-3.8187 5.8432,-1.292 11.6811,-2.5846 17.5177,-3.8786 5.2706,-1.1685 10.5401,-2.3381 15.8079,-3.5087 4.8346,-1.0744 9.6677,-2.1496 14.4987,-3.2255 4.5629,-1.0163 9.124,-2.0332 13.6831,-3.0509 7.4641,-1.666 14.9231,-3.334 22.3828,-5.0057 6.4802,-1.4523 12.9609,-2.9073 19.4487,-4.3669 5.4037,-1.2158 10.8123,-2.4349 16.2375,-3.66 5.2379,-1.1828 10.4913,-2.3714 15.7554,-3.5648 6.1843,-1.402 12.3834,-2.8107 18.5892,-4.2248 7.0704,-1.611 14.1495,-3.2289 21.2338,-4.8533 5.2098,-1.1947 10.4223,-2.3929 15.6364,-3.5947 5.579,-1.2859 11.1598,-2.5758 16.7412,-3.8698 5.9498,-1.3795 11.9003,-2.7635 17.8508,-4.1525 6.3221,-1.4756 12.6443,-2.9567 18.9647,-4.4433 6.1408,-1.4444 12.2799,-2.8938 18.4173,-4.3489 5.2206,-1.2376 10.4399,-2.4793 15.6601,-3.7256 4.4113,-1.0533 8.8231,-2.1099 13.238,-3.1706 3.5992,-0.8647 7.2003,-1.7322 10.8067,-2.6032 2.8215,-0.6815 5.6463,-1.3651 8.4811,-2.0527 2.9005,-0.7035 5.8116,-1.4111 8.7258,-2.1211 3.7905,-0.9234 7.5863,-1.8508 11.3843,-2.7816 4.6799,-1.1468 9.3631,-2.2988 14.047,-3.4553 5.4417,-1.3436 10.8842,-2.6933 16.3249,-4.0487 5.4667,-1.3619 10.9316,-2.7295 16.3952,-4.1032 5.3728,-1.3508 10.7444,-2.7074 16.1148,-4.07 5.2784,-1.3392 10.5557,-2.6842 15.8321,-4.0351 5.1831,-1.3271 10.3653,-2.6598 15.5469,-3.9986 18.0377,-4.6608 36.0665,-9.3958 54.0904,-14.2202 16.7324,-4.4787 33.4605,-9.0344 50.1988,-13.6801 15.4638,-4.2919 30.9364,-8.6606 46.4081,-13.1108 15.0793,-4.3374 30.1578,-8.7522 45.2323,-13.2505 15.0147,-4.4804 30.0254,-9.0436 45.033,-13.697 19.5391,-6.0584 39.0729,-12.2698 58.6008,-18.6527 19.375,-6.333 38.7442,-12.8348 58.1062,-19.5241 19.2715,-6.6579 38.5359,-13.5016 57.8124,-20.5552 20.9762,-7.6754 41.9668,-15.5995 62.9551,-23.802 21.6629,-8.4662 43.3233,-17.2289 64.9815,-26.2671 6.7145,-2.802 13.4289,-5.6306 20.1448,-8.4851 5.9341,-2.5223 11.8693,-5.0648 17.8093,-7.6291 5.1266,-2.2131 10.2568,-4.4424 15.3932,-6.6889 4.3077,-1.884 8.6198,-3.7801 12.9445,-5.6919 3.6574,-1.6169 7.3238,-3.245 10.9905,-4.8804 4.0956,-1.8268 8.1916,-3.6628 12.2875,-5.5077 4.7207,-2.1263 9.4412,-4.2645 14.1611,-6.4142 5.3483,-2.436 10.6957,-4.8867 16.0426,-7.3521 5.9809,-2.7578 11.961,-5.534 17.9383,-8.3271 6.7829,-3.1697 13.5621,-6.3612 20.3379,-9.5746 4.9194,-2.333 9.8371,-4.6776 14.7534,-7.0336 5.2973,-2.5387 10.5929,-5.0907 15.8872,-7.6562 5.6739,-2.7495 11.3462,-5.5144 17.0172,-8.2947 6.0487,-2.9656 12.0959,-5.9488 18.1417,-8.9498 6.421,-3.1871 12.8404,-6.3942 19.2587,-9.6216 6.3367,-3.1865 12.6723,-6.3927 19.0039,-9.6175 4.3179,-2.1992 8.634,-4.4071 12.9464,-6.6227 3.2398,-1.6645 6.4776,-3.3334 9.712,-5.0059 2.1656,-1.1199 4.3296,-2.2414 6.4848,-3.3607 1.5121,-0.7853 3.0198,-1.5695 4.5253,-2.3537 1.7084,-0.89 3.4139,-1.78 5.1174,-2.6704 4.0049,-2.0933 7.9987,-4.1892 11.9869,-6.2906 4.8568,-2.5589 9.7053,-5.1259 14.5486,-7.7029 5.0564,-2.6905 10.1071,-5.3919 15.1537,-8.1058 5.7372,-3.0851 11.469,-6.1862 17.1968,-9.3047 6.42,-3.4954 12.835,-7.0127 19.2448,-10.5525 6.8726,-3.7955 13.7391,-7.617 20.5982,-11.4649 17.0072,-9.5411 33.969,-19.245 50.8843,-29.1204 17.8403,-10.4154 35.6289,-21.0215 53.3615,-31.8293 18.5902,-11.3305 37.1188,-22.8827 55.581,-34.6543 10.5831,-6.7479 21.1444,-13.5678 31.6832,-20.4582 10.7838,-7.0506 21.5441,-14.1751 32.2797,-21.3721 10.9807,-7.3612 21.9355,-14.7983 32.8636,-22.3084 11.18605,-7.6875 22.34401,-15.4515 33.47407,-23.2869 11.40444,-8.0284 22.77957,-16.1318 34.12812,-24.3048 11.08814,-7.9855 22.15091,-16.0375 33.1898,-24.1493 10.2722,-7.5484 20.52373,-15.1485 30.75423,-22.7943 10.36195,-7.7439 20.70232,-15.5347 31.02093,-23.3658 9.38083,-7.1194 18.74367,-14.2722 28.08796,-21.4528 8.4051,-6.4588 16.79518,-12.9402 25.16927,-19.4396 7.43469,-5.7703 14.85676,-11.5549 22.26461,-17.3497 6.46925,-5.0607 12.92766,-10.1292 19.37294,-15.202 3.55261,-2.7961 7.10123,-5.5936 10.64479,-8.3912 3.23184,-2.5516 6.45946,-5.1032 9.68375,-7.6555 3.19761,-2.5313 6.39195,-5.0631 9.58297,-7.5953 3.20599,-2.5441 6.40862,-5.0886 9.60822,-7.6335 3.2144,-2.5567 6.42573,-5.1139 9.63319,-7.6706 3.52602,-2.8107 7.04737,-5.6209 10.56459,-8.4308 4.25686,-3.4007 8.50767,-6.8011 12.75455,-10.2021 4.98679,-3.9936 9.96815,-7.9883 14.94494,-11.9839 6.00443,-4.8206 12.00219,-9.6426 17.99523,-14.4665 6.78837,-5.464 13.57067,-10.9303 20.34429,-16.3953 6.93319,-5.5938 13.85729,-11.1862 20.77067,-16.7743 6.69914,-5.4148 13.3882,-10.8256 20.06716,-16.2307 6.4653,-5.2321 12.92114,-10.4589 19.36711,-15.6787 6.23311,-5.0474 12.457,-10.0882 18.67065,-15.1206 6.53198,-5.2902 13.05264,-10.5713 19.56323,-15.843 5.60846,-4.5412 11.20945,-9.0755 16.80074,-13.6004 4.24468,-3.4351 8.48376,-6.8648 12.70744,-10.2807 3.46853,-2.8053 6.92668,-5.6013 10.37968,-8.3921 4.1096,-3.3215 8.21192,-6.6358 12.30895,-9.944 4.81298,-3.8864 9.61865,-7.7645 14.42137,-11.6375 5.5236,-4.4543 11.04329,-8.9019 16.54461,-13.3305 5.77289,-4.6472 11.52555,-9.2736 17.26345,-13.8829 6.46111,-5.1902 12.90349,-10.3588 19.33363,-15.5101 7.14623,-5.7249 14.27735,-11.4284 21.38821,-17.1052 7.13665,-5.6974 14.2529,-11.368 21.32124,-16.9895 6.3835,-5.0769 12.72792,-10.1137 19.06681,-15.1371 5.91527,-4.6876 11.82572,-9.3635 17.72183,-14.0201 6.13503,-4.8452 12.25452,-9.6697 18.37246,-14.4845 5.61184,-4.4166 11.22237,-8.8252 16.82849,-13.2238 5.11543,-4.0137 10.22719,-8.0191 15.34976,-12.0283 2.9369,-2.2986 5.87736,-4.5985 8.82348,-6.9013 2.94856,-2.3048 5.9028,-4.6125 8.8584,-6.92 2.59777,-2.0282 5.1966,-4.0561 7.7909,-6.0795 1.95331,-1.5236 3.90405,-3.0445 5.85668,-4.5664 2.24258,-1.748 4.48765,-3.4972 6.74899,-5.2585 2.70699,-2.1084 5.43729,-4.2341 8.17558,-6.3652 3.22861,-2.5128 6.46833,-5.0332 9.71642,-7.5592 3.74271,-2.9106 7.49653,-5.8287 11.25647,-8.7506 4.25838,-3.3092 8.52461,-6.6232 12.79585,-9.9401 6.5614,-5.0954 13.13464,-10.1976 19.71187,-15.3013 7.40022,-5.7423 14.80548,-11.4863 22.23175,-17.2461 7.73654,-6.0004 15.49586,-12.0179 23.27199,-18.0488 8.00908,-6.2115 16.035987,-12.4374 24.078306,-18.6767 8.275832,-6.4205 16.567989,-12.8553 24.873437,-19.3029 8.539824,-6.6295 17.0937,-13.2726 25.659078,-19.9278 13.934533,-10.827 27.899508,-21.6861 41.88602,-32.5711 14.567769,-11.3374 29.158904,-22.703 43.766629,-34.0895 15.188236,-11.8391 30.394406,-23.701 45.6117,-35.5769 9.40723,-7.3416 18.81871,-14.6886 28.23559,-22.041 9.60862,-7.5021 19.22287,-15.0098 28.83267,-22.5137 9.03927,-7.0584 18.0746,-14.1133 27.10557,-21.1634 8.02333,-6.2636 16.04321,-12.5233 24.06354,-18.7816 7.01455,-5.4735 14.02944,-10.9459 21.04857,-16.4197 5.91581,-4.6134 11.83464,-9.2278 17.76113,-13.8463 4.95734,-3.8633 9.92004,-7.7296 14.8955,-11.6042 4.00459,-3.1185 8.01745,-6.2424 12.04629,-9.3776 3.05407,-2.3766 6.11733,-4.7596 9.2103,-7.1648 1.32265,-1.0285 2.65073,-2.0611 3.986,-3.0991 1.34744,-1.0475 2.7022,-2.1005 4.0547,-3.1515 1.94534,-1.5117 3.88599,-3.0194 5.82687,-4.5269 2.54192,-1.9742 5.08423,-3.9481 7.62493,-5.9199 3.14616,-2.4417 6.28984,-4.8804 9.43591,-7.3197 3.74605,-2.9045 7.49548,-5.8099 11.24601,-8.7142 4.42035,-3.4231 8.84224,-6.8448 13.26461,-10.264 5.09037,-3.9357 10.18137,-7.8681 15.27253,-11.7966 5.38943,-4.1586 10.77903,-8.3128 16.18178,-12.4722 5.66414,-4.3606 11.34273,-8.7268 17.0336,-13.0966 5.04277,-3.8721 10.09519,-7.7469 15.14137,-11.6121 4.76463,-3.6495 9.52371,-7.2903 14.28028,-10.9247 4.4853,-3.4271 8.96836,-6.8484 13.45041,-10.2648 4.28796,-3.2685 8.57499,-6.5325 12.86177,-9.7925 4.11956,-3.1328 8.23889,-6.2619 12.35768,-9.3871 7.04521,-5.3455 14.08885,-10.6796 21.12851,-16.0003 7.0064,-5.2956 14.00885,-10.578 20.97933,-15.8265 7.02643,-5.2907 14.02038,-10.5468 20.98622,-15.7725 7.7511,-5.8148 15.4674,-11.5918 23.15968,-17.3406 8.40817,-6.2838 16.78765,-12.5338 25.14347,-18.7551 8.51777,-6.3418 17.01096,-12.6537 25.48036,-18.9376 11.71376,-8.6911 23.38203,-17.3285 34.99643,-25.909 10.35459,-7.6498 20.66635,-15.2543 30.92855,-22.8104 9.33909,-6.8764 18.63713,-13.7128 27.92774,-20.535 9.10451,-6.6855 18.20189,-13.3573 27.26715,-19.9983 9.36569,-6.861 18.69711,-13.6891 27.99543,-20.4861 9.88168,-7.2235 19.72598,-14.4118 29.53253,-21.5661 10.38096,-7.5733 20.71961,-15.1085 31.04553,-22.628 11.37587,-8.2841 22.73628,-16.5492 34.08867,-24.8015 12.22241,-8.8847 24.43552,-17.7546 36.63541,-26.6083 13.05271,-9.4726 26.09028,-18.9265 39.11254,-28.3636 6.42648,-4.6572 12.84924,-9.3102 19.26809,-13.9592 6.5972,-4.7782 13.19029,-9.5522 19.77919,-14.322 6.76243,-4.8955 13.52046,-9.7867 20.27382,-14.6737 6.68451,-4.8372 13.36445,-9.6701 20.03824,-14.498 5.95014,-4.3044 11.8954,-8.6048 17.83571,-12.9012 4.7486,-3.4344 9.4941,-6.8664 14.2362,-10.2957 4.1278,-2.9851 8.2531,-5.9682 12.3756,-8.9491 3.5127,-2.5401 7.0233,-5.0785 10.5315,-7.6151 2.9015,-2.098 5.8014,-4.1947 8.6991,-6.29 2.2934,-1.6582 4.5855,-3.3154 6.8751,-4.9709 1.6897,-1.2217 3.378,-2.4424 5.0646,-3.6618 1.6555,-1.197 3.3093,-2.3927 4.9625,-3.588 2.9249,-2.1148 5.8479,-4.2282 8.7691,-6.3403 3.6753,-2.6572 7.3477,-5.3125 11.018,-7.9661 4.4244,-3.199 8.8455,-6.3956 13.2636,-9.59 5.1737,-3.7408 10.3431,-7.4786 15.5088,-11.2139 7.119,-5.1476 14.231,-10.2904 21.3343,-15.4275 7.4778,-5.4079 14.946,-10.8094 22.4042,-16.2045 7.4904,-5.4184 14.9708,-10.8303 22.4413,-16.2361 7.4984,-5.4259 14.9869,-10.8458 22.4655,-16.2597 7.5041,-5.4325 14.9982,-10.8591 22.4824,-16.2801 7.5093,-5.4391 15.0086,-10.8727 22.4981,-16.3009 25.7126,-18.6363 51.3091,-37.2108 76.7885,-55.734 25.7511,-18.7209 51.3828,-37.3894 76.9104,-56.0296 26.2714,-19.1832 52.4327,-38.3365 78.4871,-57.4755 26.8957,-19.7569 53.6775,-39.4985 80.3461,-59.2413 14.2733,-10.5665 28.5142,-21.1333 42.7228,-31.703 14.3993,-10.7116 28.7654,-21.426 43.0985,-32.1458 14.5087,-10.8512 28.9836,-21.7079 43.4244,-32.5728 14.6003,-10.985 29.1659,-21.97838 43.6971,-32.98309 14.4004,-10.9056 28.7671,-21.82235 43.1009,-32.75335 13.7351,-10.47436 27.44,-20.96181 41.1139,-31.4642 13.4712,-10.34661 26.9123,-20.70772 40.323,-31.08534 12.7895,-9.89687 25.5513,-19.80876 38.2847,-29.73715 12.1254,-9.45423 24.2251,-18.92342 36.2988,-28.4092 11.479,-9.01843 22.9344,-18.05185 34.3649,-27.10068 10.8521,-8.59105 21.6817,-17.196 32.4918,-25.81844 10.508,-8.38155 20.9976,-16.77963 31.4702,-25.19663 15.2471,-12.25431 30.4584,-24.54873 45.6327,-36.88628 2.9478,-2.39676 5.8943,-4.79515 8.8393,-7.19521 2.8581,-2.32918 5.7149,-4.65995 8.5704,-6.99223 2.3472,-1.91723 4.6935,-3.83548 7.0389,-5.7548 1.7762,-1.45357 3.552,-2.90776 5.3271,-4.36249 1.3756,-1.12737 2.7509,-2.25506 4.126,-3.38324 0.9959,-0.81711 1.9918,-1.63448 2.9877,-2.45221 1.4004,-1.14988 2.8008,-2.30047 4.201,-3.45152 1.8208,-1.49678 3.6412,-2.99433 5.461,-4.49265 2.238,-1.84248 4.4752,-3.6861 6.7116,-5.53082 2.6514,-2.18693 5.3016,-4.37539 7.9507,-6.56537 3.9655,-3.27832 7.9285,-6.56006 11.8889,-9.84525 4.6169,-3.82974 9.2302,-7.66417 13.8399,-11.50338 5.255,-4.37676 10.5054,-8.75973 15.751,-13.14909 5.8782,-4.91872 11.7504,-9.84545 17.6165,-14.78047 6.4841,-5.45494 12.9608,-10.91999 19.43,-16.39548 6.8299,-5.78083 13.6516,-11.57328 20.465,-17.37754 16.0467,-13.6699 32.048,-27.40525 48.0046,-41.21163 15.7757,-13.64984 31.5076,-27.36912 47.1944,-41.16618 18.2749,-16.07323 36.4886,-32.25201 54.6401,-48.5442 17.7482,-15.93016 35.4369,-31.96874 53.0653,-48.12338 17.2512,-15.80901 34.4446,-31.72917 51.5778,-47.77184 22.726,-21.27951 45.3461,-42.77456 67.8494,-64.50835 21.8261,-21.07989 43.5424,-42.38435 65.0857,-63.89009 20.9668,-20.93008 41.7698,-42.05081 62.4018,-63.40213 20.0943,-20.79496 40.0264,-41.80865 59.7799,-63.068153 19.1961,-20.659672 38.2235,-41.551477 57.0726,-62.693765 8.073,-9.055233 16.1133,-18.156414 24.124,-27.307959 7.8861,-9.009126 15.7434,-18.067062 23.5615,-27.162138 7.3147,-8.50939 14.5951,-17.051292 21.8306,-25.612118 6.4838,-7.6714 12.9316,-15.357997 19.3408,-23.053734 5.7115,-6.857961 11.3923,-13.723182 17.0366,-20.585632 3.9769,-4.835174 7.9356,-9.668973 11.8736,-14.497061 3.5576,-4.36159 7.0983,-8.71853 10.616,-13.06215 3.1932,-3.9428 6.3675,-7.87464 9.526,-11.79811 3.5122,-4.36289 7.0049,-8.71544 10.4889,-13.06965 4.0638,-5.07869 8.1159,-10.15965 12.1609,-15.24665 2.905,-3.65337 5.8063,-7.30986 8.702,-10.96611 2.9413,-3.71377 5.8768,-7.4273 8.8093,-11.14381 3.0214,-3.82894 6.0396,-7.66105 9.0616,-11.50475 3.2043,-4.07558 6.4128,-8.1642 9.6233,-12.26304 3.4674,-4.42684 6.9371,-8.8656 10.3996,-13.30427 4.0631,-5.20856 8.1163,-10.417 12.1643,-15.6347 4.6646,-6.01246 9.3223,-12.03721 13.982,-18.091 2.6844,-3.48753 5.3695,-6.98469 8.0604,-10.4989 2.0218,-2.64031 4.0468,-5.29023 6.0824,-7.95949 1.4255,-1.86924 2.8562,-3.74796 4.2929,-5.63748 1.6605,-2.18376 3.3292,-4.38195 4.9994,-6.58592 2.1846,-2.88275 4.3717,-5.77538 6.5606,-8.67714 2.6407,-3.50081 5.2841,-7.01489 7.9282,-10.54043 3.0707,-4.09438 6.1425,-8.20422 9.2127,-12.32699 3.0312,-4.07031 6.0608,-8.15323 9.0888,-12.24938 2.8791,-3.89486 5.7567,-7.80167 8.6324,-11.72076 4.0853,-5.56756 8.1668,-11.1599 12.2439,-16.77846 3.7612,-5.18331 7.5187,-10.38895 11.271,-15.61613 3.4227,-4.76808 6.8411,-9.5541 10.2563,-14.36136 2.9084,-4.09378 5.8145,-8.20296 8.7192,-12.32963 2.3577,-3.34955 4.7145,-6.71061 7.072,-10.08561 1.8274,-2.61623 3.6553,-5.24083 5.486,-7.87765 1.8121,-2.61006 3.6271,-5.23208 5.4418,-7.86196 2.395,-3.47078 4.7895,-6.95524 7.1823,-10.45176 2.9504,-4.31149 5.8981,-8.6413 8.8419,-12.98838 3.4767,-5.13406 6.948,-10.29219 10.413,-15.47406 3.9727,-5.94098 7.9371,-11.91316 11.8923,-17.91747 4.5913,-6.96997 9.1701,-13.98323 13.7351,-21.04112 4.7726,-7.37873 9.5302,-14.80623 14.2718,-22.28372 4.3754,-6.90005 8.7373,-13.84267 13.0857,-20.8291 3.9919,-6.41354 7.9724,-12.864 11.9418,-19.35192 3.6332,-5.93831 7.2571,-11.90799 10.8719,-17.90997 3.2923,-5.4665 6.5771,-10.9598 9.8542,-16.47979 2.9658,-4.99566 5.9253,-10.01318 8.8799,-15.05465 2.9013,-4.9507 5.7977,-9.9245 8.6857,-14.91526 2.7291,-4.71625 5.4506,-9.44766 8.151,-14.1701 3.0625,-5.35572 6.0978,-10.6999 9.119,-16.05383 3.3997,-6.02451 6.7814,-12.06135 10.148,-18.11299 3.7316,-6.70787 7.4447,-13.43392 11.1544,-20.19892 2.8077,-5.11982 5.6134,-10.26194 8.3902,-15.37513 2.5225,-4.64479 5.0211,-9.26571 7.4852,-13.83776 2.1292,-3.95086 4.2327,-7.86523 6.3027,-11.72269 1.7536,-3.26765 3.4832,-6.49445 5.1551,-9.61262 1.4171,-2.64284 2.7926,-5.20764 4.1241,-7.6803 1.3317,-2.47296 2.6194,-4.85376 3.7424,-6.90976 0.2721,-0.49809 0.5345,-0.97711 0.6912,-1.26706 0.076,-0.14133 0.1275,-0.23774 0.1461,-0.27664 0.012,-0.0263 0.01,-0.0263 0.01,-0.0263"
         style="fill:none;stroke:#000000;stroke-width:30.23622085;stroke-linecap:round;stroke-miterlimit:4;stroke-dasharray:none;stroke-opacity:1"
         id="path4502" />
      <path
         d="m 3150.3354,-408.44718 c 9.8839,-10.84159 19.7678,-21.68318 29.5561,-32.7184 12.9582,-14.60891 25.7489,-29.55717 38.3895,-44.73914 13.1453,-15.78799 26.1282,-31.82872 38.9472,-48.10397 13.1895,-16.74563 26.2055,-33.73955 38.9002,-51.10042 8.6009,-11.76242 17.0544,-23.69328 25.5079,-35.62414"
         style="fill:none;stroke:#000000;stroke-width:30.23622085;stroke-linecap:round;stroke-miterlimit:4;stroke-dasharray:none;stroke-opacity:1"
         id="path4504" />
      <path
         d="m 3155.675,-1588.8626 c -1.6614,-0.2748 -3.3229,-0.5496 -4.9906,-0.8121 -10.0553,-1.5827 -20.3385,-2.7189 -30.6646,-3.7434 -9.554,-0.948 -19.1446,-1.8004 -28.8034,-2.4813 -8.819,-0.6217 -17.6948,-1.1004 -26.6092,-1.4582 -8.0109,-0.3216 -16.0531,-0.5457 -24.1212,-0.6711 -7.1079,-0.1105 -14.236,-0.1444 -21.3773,-0.1052 -5.8091,0.032 -11.6269,0.1122 -17.4442,0.2393 -4.8857,0.1068 -9.7711,0.2465 -14.6526,0.4183 -4.2154,0.1483 -8.428,0.3205 -12.6523,0.5171 -4.015,0.1869 -8.0405,0.3958 -12.0731,0.6263 -3.8234,0.2186 -7.6531,0.4565 -11.4906,0.7137 -4.5822,0.3072 -9.1757,0.6417 -13.7765,1.0031 -4.321,0.3394 -8.6485,0.7023 -13.0063,1.0904 -4.7931,0.4267 -9.623,0.8838 -14.479,1.3706 -5.4819,0.5494 -10.9971,1.1367 -16.5393,1.7613 -6.1926,0.6978 -12.4189,1.4421 -18.6736,2.2324 -6.8117,0.8607 -13.6571,1.7759 -20.5082,2.7402 -6.8168,0.9595 -13.6392,1.9676 -20.4708,3.023 -13.832,2.1369 -27.7018,4.4679 -41.5773,6.9725 -13.3183,2.4041 -26.6417,4.9683 -40.0739,7.7051 -13.0574,2.6604 -26.2175,5.484 -39.4783,8.4661 -12.9134,2.9041 -25.9223,5.9585 -39.0453,9.1639 -12.906,3.1524 -25.9224,6.4508 -39.0697,9.8977 -13.1906,3.4582 -26.513,7.0659 -39.824,10.7765 -4.619,1.2876 -9.2366,2.5876 -13.855,3.9001 -4.8413,1.3759 -9.6834,2.7656 -14.5261,4.1687 -5.0697,1.4688 -10.1399,2.9523 -15.2114,4.4503 -5.3028,1.5663 -10.6069,3.1485 -15.9117,4.746 -5.384,1.6214 -10.7687,3.2585 -16.1649,4.9146 -4.719,1.4482 -9.4468,2.9109 -14.1859,4.3887 -3.946,1.2304 -7.8999,2.4714 -11.8661,3.7242 -2.9246,0.9238 -5.8559,1.854 -8.8012,2.7929 -2.388,0.7613 -4.7853,1.5284 -7.2011,2.3042 -2.8523,0.916 -5.7305,1.8442 -8.6187,2.7797 -3.5411,1.147 -7.0973,2.3048 -10.6663,3.473 -4.2095,1.3778 -8.4369,2.7699 -12.657,4.1678 -4.4894,1.4871 -8.9705,2.9808 -13.4443,4.4811 -7.1396,2.3942 -14.2604,4.805 -21.3643,7.2311 -7.4648,2.5493 -14.9108,5.1156 -22.345,7.7031 -7.4101,2.5793 -14.8083,5.1797 -22.2107,7.7976 -6.3489,2.2453 -12.7009,4.5035 -19.0395,6.7585 -5.2311,1.8609 -10.453,3.7196 -15.6795,5.5825 -4.8335,1.7228 -9.6708,3.4492 -14.5245,5.1835 -5.584,1.9952 -11.1897,4.0009 -16.8088,6.0143 -7.5486,2.7049 -15.1213,5.4237 -22.6805,8.1431 -8.1649,2.9373 -16.314,5.8751 -24.4324,8.808 -8.3799,3.0273 -16.7272,6.0493 -25.0489,9.0685 -8.5812,3.1134 -17.1353,6.2238 -25.6605,9.3308 -8.6216,3.1422 -17.2138,6.2808 -25.8245,9.4338 -7.9747,2.92 -15.9654,5.8523 -23.9706,8.7964 -6.8312,2.5124 -13.6729,5.0333 -20.5349,7.5664 -6.2896,2.3218 -12.5962,4.654 -18.8959,6.9875 -6.5966,2.4435 -13.1856,4.8886 -19.7694,7.3361 -6.9786,2.5943 -13.9514,5.1914 -20.9263,7.7941 -6.9176,2.5814 -13.8373,5.1683 -20.7598,7.7612 -7.122,2.6676 -14.2469,5.3414 -21.3765,8.0221 -6.9033,2.5957 -13.811,5.1977 -20.7218,7.8058 -7.0186,2.6488 -14.0403,5.3037 -21.0564,7.9615 -7.9387,3.0072 -15.87,6.0179 -23.7985,9.0339 -8.5954,3.2696 -17.1874,6.5453 -25.7903,9.8324 -8.2288,3.1442 -16.4676,6.2989 -24.7194,9.4653 -5.1925,1.9924 -10.3901,3.9895 -15.5857,5.9884 -5.1076,1.965 -10.2132,3.9317 -15.3159,5.8999 -5.0516,1.9484 -10.1003,3.8982 -15.1459,5.8492 -4.8394,1.8713 -9.6759,3.7436 -14.5153,5.6193 -3.1211,1.2097 -6.2435,2.4208 -9.3681,3.6336 -2.4402,0.9472 -4.8818,1.8955 -7.3266,2.8456 -2.3097,0.8976 -4.6223,1.7968 -6.9366,2.6972 -2.7168,1.0569 -5.436,2.1155 -8.1566,3.1753 -4.9009,1.9091 -9.8065,3.8222 -14.7142,5.7383 -5.8345,2.2779 -11.6719,4.56 -17.5082,6.8447 -6.6834,2.6163 -13.3653,5.2359 -20.0458,7.8588 -7.541,2.9607 -15.0803,5.9256 -22.6216,8.8961 -7.4525,2.9355 -14.907,5.8764 -22.3828,8.8303 -6.3283,2.5005 -12.6718,5.0102 -19.018,7.5242 -7.3303,2.9038 -14.6642,5.8133 -22.0024,8.7286 -7.4107,2.9441 -14.8258,5.8942 -22.2454,8.8501 -7.3442,2.9259 -14.6928,5.8575 -22.0571,8.7993 -7.661,3.0603 -15.3391,6.1315 -23.0354,9.2141 -8.5246,3.4144 -17.0716,6.8426 -25.6111,10.2726 -7.4918,3.0092 -14.9779,6.0196 -22.4767,9.0388 -6.654,2.679 -13.318,5.3649 -19.9998,8.0607 -6.5315,2.6351 -13.08,5.2796 -19.6423,7.9323 -7.6109,3.0766 -15.2405,6.1641 -22.8673,9.2538 -8.3888,3.3984 -16.7742,6.7995 -25.1782,10.2119 -7.9426,3.2251 -15.9018,6.4604 -23.883,9.708 -7.7235,3.1427 -15.4676,6.297 -23.2114,9.4542 -7.7424,3.1565 -15.4844,6.316 -23.2387,9.4835 -7.2456,2.9596 -14.5019,5.9262 -21.781,8.9046 -6.5294,2.6716 -13.0771,5.3527 -19.6254,8.036 -4.5475,1.8635 -9.0954,3.728 -13.6487,5.5957 -4.8627,1.9946 -9.7315,3.9927 -14.6059,5.9942 -5.3149,2.1823 -10.6364,4.3686 -15.965,6.5589 -5.0619,2.0807 -10.1301,4.1651 -15.2066,6.254 -5.0439,2.0754 -10.0959,4.1552 -15.1515,6.2375 -5.8968,2.4289 -11.7984,4.861 -17.7027,7.2958 -6.2414,2.5736 -12.4859,5.1501 -18.7381,7.7314 -4.3204,1.7836 -8.6444,3.5695 -12.9797,5.3608 -3.5487,1.4662 -7.105,2.9361 -10.658,4.4051 -4.8101,1.9887 -9.6143,3.9759 -14.4224,5.9656 -5.0871,2.1051 -10.1785,4.213 -15.2824,6.327 -4.5588,1.8882 -9.1274,3.7813 -13.6998,5.67672 -5.0708,2.10202 -10.1463,4.20689 -15.2248,6.314 -18.6094,7.72104 -37.2614,15.47217 -55.9734,23.26112 -18.4814,7.69292 -37.0214,15.42276 -55.6128,23.18736 -17.8788,7.46702 -35.805,14.9662 -53.7664,22.49361 -17.68514,7.41162 -35.40433,14.85062 -53.14522,22.31396 -17.67586,7.43598 -35.37325,14.89614 -53.08812,22.38122 -17.76006,7.50418 -35.53768,15.03342 -53.31076,22.58163 -16.19651,6.87864 -32.38924,13.77303 -48.57475,20.68471 -10.73038,4.58218 -21.45758,9.17197 -32.17773,13.76862 -9.76836,4.18853 -19.53087,8.38276 -29.29041,12.58469 -11.76925,5.06719 -23.53419,10.14557 -35.27973,15.22998 -9.93071,4.29881 -19.84756,8.60194 -29.7613,12.91491 -10.6107,4.61619 -21.21786,9.24365 -31.79902,13.87375 -10.09803,4.41869 -20.17238,8.83979 -30.23753,13.27064 -9.46435,4.16636 -18.92057,8.34136 -28.38349,12.53215 -10.94271,4.84614 -21.8944,9.7134 -32.88124,14.61428 -4.70472,2.09862 -9.41588,4.20341 -14.13931,6.31708 -4.50545,2.01612 -9.02207,4.04033 -13.53371,6.06541 -6.08524,2.7314 -12.16143,5.46441 -18.23789,8.2032 -5.30481,2.391 -10.60982,4.78641 -15.93508,7.19537 -3.88306,1.75656 -7.77689,3.52032 -11.67976,5.29055 -6.27432,2.84585 -12.57201,5.70841 -18.86668,8.5758 -6.07448,2.76709 -12.14615,5.53868 -18.22428,8.31917 -3.40917,1.55955 -6.82037,3.1219 -10.23278,4.6867 -2.99729,1.37445 -5.99553,2.7508 -8.99589,4.1296 -2.63,1.20861 -5.26163,2.41911 -7.89435,3.63127 -3.03737,1.39847 -6.0762,2.79915 -9.11434,4.20107 -4.27863,1.97434 -8.5559,3.95115 -12.8315,5.93035 -3.97643,1.84071 -7.95141,3.68349 -11.93115,5.53128 -2.68008,1.24436 -5.36233,2.49099 -8.03718,3.73548 -3.07696,1.43156 -6.14414,2.86029 -9.20613,4.28828 -10.92377,5.09441 -21.7815,10.17944 -32.73623,15.33402 -8.94338,4.20816 -17.9514,8.46268 -26.86047,12.68754 -8.97706,4.2571 -17.85365,8.4841 -26.70136,12.71538 -8.5543,4.09096 -17.08161,8.18591 -25.592,12.29077 -9.47297,4.56914 -18.92498,9.15054 -28.30824,13.72178 -8.49094,4.13653 -16.9256,8.26475 -25.35317,12.40946 -9.71867,4.77968 -19.42791,9.58129 -29.07374,14.37886 -12.4581,6.19631 -24.81042,12.38587 -37.1422,18.61291 -13.61373,6.87437 -27.20243,13.79441 -40.768276,20.76413 -11.969531,6.14958 -23.921273,12.33784 -35.866613,18.57123 -13.810076,7.20646 -27.611595,14.47324 -41.510472,21.85714 -6.22246,3.30574 -12.464433,6.63495 -18.701293,9.97435 -5.073843,2.71668 -10.144302,5.44011 -15.243032,8.18715 -5.536639,2.98298 -11.106615,5.99379 -16.69068,9.02189 -5.921152,3.21089 -11.858146,6.44121 -17.825781,9.69853 -6.010542,3.28075 -12.052166,6.58888 -18.106702,9.91362 -7.872033,4.32279 -15.765893,8.67364 -23.679364,13.04804 -3.447657,1.90579 -6.899037,3.81606 -10.364927,5.73643 -2.59604,1.43841 -5.20023,2.88249 -7.81008,4.33071 -2.39111,1.32684 -4.78698,2.65716 -7.18424,3.98894 -2.46459,1.36917 -4.93066,2.73989 -7.40198,4.11407 -3.00593,1.67145 -6.01963,3.34802 -9.0353,5.02614 -5.03029,2.7992 -10.06604,5.60271 -15.10621,8.40805 -5.08021,2.82764 -10.16492,5.65714 -15.25066,8.48481 -4.68454,2.60459 -9.36996,5.20763 -14.05286,7.80505 -6.92749,3.84241 -13.84947,7.67254 -20.76585,11.48542 -6.95764,3.83563 -13.9096,7.65381 -20.86486,11.45423 -7.07852,3.86777 -14.16045,7.71715 -21.25347,11.54784 -7.1188,3.84462 -14.24875,7.6704 -21.39547,11.47698 -6.99168,3.724 -13.99941,7.42961 -21.0265,11.11615 -7.25419,3.80568 -14.52902,7.59103 -21.82387,11.35414 -8.30287,4.2831 -16.63168,8.53736 -24.98276,12.75967 -10.4058,5.26117 -20.84617,10.47271 -31.31408,15.62946 -8.71975,4.29557 -17.45861,8.55314 -26.20924,12.77066 -7.33637,3.53589 -14.68101,7.04365 -22.00943,10.51384 -9.26642,4.3879 -18.50692,8.71574 -27.73324,12.99526 -9.49949,4.40621 -18.98396,8.76119 -28.40573,13.05107 -7.0303,3.20101 -14.02569,6.36577 -20.99798,9.50127 -7.05383,3.17216 -14.08402,6.31437 -21.10878,9.43666 -6.81708,3.02999 -13.62905,6.04121 -20.4065,9.02236 -5.42828,2.38769 -10.83441,4.75608 -16.23265,7.11216 -5.52267,2.41039 -11.03708,4.80789 -16.53407,7.18915 -5.30713,2.29902 -10.59803,4.58289 -15.8803,6.85548 -5.01799,2.15888 -10.0282,4.30758 -15.02894,6.44575 -5.11755,2.18811 -10.22518,4.36521 -15.32135,6.53104 -11.0869,4.71185 -22.11954,9.37041 -33.11214,13.98533 -8.69558,3.65059 -17.36611,7.27386 -26.00667,10.8693 -10.10575,4.20512 -20.17049,8.37216 -30.21795,12.51277 -7.56268,3.11662 -15.11557,6.21826 -22.63869,9.29751 -9.28425,3.80009 -18.52317,7.566081 -27.76419,11.318498 -7.69913,3.126318 -15.39972,6.243215 -23.06578,9.336774 -7.88683,3.182645 -15.7371,6.340588 -23.57851,9.485684 -5.66112,2.270608 -11.31761,4.53452 -16.97203,6.792905 -5.70677,2.279296 -11.41142,4.552963 -17.10475,6.817518 -6.42227,2.554496 -12.83013,5.097398 -19.22675,7.630242 -7.45123,2.950434 -14.8872,5.887222 -22.31718,8.814375 -7.37158,2.904142 -14.73727,5.798801 -22.09846,8.684754 -6.53775,2.563123 -13.07196,5.11938 -19.59208,7.664845 -6.83084,2.66677 -13.64622,5.321696 -20.45182,7.967247 -7.35625,2.859603 -14.70106,5.708254 -22.04498,8.55028 -9.15617,3.543352 -18.31093,7.076407 -27.45701,10.596772 -7.70178,2.964445 -15.39743,5.919892 -23.07213,8.860952 -5.808,2.225711 -11.6041,4.443183 -17.3989,6.656624 -5.6513,2.158653 -11.3015,4.313473 -16.952,6.465053 -5.8707,2.235472 -11.7417,4.467448 -17.6107,6.695093 -5.9438,2.256043 -11.8854,4.507644 -17.8242,6.754575 -6.0309,2.281786 -12.0588,4.558756 -18.0758,6.827966 -4.9648,1.872364 -9.9221,3.739444 -14.8794,5.604076 -5.3565,2.014802 -10.713,4.026745 -16.0739,6.03747 -5.9395,2.227774 -11.8844,4.454054 -17.8322,6.677981 -6.2974,2.354649 -12.5982,4.706662 -18.8908,7.051729 -5.4668,2.037341 -10.9273,4.06944 -16.3723,6.092885 -4.4882,1.66787 -8.9658,3.32986 -13.4439,4.99012 -4.3438,1.610443 -8.6881,3.219259 -13.0369,4.827926 -4.5557,1.685205 -9.1163,3.370247 -13.6789,5.054002 -4.6024,1.698436 -9.2067,3.395562 -13.813,5.091413 -4.5885,1.689293 -9.1791,3.377321 -13.7726,5.064432 -4.643,1.705261 -9.2889,3.409589 -13.9299,5.110049 -5.2207,1.91288 -10.435,3.82088 -15.6455,5.72492 -4.5798,1.67355 -9.1565,3.34404 -13.7314,5.01189 -4.9573,1.80729 -9.9123,3.61147 -14.873,5.41545 -5.1964,1.88968 -10.399,3.77913 -15.6065,5.66785 -5.4322,1.97023 -10.8697,3.93966 -16.3081,5.90672 -5.1568,1.86522 -10.3145,3.72832 -15.4692,5.58792 -5.4728,1.97435 -10.9423,3.94475 -16.4039,5.90962 -4.4432,1.59845 -8.8812,3.19323 -13.3245,4.78811 -4.8931,1.75633 -9.7927,3.51278 -14.6956,5.2682 -5.479,1.96171 -10.9622,3.92213 -16.4508,5.88168 -5.3225,1.90025 -10.65,3.79967 -15.9852,5.69919 -5.11,1.81932 -10.227,3.63874 -15.3365,5.45301 -5.1439,1.8265 -10.28,3.64778 -15.4112,5.46485 -9.6049,3.40132 -19.1922,6.78788 -28.8102,10.17687 -10.7649,3.7931 -21.5681,7.58922 -32.361,11.37142 -9.7908,3.43103 -19.573,6.8506 -29.343,10.25784 -8.7884,3.06489 -17.5669,6.11981 -26.3399,9.16675 -9.125,3.16916 -18.2441,6.32967 -27.3741,9.48785 -9.5474,3.30257 -19.1068,6.60259 -28.6244,9.88209 -10.2282,3.52442 -20.4081,7.02515 -30.5601,10.51012 -6.6643,2.28774 -13.3165,4.56869 -19.9709,6.84795 -6.1041,2.09075 -12.21,4.18008 -18.3129,6.26647 -5.8187,1.98924 -11.6347,3.97581 -17.4407,5.95743 -6.3264,2.15923 -12.6411,4.31258 -18.9483,6.46175 -6.8437,2.33194 -13.6785,4.65894 -20.5077,6.9823 -6.4058,2.17934 -12.8066,4.35547 -19.2004,6.52786 -5.5355,1.88075 -11.0656,3.7587 -16.5867,5.63271 -3.8657,1.31212 -7.727,2.62232 -11.5852,3.93107 -3.8703,1.31283 -7.7374,2.62421 -11.6018,3.93435 -3.9209,1.32927 -7.839,2.65726 -11.752,3.9832 -4.4461,1.50658 -8.8856,3.01053 -13.3208,4.51271 -5.2083,1.76405 -10.4108,3.52566 -15.6094,5.2858 -5.7793,1.95678 -11.554,3.91175 -17.326,5.86595 -5.1121,1.73078 -10.2222,3.46095 -15.3272,5.18976 -6.4427,2.18186 -12.8773,4.36154 -19.3026,6.53919 -7.1455,2.42172 -14.2794,4.84091 -21.4085,7.26061 -8.4939,2.88292 -16.9811,5.76655 -25.4588,8.6512 -8.5307,2.90266 -17.0518,5.80635 -25.5618,8.71173 -8.1595,2.78571 -16.3088,5.57298 -24.4458,8.36212 -7.5452,2.5863 -15.08,5.17422 -22.6104,7.76667 -5.8827,2.02523 -11.7628,4.05323 -17.6338,6.08211 -4.3552,1.50508 -8.7053,3.01064 -13.0498,4.5166 -4.5631,1.58177 -9.12,3.16397 -13.6742,4.74804 -5.6638,1.97 -11.3235,3.9429 -16.98,5.91934 -6.7683,2.36488 -13.5322,4.73485 -20.2919,7.11059 -7.4987,2.63544 -14.9924,5.27799 -22.4789,7.92764 -7.6065,2.69211 -15.2056,5.39157 -22.7979,8.09934 -5.0306,1.79415 -10.0582,3.59196 -15.0828,5.39361 -5.0712,1.81838 -10.1393,3.64068 -15.2044,5.46716 -5.1114,1.84318 -10.2198,3.69061 -15.3248,5.54243 -5.1453,1.86648 -10.2873,3.73742 -15.4269,5.61339 -4.688,1.71117 -9.374,3.42653 -14.0577,5.1462 -3.9149,1.43735 -7.8281,2.87771 -11.7394,4.32104 -3.1423,1.15956 -6.2834,2.32103 -9.4218,3.48396 -2.4561,0.91007 -4.9105,1.82104 -7.3637,2.73309 -2.7179,1.01043 -5.4344,2.02219 -8.15,3.03554 -3.241,1.20938 -6.4808,2.42103 -9.7196,3.63504 -3.7638,1.41081 -7.5262,2.82481 -11.2873,4.24217 -4.2859,1.61509 -8.5701,3.23454 -12.8528,4.85849 -5.7205,2.16918 -11.4383,4.34639 -17.1537,6.53209 -6.0464,2.31229 -12.0902,4.63408 -18.1315,6.96578 -6.0173,2.32245 -12.0321,4.65474 -18.0443,6.99713 -5.9886,2.33321 -11.9747,4.67645 -17.958,7.03001 -6.4353,2.53136 -12.8676,5.07466 -19.2965,7.63024 -6.4022,2.54492 -12.8011,5.10202 -19.1967,7.67168 -6.3681,2.55862 -12.733,5.12969 -19.0943,7.71354 -6.3282,2.57039 -12.653,5.15343 -18.9746,7.74964 -5.8266,2.39293 -11.6505,4.79705 -17.4721,7.21282 -5.0237,2.08468 -10.0456,4.17804 -15.0662,6.28042 -4.0031,1.67631 -8.0053,3.35836 -12.0067,5.04631 -3.2926,1.38896 -6.5848,2.78192 -9.8775,4.1794 -2.9552,1.25421 -5.9109,2.51207 -8.8677,3.77386 -3.9427,1.68257 -7.8874,3.37212 -11.8315,5.0677 -5.0469,2.16968 -10.0928,4.34923 -15.1371,6.5385 -6.7009,2.90822 -13.3988,5.8336 -20.0962,8.77763 -6.7396,2.96258 -13.4788,5.94405 -20.2173,8.94473 -6.6358,2.95499 -13.271,5.92862 -19.9056,8.92136 -6.5329,2.94686 -13.0652,5.91225 -19.5968,8.8965 -6.4326,2.93899 -12.8644,5.89628 -19.2958,8.87226 -6.2387,2.88683 -12.4768,5.79125 -18.7125,8.71252 -5.5056,2.57926 -11.0093,5.17166 -16.5126,7.77793 -4.6897,2.22098 -9.3791,4.45204 -14.0694,6.69379 -3.5111,1.67815 -7.0227,3.3623 -10.537,5.0535 -2.8936,1.39253 -5.789,2.78985 -8.6868,4.19228 -3.1832,1.54053 -6.3693,3.08721 -9.5558,4.63893 -3.8778,1.88829 -7.7562,3.78404 -11.6339,5.68655 -4.5677,2.24103 -9.1344,4.49145 -13.7021,6.75238 -6.5984,3.266 -13.1991,6.55393 -19.8029,9.86432 -7.0352,3.52663 -14.0738,7.07876 -21.1128,10.65504 -7.2939,3.7058 -14.5881,7.43753 -21.8814,11.19452 -9.2807,4.78077 -18.5598,9.60246 -27.8339,14.46331 -9.0793,4.75877 -18.154,9.55508 -27.2191,14.38649 -9.1601,4.88197 -18.3105,9.79978 -27.4558,14.75616 -8.6041,4.66302 -17.2037,9.36018 -25.8037,14.09462 -5.7951,3.19028 -11.5904,6.39748 -17.3778,9.61725 -6.1304,3.41056 -12.252,6.83522 -18.3646,10.27373 -6.7207,3.78056 -13.4305,7.57786 -20.1315,11.39272 -7.0445,4.01033 -14.0792,8.04006 -21.1139,12.09454 -6.4968,3.74452 -12.9936,7.51014 -19.4912,11.29743 -5.787,3.37313 -11.5747,6.76343 -17.3597,10.16866 -4.9283,2.90092 -9.8547,5.81266 -14.7771,8.73387 -3.9757,2.35938 -7.9489,4.72494 -11.9208,7.09728 -4.0736,2.4331 -8.1458,4.87333 -12.2164,7.32043 -4.5503,2.7355 -9.0986,5.47957 -13.6447,8.23196 -5.0251,3.04236 -10.0474,6.09486 -15.0674,9.15741 -5.6202,3.42878 -11.2374,6.87015 -16.8547,10.3258 -6.7025,4.1233 -13.4053,8.26694 -20.1053,12.42872 -6.0571,3.76244 -12.112,7.5397 -18.1646,11.33145 -6.7426,4.22401 -13.4824,8.466 -20.2191,12.72545 -7.0132,4.43432 -14.023,8.88755 -21.0276,13.35828 -6.3774,4.07044 -12.7504,8.15538 -19.1222,12.25608 -8.6528,5.56874 -17.3032,11.16653 -25.9629,16.79967 -7.6307,4.96376 -15.2685,9.95498 -22.9022,14.96559 -6.7488,4.42986 -13.4943,8.87487 -20.2279,13.32895 -5.9776,3.95401 -11.9458,7.91515 -17.9016,11.88135 -6.0738,4.04478 -12.1347,8.09482 -18.1852,12.15206 -6.6719,4.47389 -13.3312,8.95652 -19.9885,13.45552 -7.0478,4.7628 -14.0935,9.5439 -21.1341,14.3419 -7.5734,5.161 -15.1411,10.3415 -22.6913,15.5331 -6.9491,4.7783 -13.8836,9.566 -20.7982,14.3597 -6.2246,4.3153 -12.4331,8.6355 -18.6305,12.9642 -6.3802,4.4564 -12.7485,8.9219 -19.1071,13.3983 -6.1944,4.3608 -12.3796,8.7319 -18.5565,13.1145 -5.9884,4.2489 -11.9691,8.5085 -17.9419,12.7794 -5.3222,3.8055 -10.6381,7.6199 -15.9456,11.4416 -4.988,3.5916 -9.9684,7.1898 -14.9378,10.7919 -5.675,4.1135 -11.3355,8.2322 -16.9858,12.3593 -6.4267,4.6941 -12.8401,9.3991 -19.2417,14.116 -7.0236,5.1753 -14.0328,10.3651 -21.0311,15.5721 -7.5171,5.5932 -15.0215,11.2062 -22.5118,16.8386 -7.1755,5.3957 -14.338,10.809 -21.4869,16.24 -6.8206,5.1816 -13.6289,10.3793 -20.4243,15.5928 -5.9808,4.5886 -11.9516,9.1896 -17.9118,13.8027 -4.8996,3.7921 -9.792,7.5924 -14.6714,11.3965 -2.8978,2.2591 -5.791,4.5196 -8.6804,6.782 -3.7448,2.9322 -7.4832,5.8676 -11.2172,8.8078 -4.586,3.6111 -9.1652,7.2294 -13.7383,10.8555 -5.3055,4.2068 -10.6027,8.4241 -15.8929,12.6531 -5.1513,4.118 -10.296,8.247 -15.4336,12.3869 -6.2491,5.0356 -12.4879,10.0873 -18.7157,15.1551 -5.6874,4.6281 -11.3658,9.2696 -17.0344,13.9243 -5.1312,4.2134 -10.2545,8.4375 -15.3691,12.6721 -6.0129,4.9783 -12.0137,9.9711 -18.0017,14.9777 -5.2199,4.3644 -10.43,8.7394 -15.6324,13.1267 -4.7481,4.0042 -9.4897,8.0186 -14.224,12.0427 -4.2877,3.6445 -8.5695,7.2969 -12.8452,10.9572 -5.0938,4.3605 -10.179,8.7324 -15.2538,13.1139 -6.0769,5.2468 -12.1389,10.5075 -18.1886,15.7847 -7.7998,6.8037 -15.5791,13.6346 -23.3369,20.4923 -8.5311,7.5413 -17.0361,15.115 -25.5136,22.7205 -8.57,7.6884 -17.1118,15.4093 -25.625,23.1629 -8.6018,7.8343 -17.1743,15.702 -25.7184,23.6046 -8.5297,7.8892 -17.0309,15.8133 -25.5045,23.7737 -5.164,4.8512 -10.3177,9.7159 -15.4608,14.594 -5.0994,4.8365 -10.1883,9.6861 -15.2667,14.5489 -5.0335,4.8197 -10.0567,9.6524 -15.0693,14.498 -4.8269,4.6661 -9.6441,9.3443 -14.4517,14.0347 -4.1949,4.0927 -8.3825,8.1948 -12.5625,12.3062 -3.4871,3.4299 -6.9689,6.8662 -10.4451,10.3088 -2.9139,2.8856 -5.8238,5.7756 -8.7296,8.6698 -3.0393,3.0273 -6.0743,6.0592 -9.1049,9.096 -3.402,3.409 -6.7987,6.8242 -10.1899,10.2455 -4.2981,4.3363 -8.5874,8.6825 -12.8683,13.0392 -4.7456,4.8294 -9.4807,9.6717 -14.2042,14.5256 -5.1946,5.3381 -10.375,10.6903 -15.5406,16.0561 -5.6392,5.8578 -11.2607,11.7319 -16.8648,17.6231 -6.0666,6.3773 -12.1128,12.7746 -18.1385,19.1924 -6.4765,6.8979 -12.9293,13.8194 -19.3582,20.7648 -6.8681,7.4199 -13.7089,14.8671 -20.5214,22.3422 -6.9626,7.6398 -13.8957,15.3087 -20.7996,23.0093 -4.1711,4.6523 -8.3316,9.3162 -12.4812,13.9913 -3.491,3.9333 -6.9743,7.8745 -10.45,11.8239 -2.824,3.2089 -5.6429,6.4231 -8.4565,9.6424 -2.1785,2.4927 -4.3537,4.9883 -6.527,7.4884 -2.2012,2.5322 -4.4004,5.0689 -6.5975,7.6102 -3.4829,4.0286 -6.9607,8.0686 -10.4297,12.116 -4.0363,4.7095 -8.0609,9.429 -12.0726,14.1574 -4.4783,5.2784 -8.9405,10.5679 -13.3875,15.8695 -6.1471,7.3285 -12.2649,14.6801 -18.3532,22.0554 -6.0756,7.3597 -12.1218,14.743 -18.1379,22.1493 -5.4798,6.7461 -10.9347,13.5113 -16.3634,20.2943 -4.9003,6.1229 -9.7793,12.2603 -14.6374,18.413 -4.7841,6.0591 -9.5479,12.133 -14.294,18.2253 -5.413,6.9485 -10.8028,13.921 -16.1675,20.9155 -6.0281,7.8595 -12.0245,15.7469 -17.9883,23.6621 -3.3128,4.3967 -6.6155,8.802 -9.908,13.2158 -3.3047,4.4301 -6.5991,8.8689 -9.8829,13.3161 -2.8154,3.8127 -5.6229,7.6316 -8.4227,11.4569 -2.3028,3.1461 -4.6002,6.2965 -6.8925,9.4513 -1.8004,2.478 -3.5977,4.9586 -5.3919,7.4423 -1.3067,1.8088 -2.6117,3.6191 -3.9152,5.4311 -1.1348,1.5775 -2.2684,3.1563 -3.3987,4.7334 -1.5332,2.1392 -3.0603,4.2752 -4.5841,6.4121 -2.0071,2.8144 -4.0085,5.6303 -6.0047,8.4481 -2.4736,3.4919 -4.9389,6.9865 -7.3969,10.4852 -2.986,4.2504 -5.9611,8.5066 -8.9253,12.7692 -3.4434,4.9515 -6.8722,9.9114 -10.2868,14.8807 -3.8836,5.6518 -7.7488,11.3157 -11.5945,16.9902 -4.2888,6.3284 -8.5532,12.67 -12.799,19.0337 -4.2068,6.3053 -8.3954,12.6323 -12.5675,18.9844 -5.0618,7.7067 -10.0993,15.4504 -15.1133,23.2338 -4.5702,7.0944 -9.1208,14.2219 -13.6535,21.3867 -4.1007,6.4817 -8.1867,12.9939 -12.2606,19.5423 -3.2809,5.2737 -6.554,10.5709 -9.8202,15.8942 -2.9367,4.7865 -5.8679,9.5941 -8.7988,14.4335 -2.5981,4.2897 -5.196,8.6043 -7.7722,12.9096 -2.196,3.6699 -4.3763,7.3329 -6.5322,10.9731 -1.8223,3.077 -3.6271,6.1377 -5.4261,9.2015 -2.1084,3.5908 -4.2088,7.1859 -6.3026,10.7879 -2.3781,4.0913 -4.7476,8.1915 -7.1071,12.2984 -2.7826,4.8435 -5.5513,9.6963 -8.3055,14.558 -3.104,5.4791 -6.1896,10.9696 -9.2549,16.4683 -3.18,5.7047 -6.3381,11.4182 -9.4744,17.1412 -3.2268,5.8883 -6.4304,11.7868 -9.6105,17.695 -3.2674,6.0706 -6.5099,12.1516 -9.7272,18.2431 -2.2142,4.1924 -4.4164,8.3897 -6.6065,12.5919 -2.1569,4.1386 -4.302,8.2818 -6.4365,12.4323 -1.8106,3.5206 -3.6135,7.0464 -5.4088,10.5777 -1.4455,2.8434 -2.8861,5.6903 -4.323,8.5434 -1.0927,2.1695 -2.1832,4.3426 -3.2712,6.5188 -1.0953,2.1905 -2.1881,4.3842 -3.2772,6.5786 -1.4074,2.8356 -2.8087,5.6725 -4.2043,8.5117 -2.0229,4.1153 -4.0339,8.2353 -6.0329,12.3603 -2.4131,4.9793 -4.8087,9.9657 -7.1857,14.9574 -2.7235,5.7194 -5.4226,11.4457 -8.1034,17.193 -2.4648,5.2841 -4.9142,10.586 -7.3508,15.9128 -2.083,4.5537 -4.1567,9.1256 -6.2217,13.7181 -1.7203,3.826 -3.4347,7.6662 -5.1525,11.5431 -1.5999,3.6109 -3.2029,7.2536 -4.7966,10.9018 -1.6104,3.6865 -3.2113,7.3787 -4.7949,11.0574 -1.8467,4.2903 -3.6698,8.5623 -5.4867,12.8569 -1.9373,4.5796 -3.8677,9.1848 -5.7913,13.8184 -2.933,7.0649 -5.8504,14.1956 -8.7438,21.3754 -3.019,7.4915 -6.0118,15.0363 -8.9591,22.5865 -3.1128,7.9745 -6.1749,15.955 -9.1974,23.9734 -3.1389,8.3271 -6.2351,16.695 -9.2911,25.1097 -3.019,8.3128 -5.9989,16.6712 -9.0138,25.295 -2.6001,7.437 -5.2262,15.0714 -7.8047,22.699 -2.5539,7.5551 -5.0611,15.1035 -7.5111,22.6092 -1.1852,3.6307 -2.3569,7.2513 -3.5213,10.8812 -1.0132,3.1585 -2.0208,6.3239 -3.0231,9.4983 -1.0236,3.2421 -2.0418,6.4935 -3.0538,9.7537 -1.2877,4.1486 -2.5655,8.3116 -3.8295,12.4793 -1.5221,5.0187 -3.0242,10.0444 -4.5079,15.0805 -1.3837,4.6968 -2.7514,9.4026 -4.1036,14.1186 -1.0938,3.8146 -2.1775,7.6357 -3.2573,11.4856 -1.5681,5.5906 -3.1282,11.2418 -4.679,16.9479 -1.7663,6.4993 -3.5206,13.0698 -5.2493,19.6527 -1.9353,7.3702 -3.8386,14.7559 -5.7115,22.1403 -2.0443,8.0599 -4.0525,16.1182 -6.0232,24.1756 -2.0961,8.5703 -4.1498,17.1394 -6.1617,25.7181 -2.0567,8.7695 -4.0696,17.549 -6.0367,26.3549 -1.8677,8.3612 -3.6941,16.7463 -5.4669,25.1505 -1.5138,7.1761 -2.9886,14.3661 -4.4106,21.5475 -1.4238,7.1901 -2.7947,14.3716 -4.0999,21.5169 -1.368,7.4891 -2.6637,14.9384 -3.8756,22.3309 -1.1627,7.0923 -2.2482,14.1322 -3.25,21.1177 -0.9393,6.5492 -1.8051,13.0505 -2.5947,19.5031 -0.9211,7.5267 -1.7387,14.9871 -2.4543,22.4564 -0.7596,7.9283 -1.4044,15.8666 -1.9361,23.9295 -0.5605,8.498 -0.9955,17.1345 -1.2931,25.701 -0.2973,8.5593 -0.4576,17.0488 -0.4571,25.4313 5e-4,8.2645 0.1571,16.425 0.4166,24.5331 0.2595,8.1054 0.6218,16.1585 1.3047,24.1157 0.21,2.4463 0.4503,4.8836 0.6906,7.3209"
         style="fill:none;stroke:#000000;stroke-width:30.23622085;stroke-linecap:round;stroke-miterlimit:4;stroke-dasharray:none;stroke-opacity:1"
         id="path4506" />
      <path
         d="m -4699.7953,3642.2945 c 6.4786,3.6512 12.9572,7.3025 19.4509,10.8308 5.3839,2.9252 10.7782,5.766 16.1745,8.5799 4.4208,2.3053 8.843,4.5926 13.2657,6.862 3.5401,1.8166 7.0805,3.6216 10.6152,5.4138 2.9865,1.5142 5.969,3.0193 8.9276,4.5037 2.0816,1.0445 4.1515,2.0787 6.1798,3.088 1.8617,0.9264 3.6884,1.8319 5.4783,2.7147 1.7922,0.8839 3.5475,1.745 5.2651,2.5817 1.7406,0.8479 3.4424,1.6706 5.1015,2.464 1.6905,0.8085 3.3367,1.5865 5.0161,2.3702 3.9348,1.8364 8.0521,3.7045 12.2819,5.64 4.1582,1.9028 8.4253,3.8707 12.79,5.9471 2.1852,1.0395 4.3949,2.1062 6.6352,3.1846 2.7521,1.3247 5.5504,2.6669 8.3741,4.0163 3.6062,1.7234 7.2538,3.4584 10.8614,5.3707 4.3872,2.3255 8.7153,4.9131 13.1074,7.4819 5.1565,3.0158 10.4012,6.0056 15.8113,8.6804 6.1925,3.0616 12.6017,5.7106 18.824,8.8714 5.1671,2.6247 10.2053,5.6024 15.5318,7.9251 5.7783,2.5196 11.896,4.2684 17.9579,6.173 6.476,2.0347 12.8884,4.2471 19.3363,6.4114 6.8525,2.3002 13.7451,4.5461 20.6339,6.8021 7.2882,2.3868 14.5723,4.7849 21.8251,7.1658 7.6417,2.5086 15.2486,4.998 22.8062,7.4169 7.9345,2.5395 15.8145,5.0013 23.549,7.2679 8.0955,2.3725 16.0316,4.5312 23.9677,6.6899"
         style="fill:none;stroke:#000000;stroke-width:30.23622085;stroke-linecap:round;stroke-miterlimit:4;stroke-dasharray:none;stroke-opacity:1"
         id="path4508" />
      <path
         d="m -4947.8433,3276.3028 c 0.014,6.2227 0.029,12.4454 0.1981,18.6502 0.137,5.0255 0.3756,10.0394 0.69,15.0391 0.2412,3.8356 0.5269,7.6629 0.8632,11.4782 0.2371,2.6907 0.4994,5.3755 0.7863,8.0538 0.2525,2.3571 0.5241,4.7093 0.8154,7.0568 1.1849,9.5505 2.6954,19.0249 4.5428,28.3616 2.0871,10.5477 4.6043,20.9196 7.5424,31.0379 2.8453,9.798 6.0852,19.3581 9.678,28.5845 1.9404,4.983 3.9838,9.8688 6.1217,14.6484 2.0575,4.5996 4.2025,9.1008 6.4094,13.4747 2.1653,4.2916 4.3901,8.4606 6.7362,12.6306 2.655,4.719 5.4654,9.4393 8.3104,13.976 2.6407,4.2108 5.3112,8.2633 7.9966,12.1802 3.0222,4.4081 6.0632,8.6445 9.2482,12.9035 2.9288,3.9164 5.9794,7.852 9.155,11.7646 2.7349,3.3698 5.5625,6.7225 8.4787,10.1009 2.0923,2.4238 4.2302,4.8608 6.6096,7.1415 1.9087,1.8297 3.9729,3.5588 5.9844,5.2335 2.208,1.8382 4.3526,3.6109 6.4107,5.4611 2.3158,2.0818 4.5221,4.2616 6.7361,6.2586 2.6405,2.3816 5.292,4.5032 7.8592,6.5241 2.485,1.9563 4.891,3.8182 7.3192,5.5726 2.8343,2.0477 5.699,3.9489 8.5999,5.6498 2.2108,1.2964 4.4427,2.4764 6.5497,3.6765 1.5127,0.8615 2.961,1.7334 3.9702,2.3861 0.6172,0.3992 1.0701,0.7164 1.2913,0.8767 0.1987,0.1441 0.2105,0.1615 0.4508,0.3402 0.3076,0.2288 0.9899,0.7219 1.7399,1.2599 0.9415,0.6753 1.9897,1.4214 3.0686,2.1879 2.5289,1.7968 5.2261,3.7062 7.9298,5.6788 2.5359,1.8501 5.0776,3.756 7.6865,5.6729 2.8211,2.0727 5.7209,4.1583 8.6674,6.2648 3.2713,2.3387 6.6002,4.7031 10.004,7.0985 2.2166,1.5599 4.4649,3.133 6.747,4.7224 2.1574,1.5026 4.345,3.0197 6.5629,4.5496 2.1787,1.5029 4.3866,3.0181 6.731,4.6067 3.052,2.068 6.3354,4.2603 9.6945,6.4647 4.2879,2.8138 8.6989,5.6471 13.2212,8.4428 5.4425,3.3647 11.046,6.6751 16.6494,9.9854"
         style="fill:none;stroke:#000000;stroke-width:30.23622085;stroke-linecap:round;stroke-miterlimit:4;stroke-dasharray:none;stroke-opacity:1"
         id="path4510" />
      <path
         d="m 3320.833,-619.17013 c 8.6209,-12.4215 17.2417,-24.843 25.6466,-37.42837 7.9362,-11.8835 15.6798,-23.9131 23.2585,-36.04204 7.152,-11.44613 14.1572,-22.98072 20.9846,-34.61073 6.4386,-10.96776 12.7192,-22.02038 18.8173,-33.15826 5.7452,-10.49342 11.3285,-21.0625 16.7345,-31.70767 4.989,-9.82403 9.8271,-19.71286 14.5346,-29.66886 4.1631,-8.80459 8.224,-17.66172 12.2141,-26.5595 3.4815,-7.76369 6.9091,-15.55835 10.2995,-23.38378 2.9143,-6.72663 5.801,-13.47601 8.6708,-20.23009 1.3193,-3.1049 2.635,-6.2108 3.9372,-9.32297 1.6573,-3.96051 3.2929,-7.93116 4.9085,-11.90914 2.0571,-5.06489 4.0818,-10.14165 6.0714,-15.22988 2.4295,-6.21341 4.8066,-12.44392 7.1349,-18.68918 2.7659,-7.41884 5.4629,-14.8585 8.0438,-22.32688 3.0109,-8.71305 5.8638,-17.46519 8.7166,-26.21732"
         style="fill:none;stroke:#000000;stroke-width:30.23622085;stroke-linecap:round;stroke-miterlimit:4;stroke-dasharray:none;stroke-opacity:1"
         id="path4512" />
      <path
         d="m 3329.9718,-1480.5589 c 0.4435,1.9916 0.887,3.9833 1.324,5.9782 0.4297,1.9616 0.8531,3.9264 1.272,5.8937 0.4117,1.934 0.8191,3.8704 1.2217,5.8097 0.3956,1.9061 0.7866,3.8148 1.173,5.7264 0.3796,1.8785 0.7549,3.7596 1.1256,5.6436 0.3642,1.8512 0.7241,3.705 1.0794,5.5617 0.3491,1.824 0.6939,3.6508 1.0343,5.4804 1.316,7.0743 2.5662,14.1916 3.7373,21.3625 1.0624,6.5061 2.0598,13.0564 2.9734,19.6608 0.4987,3.6048 0.9724,7.2258 1.4159,10.8652 0.4132,3.3905 0.8001,6.7969 1.1553,10.2213 0.386,3.7221 0.7344,7.4653 1.0337,11.2319 0.2718,3.4199 0.5031,6.8589 0.681,10.3181 0.2004,3.8973 0.333,7.8201 0.3652,11.7641 0.028,3.4211 -0.019,6.8582 -0.1822,10.2874 -0.092,1.9323 -0.22,3.862 -0.3965,5.7792 -0.1606,1.7457 -0.3612,3.481 -0.6123,5.1875 -0.095,0.645 -0.1971,1.2858 -0.3072,1.9213 -0.1065,0.6145 -0.2203,1.2239 -0.3421,1.8267 -0.118,0.5842 -0.2434,1.1622 -0.3769,1.732 -0.1297,0.5537 -0.2671,1.0996 -0.4117,1.6372 -0.141,0.5241 -0.2889,1.0402 -0.4465,1.5422 -0.1542,0.4913 -0.3177,0.9692 -0.4812,1.447"
         style="fill:none;stroke:#000000;stroke-width:30.23622085;stroke-linecap:round;stroke-miterlimit:4;stroke-dasharray:none;stroke-opacity:1"
         id="path4514" />
      <path
         d="m 3313.9367,-1544.4114 c 0.1415,0.4009 0.283,0.8018 0.4203,1.2026 0.1417,0.4135 0.2789,0.827 0.4134,1.2403 0.1375,0.4224 0.2723,0.8447 0.4043,1.2668 0.134,0.4283 0.2652,0.8565 0.3942,1.2845 0.1306,0.433 0.259,0.8658 0.3857,1.2985 0.1278,0.4366 0.254,0.8731 0.3788,1.3095 0.1258,0.4396 0.2503,0.879 0.3735,1.3183 0.1241,0.4421 0.2469,0.8841 0.3686,1.3259 0.1224,0.4442 0.2438,0.8883 0.3642,1.3323 0.121,0.4461 0.2411,0.8921 0.3604,1.3379 0.1198,0.4479 0.2388,0.8957 0.357,1.3434 0.1188,0.4496 0.2369,0.899 0.3544,1.3484 0.1179,0.4511 0.2352,0.9022 0.3519,1.3532 0.1171,0.4527 0.2337,0.9054 0.3497,1.3579 0.1164,0.4542 0.2323,0.9084 0.3477,1.3625 0.1158,0.4556 0.2311,0.9112 0.3459,1.3668 0.1152,0.4571 0.23,0.9141 0.3444,1.371 0.1148,0.4585 0.2291,0.9168 0.343,1.3751 0.1144,0.4599 0.2283,0.9196 0.3419,1.3793 0.1139,0.4611 0.2275,0.9222 0.3407,1.3832 0.1136,0.4625 0.2268,0.925 0.3397,1.3873 0.1133,0.4638 0.2263,0.9276 0.3389,1.3913 0.1131,0.4651 0.2258,0.9302 0.3382,1.3952 0.1128,0.4665 0.2253,0.9329 0.3375,1.3992 0.1126,0.4678 0.2249,0.9354 0.337,1.4031 0.1123,0.469 0.2244,0.938 0.3363,1.4069 0.1122,0.4703 0.2241,0.9405 0.3358,1.4107 0.1121,0.4716 0.2239,0.9431 0.3354,1.4145 0.1119,0.4728 0.2236,0.9456 0.335,1.4183 0.1118,0.474 0.2233,0.948 0.3346,1.422 0.1117,0.4753 0.2231,0.9505 0.3343,1.4257 0.1115,0.4765 0.2228,0.953 0.334,1.4294 0.1114,0.4778 0.2226,0.9555 0.3337,1.4332 0.1113,0.4789 0.2225,0.9579 0.3334,1.4368 0.1113,0.4802 0.2224,0.9603 0.3333,1.4404 0.1112,0.4814 0.2222,0.9628 0.333,1.4441 0.1112,0.4826 0.2221,0.9652 0.3329,1.4477 0.1111,0.4838 0.222,0.9676 0.3328,1.4513 0.111,0.485 0.2219,0.97 0.3326,1.4549 0.111,0.4862 0.2219,0.9723 0.3326,1.4585 0.1109,0.4873 0.2218,0.9747 0.3324,1.462 0.111,0.4885 0.2218,0.977 0.3324,1.4655 0.111,0.4897 0.2217,0.9794 0.3324,1.469 0.1109,0.4909 0.2217,0.9818 0.3323,1.4726 0.1109,0.492 0.2217,0.984 0.3323,1.476 0.1109,0.4932 0.2216,0.9863 0.3323,1.4795"
         style="fill:none;stroke:#000000;stroke-width:30.23622085;stroke-linecap:round;stroke-miterlimit:4;stroke-dasharray:none;stroke-opacity:1"
         id="path4516" />
      <path
         d="m -4676.9267,3394.1654 c 5.1377,-7.175 10.569,-14.548 16.2903,-22.1173 8.4461,-11.174 17.5244,-22.7757 27.2241,-34.7993 9.6996,-12.0235 20.0207,-24.469 30.9392,-37.3137 10.9186,-12.8447 22.4346,-26.0886 34.5337,-39.7207 12.099,-13.6322 24.781,-27.6527 38.0303,-42.0498 13.2493,-14.3971 27.0659,-29.1708 41.4325,-44.3068 14.3666,-15.1359 29.2832,-30.6341 44.7322,-46.4799 30.8979,-31.6915 63.925,-64.7733 98.9515,-99.1428 17.5133,-17.1847 35.5264,-34.6914 54.0223,-52.5063 6.0013,-5.7802 12.0533,-11.5929 18.1556,-17.4375 12.7053,-12.1688 25.6284,-24.4763 38.7642,-36.9181 38.8898,-36.8353 79.6436,-74.8487 122.1278,-113.9331 21.2421,-19.5421 42.9168,-39.352 65.0075,-59.4162 44.1812,-40.1284 90.0262,-81.2741 137.4011,-123.3296 47.3749,-42.0555 96.2798,-85.0208 146.5807,-128.7882 50.3009,-43.7673 101.9978,-88.3367 154.9569,-133.6007 26.4796,-22.6319 53.2747,-45.4375 80.3687,-68.4034 17.5822,-14.9033 35.2903,-29.8741 53.1196,-44.9086 9.6455,-8.1336 19.3265,-16.2858 29.0423,-24.4562 27.675,-23.2728 55.6322,-46.6924 83.8547,-70.2453 28.2226,-23.5529 56.7105,-47.2391 85.4471,-71.0452 28.7366,-23.8061 57.7219,-47.732 86.9391,-71.7644 29.2173,-24.0323 58.6665,-48.1712 88.3309,-72.403 29.6645,-24.2318 59.5442,-48.5566 89.6224,-72.9609 15.0391,-12.2022 30.1278,-24.4242 45.2641,-36.6645 15.1362,-12.2402 30.32,-24.4987 45.5493,-36.7736 60.917,-49.1 122.5611,-98.4643 184.7986,-147.9854 31.1188,-24.7606 62.3859,-49.5604 93.7847,-74.386 31.3987,-24.8255 62.929,-49.6769 94.5743,-74.5405 16.0598,-12.6182 32.1491,-25.2395 48.2659,-37.8622 15.6408,-12.25 31.3074,-24.5013 46.9978,-36.7523 31.8583,-24.8749 63.8149,-49.7486 95.8528,-74.6078 16.019,-12.4296 32.0583,-24.8555 48.1159,-37.2761 32.1153,-24.8413 64.3036,-49.6613 96.5414,-74.4446 15.5014,-11.917 31.0142,-23.8255 46.5583,-35.7299 0.6192,-0.4742 1.2384,-0.9484 1.8577,-1.4226 16.1641,-12.3779 32.3157,-24.7387 48.4817,-37.0887 16.166,-12.3499 32.3462,-24.6891 48.5343,-37.0145 32.3762,-24.6508 64.7836,-49.2467 97.2057,-73.7743 32.422,-24.5275 64.8585,-48.9868 97.2915,-73.36395 13.5647,-10.19552 27.1289,-20.37668 40.6921,-30.54269 18.8661,-14.14062 37.7305,-28.25193 56.5881,-42.33093 32.4147,-24.20071 64.8091,-48.30594 97.168,-72.30251 32.3589,-23.99656 64.6822,-47.88445 96.9531,-71.65023 32.271,-23.76579 64.4896,-47.40946 96.6391,-70.91758 32.1496,-23.50811 64.2301,-46.88068 96.2248,-70.10424 31.9948,-23.22357 63.9037,-46.29814 95.7103,-69.21027 31.8065,-22.91214 63.5106,-45.66184 95.0957,-68.23568 31.5851,-22.57384 63.0511,-44.97181 94.3823,-67.18059 10.9895,-7.78977 21.9624,-15.55626 32.9168,-23.29875 12.4691,-8.81299 24.9142,-17.59487 37.3328,-26.34457 15.5525,-10.95773 31.0632,-21.86497 46.58976,-32.72793 23.2898,-16.29443 46.61508,-32.48921 69.96355,-48.58341 62.26258,-42.91787 124.69008,-85.12053 187.19486,-126.60452 31.25239,-20.742 62.5241,-41.30434 93.80317,-61.686454 31.27906,-20.382118 62.56549,-40.584019 93.84751,-60.60518 31.28203,-20.021161 62.55966,-39.86158 93.82109,-59.520726 31.26143,-19.659145 62.50666,-39.137016 93.72389,-58.433084 31.21724,-19.296066 62.40649,-38.410336 93.55596,-57.342266 62.29894,-37.86386 124.43876,-74.99838 186.325132,-111.39932 30.943185,-18.20048 61.823007,-36.21755 92.627676,-54.0507 30.804669,-17.83315 61.534185,-35.48238 92.176752,-52.94715 30.64258,-17.46477 61.1982,-34.74508 91.65509,-51.84041 22.84267,-12.82149 45.6298,-25.53894 68.35642,-38.1521 3.78777,-2.10219 7.57386,-4.20149 11.35786,-6.29788 3.55251,-1.96814 7.10318,-3.93371 10.65297,-5.89675 4.01245,-2.21887 8.02377,-4.43451 12.03273,-6.64687 3.77783,-2.08481 7.55356,-4.16671 11.32751,-6.24572 22.64372,-12.47402 45.22362,-24.84362 67.73471,-37.10856 30.01478,-16.35326 59.90725,-32.52048 89.66561,-48.50111 29.75835,-15.98064 59.3826,-31.77469 88.86095,-47.38164 58.9567,-31.2139 117.3298,-61.67937 175.02498,-91.39216 57.69517,-29.71279 114.71241,-58.6729 170.9574,-86.8761 56.24499,-28.20319 111.71772,-55.64947 166.32382,-82.33458 40.9547,-20.01384 81.4218,-39.59952 121.3617,-58.75525 6.6567,-3.19262 13.2987,-6.3733 19.9259,-9.54203 3.3135,-1.58437 6.6234,-3.16574 9.9296,-4.74413 3.3061,-1.57839 6.6085,-3.15379 9.9072,-4.7262 13.1947,-6.28963 26.3293,-12.53143 39.4023,-18.72532 6.5366,-3.09695 13.0577,-6.18192 19.5633,-9.25491 32.528,-15.36493 64.6667,-30.43025 96.3933,-45.19495 50.7625,-23.6235 100.4697,-46.4773 149.0274,-68.5573 24.2788,-11.0399 48.2703,-21.8864 71.9626,-32.5389 11.8461,-5.3263 23.6174,-10.604 35.3125,-15.8332 11.6951,-5.2292 23.3138,-10.4098 34.8549,-15.5418 18.0586,-8.0301 35.9268,-15.9411 53.599,-23.7329 4.9161,-2.1675 9.817,-4.3258 14.7026,-6.4748 22.4484,-9.8744 44.574,-19.5536 66.365,-29.0373 43.5821,-18.9674 85.8259,-37.1524 126.6372,-54.5508 40.8113,-17.3984 80.1901,-34.0102 118.042,-49.8311 37.852,-15.8209 74.1771,-30.851 108.8816,-45.0861 34.7046,-14.2351 67.7887,-27.6753 99.1525,-40.315 31.3638,-12.6397 61.0073,-24.479 88.8408,-35.5154 13.9168,-5.5182 27.381,-10.8356 40.4058,-15.9624 1.7103,-0.6732 3.413,-1.3431 5.1098,-2.01 4.7646,-1.8725 9.4835,-3.7214 14.1958,-5.5529 6.3905,-2.4839 12.7691,-4.9358 19.1153,-7.3504 25.3848,-9.6583 50.2522,-18.7185 74.6593,-27.208 24.4072,-8.4896 48.354,-16.4085 71.8352,-23.7719 23.4813,-7.3634 46.497,-14.1712 69.0513,-20.4403 45.1088,-12.5383 88.3722,-22.9221 129.8207,-31.2859 20.7242,-4.1819 40.9947,-7.8588 60.8152,-11.0477 19.8206,-3.1888 39.1913,-5.8895 58.116,-8.1189 12.4914,-1.4716 24.7884,-2.7378 36.8922,-3.8036 6.2337,-0.5489 12.4162,-1.0446 18.5475,-1.4878 18.0364,-1.3037 35.6307,-2.153 52.7866,-2.5648 17.1558,-0.4117 33.8734,-0.3859 50.1564,0.061 16.283,0.4466 32.1315,1.3139 47.5494,2.585 15.4178,1.2712 30.405,2.9462 44.9654,5.0082 14.5603,2.0621 28.6939,4.5112 42.4044,7.3304 6.8553,1.4096 13.6049,2.9118 20.2491,4.5044 6.6443,1.5926 13.1833,3.2757 19.6175,5.0471 6.4343,1.7713 12.7638,3.631 18.9888,5.577 6.2251,1.946 12.3457,3.9783 18.363,6.0944 6.0173,2.116 11.9313,4.3158 17.7413,6.5982 5.8099,2.2823 11.5157,4.6473 17.1191,7.0919 1.9003,0.829 3.7889,1.6673 5.6657,2.5146"
         style="fill:none;stroke:#000000;stroke-width:30.23622085;stroke-linecap:round;stroke-miterlimit:4;stroke-dasharray:none;stroke-opacity:1"
         id="path4518" />
      <path
         d="m -4653.9383,3407.3999 c -1.6111,-0.9189 -3.2223,-1.8377 -4.8334,-2.7605 -1.5723,-0.9005 -3.1446,-1.8048 -4.7169,-2.7107 -1.533,-0.8832 -3.0659,-1.7679 -4.5988,-2.6537 -1.4932,-0.8629 -2.9864,-1.7268 -4.4796,-2.5901 -1.4533,-0.8402 -2.9065,-1.6798 -4.3597,-2.5195"
         style="fill:none;stroke:#000000;stroke-width:30.23622085;stroke-linecap:round;stroke-miterlimit:4;stroke-dasharray:none;stroke-opacity:1"
         id="path4520" />
      <path
         d="m -4359.96,3426.3261 c -0.9506,0.4464 -1.9013,0.8927 -2.8536,1.3335 -0.9443,0.4369 -1.8903,0.8683 -2.8375,1.2956 -0.9392,0.4237 -1.8795,0.8433 -2.8211,1.2583 -0.9336,0.4116 -1.8684,0.8187 -2.8044,1.2214 -0.9281,0.3993 -1.8572,0.7942 -2.7876,1.1848 -0.9224,0.3872 -1.8459,0.77 -2.7704,1.1485 -0.9167,0.3752 -1.8344,0.7461 -2.7532,1.1126 -3.3178,1.3236 -6.6487,2.5898 -9.9901,3.7958 -3.2558,1.1751 -6.5214,2.2931 -9.795,3.351 -3.3516,1.0832 -6.7115,2.1034 -10.0772,3.0583 -3.2941,0.9346 -6.5937,1.8066 -9.8971,2.6138 -6.7257,1.6435 -13.4671,3.0184 -20.2002,4.1131 -6.7463,1.0967 -13.4842,1.9122 -20.1901,2.4544 -6.6655,0.539 -13.2992,0.8079 -19.8723,0.8541 -3.2886,0.023 -6.5621,-0.01 -9.8174,-0.088 -3.2539,-0.078 -6.4896,-0.2013 -9.7026,-0.3526 -3.2125,-0.1513 -6.4022,-0.3307 -9.5703,-0.5415 -3.1973,-0.2128 -6.3725,-0.4577 -9.5301,-0.7525 -3.5647,-0.3329 -7.1069,-0.7294 -10.6317,-1.2229 -3.5585,-0.4982 -7.0992,-1.0953 -10.617,-1.7725 -2.5985,-0.5002 -5.1846,-1.044 -7.7567,-1.6235 -2.5905,-0.5836 -5.167,-1.2032 -7.728,-1.8479 -2.898,-0.7294 -5.7763,-1.491 -8.6345,-2.2766 -2.9044,-0.7983 -5.7881,-1.6215 -8.6531,-2.4858 -2.914,-0.8791 -5.8086,-1.8007 -8.684,-2.7635 -2.9279,-0.9805 -5.8359,-2.0037 -8.7236,-3.0627 -2.7345,-1.0027 -5.4507,-2.0376 -8.1483,-3.0894 -2.7545,-1.0741 -5.4895,-2.1659 -8.2047,-3.2593 -2.7747,-1.1173 -5.5288,-2.2363 -8.2637,-3.3704 -2.7956,-1.1594 -5.5713,-2.3347 -8.3284,-3.5399 -2.6403,-1.1542 -5.2635,-2.3358 -7.8706,-3.5496 -2.6821,-1.2488 -5.347,-2.5316 -7.9948,-3.854 -1.696,-0.847 -3.3849,-1.7103 -5.0675,-2.5889 -1.7266,-0.9015 -3.4466,-1.8191 -5.1573,-2.7561 -1.7545,-0.9611 -3.4993,-1.9426 -5.2442,-2.9241"
         style="fill:none;stroke:#000000;stroke-width:30.23622085;stroke-linecap:round;stroke-miterlimit:4;stroke-dasharray:none;stroke-opacity:1"
         id="path4522" />
      <path
         d="m -4359.96,3426.3261 c 4.6096,2.6712 9.2193,5.3424 13.8287,7.9777 4.6094,2.6354 9.2185,5.235 13.8287,7.9874 4.6088,2.7516 9.2187,5.6559 13.7996,8.924 4.576,3.2645 9.1232,6.8919 13.5338,10.9839 2.2063,2.0469 4.3785,4.2101 6.4619,6.5505 2.0822,2.3388 4.0757,4.8545 5.927,7.5088 1.8517,2.655 3.5611,5.4485 5.1125,8.311 1.5521,2.8637 2.9461,5.7964 4.2401,8.7453 2.5887,5.8995 4.7769,11.8641 6.8084,17.8181 2.0323,5.9565 3.9076,11.9023 5.6418,17.8327 3.4685,11.8606 6.3729,23.6591 9.0615,35.3987 2.6888,11.7409 5.1619,23.4228 7.3498,35.0287 2.1877,11.6043 4.0903,23.1326 5.5021,34.4677 1.4116,11.333 2.3324,22.4729 2.822,33.3863 0.3265,7.2776 0.4612,14.4545 0.3663,21.4963 -0.095,7.0412 -0.4194,13.9474 -1.0178,20.6662 -0.5982,6.718 -1.4703,13.2486 -2.6531,19.5312 -1.1827,6.2818 -2.6762,12.3157 -4.5171,18.0249 -1.8408,5.7085 -4.0291,11.0924 -6.5931,16.0644 -2.5634,4.9707 -5.5024,9.5297 -8.8302,13.5734 -2.4971,3.0344 -5.2132,5.7786 -8.1089,8.2476 -2.8952,2.4687 -5.9701,4.6622 -9.194,6.6101 -3.2235,1.9476 -6.596,3.6496 -10.2201,4.8427 -3.6242,1.1933 -7.4998,1.8777 -11.4877,2.2411 -3.9892,0.3635 -8.0907,0.4057 -12.2158,0.4243 -4.124,0.019 -8.2716,0.014 -12.6296,-0.8052 -2.2992,-0.432 -4.657,-1.0904 -7.0148,-1.7489"
         style="fill:none;stroke:#000000;stroke-width:30.23622085;stroke-linecap:round;stroke-miterlimit:4;stroke-dasharray:none;stroke-opacity:1"
         id="path4524" />
      <path
         d="m 3320.7314,-619.33486 c -0.3258,0.66898 -0.6516,1.33797 -1.1445,1.77631 -0.1494,0.13281 -0.314,0.24444 -0.4787,0.35608"
         style="fill:none;stroke:#000000;stroke-width:30.23622085;stroke-linecap:round;stroke-miterlimit:4;stroke-dasharray:none;stroke-opacity:1"
         id="path4526" />
      <path
         d="m 3346.007,-726.92624 c 0.09,-0.004 0.1804,-0.009 0.2677,-0.007 0.088,10e-4 0.1738,0.008 0.2571,0.0195 0.084,0.0112 0.1667,0.0266 0.2466,0.0463 0.081,0.02 0.1596,0.0444 0.236,0.073 0.077,0.029 0.1526,0.0624 0.2255,0.10003 0.1738,0.0897 0.3349,0.20348 0.4838,0.33981 0.1528,0.13979 0.2928,0.30328 0.4212,0.48931 0.1255,0.18168 0.2397,0.38485 0.3441,0.60815 0.1081,0.23156 0.2056,0.48476 0.2936,0.75643 0.1726,0.53276 0.3087,1.13657 0.4175,1.78584 0.2159,1.28775 0.3246,2.75435 0.359,4.29923 0.017,0.75275 0.016,1.52409 0,2.31139 -0.019,0.82695 -0.056,1.67151 -0.1095,2.53365 -0.052,0.84208 -0.1199,1.70093 -0.2005,2.57953 -0.081,0.8825 -0.1753,1.78494 -0.2805,2.70601 -0.2106,1.84318 -0.4654,3.76098 -0.7567,5.72056 -0.2802,1.88594 -0.5942,3.81057 -0.9398,5.76108 -0.3711,2.095 -0.7788,4.21985 -1.2197,6.36552 -0.8514,4.14391 -1.8266,8.36549 -2.9215,12.6236 -1.0957,4.26161 -2.3113,8.55981 -3.655,12.86533 -0.6706,2.14894 -1.3731,4.29971 -2.1093,6.44979 -0.7378,2.1549 -1.5095,4.3091 -2.3161,6.46048 -0.4038,1.07704 -0.8164,2.15336 -1.2359,3.23116 -0.4177,1.07327 -0.8422,2.148 -1.2692,3.22812 -0.4187,1.05922 -0.8398,2.12361 -1.2595,3.1983 -0.4384,1.12251 -0.8753,2.25626 -1.3122,3.39"
         style="fill:none;stroke:#000000;stroke-width:30.23622085;stroke-linecap:round;stroke-miterlimit:4;stroke-dasharray:none;stroke-opacity:1"
         id="path4528" />
      <path
         d="m -4833.5417,3152.9333 c -4.6095,-2.651 -9.2191,-5.302 -13.8284,-7.9885 -4.6095,-2.6865 -9.2188,-5.4086 -13.829,-7.9791 -4.6088,-2.5696 -9.2186,-4.9877 -13.7996,-7.0087 -4.5761,-2.0189 -9.1234,-3.6415 -13.5338,-4.6418 -2.2063,-0.5004 -4.3782,-0.845 -6.4617,-0.9102 -2.0822,-0.065 -4.0759,0.1487 -5.9272,0.6656 -1.8517,0.517 -3.5609,1.3371 -5.1123,2.4083 -1.5521,1.0717 -2.9462,2.3948 -4.2402,3.8497 -2.5889,2.9106 -4.777,6.3488 -6.8084,9.9573 -2.0323,3.6101 -3.9077,7.3907 -5.6419,11.3188 -3.4682,7.8561 -6.3715,16.3019 -9.0616,24.9364 -2.6904,8.6355 -5.1676,17.4598 -7.3499,26.5428 -2.182,9.0817 -4.0691,18.4222 -5.502,28.1151 -1.4327,9.6911 -2.4113,19.7346 -2.822,30.128 -0.2466,6.2396 -0.2886,12.6053 -0.3305,18.971"
         style="fill:none;stroke:#000000;stroke-width:30.23622085;stroke-linecap:round;stroke-miterlimit:4;stroke-dasharray:none;stroke-opacity:1"
         id="path4530" />
      <path
         d="m -4699.9155,3380.8576 c -2.544,-1.4897 -5.0715,-3.0125 -7.5813,-4.5704 -2.5097,-1.5579 -5.0017,-3.151 -7.4745,-4.7811 -2.0183,-1.3305 -4.0238,-2.6857 -6.0158,-4.0625 -0.4485,-0.31 -0.8963,-0.621 -1.3434,-0.9332 -2.433,-1.6984 -4.8456,-3.4282 -7.2365,-5.1837 -2.3909,-1.7555 -4.7602,-3.5366 -7.1073,-5.3309 -2.3471,-1.7944 -4.6721,-3.602 -6.9744,-5.4106 -2.3024,-1.8085 -4.5821,-3.6179 -6.8366,-5.4415 -2.2545,-1.8235 -4.4837,-3.661 -6.685,-5.5287 -2.2013,-1.8677 -4.3748,-3.7655 -6.5181,-5.6977 -2.1433,-1.9321 -4.2564,-3.8986 -6.337,-5.9004 -2.0806,-2.0019 -4.1286,-4.0392 -6.1436,-6.0949 -1.0075,-1.0279 -2.0068,-2.0603 -2.9974,-3.0983 -0.9906,-1.0381 -1.9726,-2.0817 -2.9455,-3.1319 -0.4865,-0.5251 -0.9707,-1.0519 -1.4526,-1.5805 -0.4819,-0.5286 -0.9615,-1.059 -1.4387,-1.5915 -0.9543,-1.065 -1.8992,-2.1382 -2.8342,-3.2211 -0.4675,-0.5415 -0.9325,-1.0854 -1.3949,-1.6319 -0.4624,-0.5465 -0.9223,-1.0956 -1.3796,-1.6475 -0.9146,-1.1038 -1.8187,-2.2188 -2.7118,-3.3463 -0.8932,-1.1274 -1.7754,-2.2675 -2.6462,-3.4203 -0.8708,-1.1529 -1.7301,-2.3187 -2.5775,-3.4976 -0.8475,-1.179 -1.683,-2.3711 -2.5067,-3.5738 -0.4118,-0.6013 -0.8207,-1.2052 -1.2266,-1.8114 -0.4059,-0.6062 -0.8089,-1.2146 -1.2089,-1.825 -0.2,-0.3052 -0.3993,-0.6109 -0.5978,-0.917 -0.1986,-0.3061 -0.3964,-0.6127 -0.5934,-0.9197 -0.2922,-0.4552 -0.5827,-0.9112 -0.8716,-1.3682 -0.1009,-0.1594 -0.2015,-0.319 -0.3019,-0.4787 -0.3882,-0.6171 -0.7735,-1.2357 -1.1557,-1.8556 -0.1911,-0.3099 -0.3815,-0.6202 -0.5711,-0.9307 -0.1897,-0.3105 -0.3785,-0.6214 -0.5667,-0.9324 -0.1881,-0.3111 -0.3755,-0.6224 -0.5621,-0.9339 -0.1866,-0.3116 -0.3725,-0.6234 -0.5576,-0.9354 -0.1851,-0.3121 -0.3695,-0.6243 -0.5531,-0.9368 -0.1835,-0.3125 -0.3664,-0.6253 -0.5484,-0.9382 -0.1821,-0.313 -0.3633,-0.6261 -0.5438,-0.9395 -0.1805,-0.3134 -0.3603,-0.6269 -0.5392,-0.9407 -0.3579,-0.6276 -0.7126,-1.2559 -1.0642,-1.885 -0.7032,-1.2582 -1.3936,-2.5193 -2.0708,-3.7849 -0.6771,-1.2656 -1.3409,-2.5357 -1.9908,-3.8119 -0.6499,-1.2763 -1.2858,-2.5586 -1.9074,-3.8476 -0.6215,-1.2891 -1.2287,-2.5848 -1.8209,-3.8879 -0.5923,-1.3031 -1.1697,-2.6134 -1.7317,-3.9315 -0.5621,-1.3181 -1.1089,-2.644 -1.64,-3.978 -1.0621,-2.6681 -2.0613,-5.3688 -2.9945,-8.1032 -0.9333,-2.7344 -1.8006,-5.5025 -2.5998,-8.3025 -0.7992,-2.7999 -1.5304,-5.6317 -2.1914,-8.4935 -0.661,-2.8618 -1.2518,-5.7537 -1.7714,-8.6719 -0.5196,-2.9183 -0.9679,-5.863 -1.3439,-8.8306 -0.376,-2.9676 -0.6796,-5.9581 -0.9106,-8.9675 -0.2311,-3.0094 -0.3896,-6.0378 -0.4752,-9.0812 -0.086,-3.0435 -0.099,-6.102 -0.039,-9.1718 0.059,-3.0699 0.1909,-6.151 0.3941,-9.2396 0.4064,-6.1773 1.0993,-12.3847 2.068,-18.5962"
         style="fill:none;stroke:#000000;stroke-width:30.23622085;stroke-linecap:round;stroke-miterlimit:4;stroke-dasharray:none;stroke-opacity:1"
         id="path4532" />
      <path
         d="m -4676.927,3394.1651 c -1.913,-1.1043 -3.826,-2.2065 -5.7395,-3.3092 -1.9135,-1.1027 -3.8275,-2.206 -5.7425,-3.3121 -1.915,-1.1061 -3.831,-2.215 -5.7486,-3.3288 -1.9176,-1.1138 -3.8368,-2.2324 -5.7579,-3.3574"
         style="fill:none;stroke:#000000;stroke-width:30.23622085;stroke-linecap:round;stroke-miterlimit:4;stroke-dasharray:none;stroke-opacity:1"
         id="path4534" />
      <path
         d="m 3313.9367,-1544.4113 c 11.8006,5.6637 23.6012,11.3275 35.0483,17.6199 11.4458,6.2916 22.5383,13.2117 33.3236,20.6302 10.7856,7.4186 21.264,15.3357 31.365,23.8282 10.1009,8.4924 19.8243,17.5604 29.1213,27.2275 9.2966,9.6667 18.1667,19.9326 26.543,30.8346 6.9804,9.0853 13.6179,18.6123 19.8688,28.6005 6.2508,9.9878 12.115,20.4368 17.5443,31.3628 5.4292,10.9256 10.4235,22.3282 14.9205,34.2229 3.3729,8.9216 6.4661,18.1201 9.2609,27.5923 2.7946,9.4718 5.291,19.2172 7.419,29.2703 2.1279,10.0522 3.8875,20.4121 5.1987,31.1012 1.3111,10.6884 2.1739,21.706 2.5565,33.0225 0.3826,11.3161 0.285,22.9311 -0.2819,34.7847 -0.567,11.8543 -1.6034,23.9474 -3.0551,36.209 -1.4518,12.2619 -3.3189,24.6923 -5.5702,37.2395 -2.2516,12.5482 -4.8874,25.2132 -7.8402,37.9511 -2.9526,12.7374 -6.2223,25.5477 -9.9065,38.4029 -3.3382,11.648 -7.0167,23.3328 -10.6953,35.01766"
         style="fill:none;stroke:#000000;stroke-width:30.23622085;stroke-linecap:round;stroke-miterlimit:4;stroke-dasharray:none;stroke-opacity:1"
         id="path4536" />
      <path
         d="m 3329.972,-638.99152 c -1.9121,5.40829 -3.8242,10.81657 -6.4892,15.38653 -0.8643,1.48216 -1.8079,2.87615 -2.7514,4.27013"
         style="fill:none;stroke:#000000;stroke-width:30.23622085;stroke-linecap:round;stroke-miterlimit:4;stroke-dasharray:none;stroke-opacity:1"
         id="path4538" />
      <path
         d="m 3346.007,-1313.6808 c 2.6231,13.623 5.2463,27.2459 7.7949,40.8467 2.5486,13.6008 5.0227,27.1795 7.4248,40.7362 2.4022,13.5565 4.7323,27.091 6.949,40.5861 2.2167,13.4948 4.32,26.9502 6.2788,40.3599 1.9585,13.408 3.7726,26.7705 5.0417,39.8943 1.2691,13.1225 1.9933,26.0064 2.4783,38.7563 0.4851,12.753 0.7309,25.3719 0.9139,37.9567 0.1831,12.585 0.3035,25.1359 0.3493,37.64423 0.1027,28.01836 -0.1688,55.82281 -0.5463,83.55726 -0.3776,27.73493 -0.8613,55.39986 -1.4097,83.04671 -0.1436,7.23944 -0.2916,14.47763 -0.9265,21.4027 -0.6341,6.91649 -1.7538,13.52063 -3.5194,19.52475 -1.7665,6.00719 -4.1795,11.41375 -6.8213,16.54745 -2.366,4.59781 -4.9155,8.97675 -7.465,13.35569"
         style="fill:none;stroke:#000000;stroke-width:30.23622085;stroke-linecap:round;stroke-miterlimit:4;stroke-dasharray:none;stroke-opacity:1"
         id="path4540" />
      <path
         d="m -4676.927,3394.1651 c -4.6313,6.5652 -9.2625,13.1304 -13.7765,19.8048 -4.5125,6.6723 -8.9078,13.4538 -13.1743,20.3279 -4.2669,6.8747 -8.405,13.842 -12.3441,20.9167 -3.9378,7.0725 -7.6769,14.2523 -11.13,21.5226 -3.4519,7.2678 -6.618,14.6258 -9.371,22.0154 -2.7516,7.386 -5.0904,14.8034 -6.8881,22.1204 -1.797,7.3148 -3.0532,14.5292 -3.7216,21.4817 -0.6684,6.9536 -0.7488,13.6451 -0.3137,19.9859 0.4353,6.3435 1.3865,12.3358 2.7179,17.9976 1.3319,5.6643 3.0444,10.9977 5.0699,16.0144 2.0257,5.017 4.3646,9.7171 7.0039,14.059 2.6395,4.3423 5.5794,8.3263 8.7393,12.0231 4.2125,4.9281 8.816,9.3456 13.9011,12.9759 3.3932,2.4224 7.0008,4.4942 10.6084,6.566"
         style="fill:none;stroke:#000000;stroke-width:30.23622085;stroke-linecap:round;stroke-miterlimit:4;stroke-dasharray:none;stroke-opacity:1"
         id="path4542" />
      <path
         d="m 3182.8373,-1584.4428 -22.1714,-3.6077"
         style="fill:none;stroke:#000000;stroke-width:30.23622085;stroke-linecap:round;stroke-miterlimit:4;stroke-dasharray:none;stroke-opacity:1"
         id="path4544" />
      <path
         d="m 3351.587,-739.10191 -5.58,12.17567"
         style="fill:none;stroke:#000000;stroke-width:30.23622085;stroke-linecap:round;stroke-miterlimit:4;stroke-dasharray:none;stroke-opacity:1"
         id="path4546" />
    </g>
  </g>
</svg>
