<?xml version="1.0" encoding="UTF-8" standalone="no"?>
<svg
   xmlns:dc="http://purl.org/dc/elements/1.1/"
   xmlns:cc="http://creativecommons.org/ns#"
   xmlns:rdf="http://www.w3.org/1999/02/22-rdf-syntax-ns#"
   xmlns:svg="http://www.w3.org/2000/svg"
   xmlns="http://www.w3.org/2000/svg"
   id="svg8"
   version="1.1"
   viewBox="0 0 3103.6941 618.59961"
   height="618.59961mm"
   width="3103.6941mm">
  <defs
     id="defs2">
    <marker
       id="DistanceX"
       orient="auto"
       refX="0"
       refY="0"
       style="overflow:visible">
      <path
         d="M 3,-3 -3,3 M 0,-5 V 5"
         style="stroke:#000000;stroke-width:0.5"
         id="path4487" />
    </marker>
    <pattern
       height="8"
       id="Hatch"
       patternUnits="userSpaceOnUse"
       width="8"
       x="0"
       y="0">
      <path
         d="M8 4 l-4,4"
         linecap="square"
         stroke="#000000"
         stroke-width="0.25"
         id="path4490" />
      <path
         d="M6 2 l-4,4"
         linecap="square"
         stroke="#000000"
         stroke-width="0.25"
         id="path4492" />
      <path
         d="M4 0 l-4,4"
         linecap="square"
         stroke="#000000"
         stroke-width="0.25"
         id="path4494" />
    </pattern>
    <symbol
       id="*Model_Space" />
    <symbol
       id="*Paper_Space" />
    <symbol
       id="*Paper_Space0" />
  </defs>
  <metadata
     id="metadata5">
    <rdf:RDF>
      <cc:Work
         rdf:about="">
        <dc:format>image/svg+xml</dc:format>
        <dc:type
           rdf:resource="http://purl.org/dc/dcmitype/StillImage" />
        <dc:title></dc:title>
      </cc:Work>
    </rdf:RDF>
  </metadata>
  <g
     transform="translate(1355.2994,35.734339)"
     id="layer1">
    <g
       style="stroke-width:15.11811043;stroke-miterlimit:4;stroke-dasharray:none;stroke:#000000;stroke-opacity:1"
       transform="matrix(0.26458333,0,0,0.26458333,421.3171,126.77947)"
       id="g4582">
      <path
         d="m 4155.8155,-125.14027 c -5.1275,-1.93005 -10.2551,-3.86009 -15.4905,-5.89606 -4.6389,-1.80399 -9.3623,-3.69113 -14.0552,-5.58685 -4.4081,-1.78072 -8.7891,-3.569 -13.1839,-5.33979 -4.1394,-1.66791 -8.2909,-3.3203 -12.4445,-4.96346 -3.8937,-1.54035 -7.7891,-3.07259 -11.6887,-4.59528 -3.8924,-1.51986 -7.7888,-3.03022 -11.6887,-4.53146 -10.0027,-3.85048 -20.0281,-7.64097 -30.0756,-11.37228 -11.2227,-4.16773 -22.473,-8.26161 -33.749,-12.28306 -11.313,-4.03463 -22.6519,-7.99635 -34.015,-11.88764 -12.3575,-4.23182 -24.7437,-8.38035 -37.1598,-12.43673 -13.0548,-4.26504 -26.1426,-8.42821 -39.2605,-12.49337 -13.7097,-4.24861 -27.4522,-8.39017 -41.2249,-12.42659 -14.3886,-4.21697 -28.8103,-8.31919 -43.2621,-12.30908 -9.3564,-2.58318 -18.7255,-5.11928 -28.1066,-7.60896 -9.6378,-2.55782 -19.2882,-5.06665 -28.9505,-7.52722 -9.9257,-2.52762 -19.8638,-5.00433 -29.8138,-7.43077 -10.2201,-2.49231 -20.4526,-4.93159 -30.6967,-7.31919 -10.5212,-2.45219 -21.0547,-4.84987 -31.5997,-7.19232 -10.8295,-2.40563 -21.6712,-4.75301 -32.5235,-7.05015 -10.5764,-2.23874 -21.1629,-4.42976 -31.7572,-6.58964 -9.5536,-1.9477 -19.1135,-3.87008 -28.6787,-5.77024 -8.4887,-1.6863 -16.9816,-3.35511 -25.4781,-5.01256 -7.3921,-1.44201 -14.7868,-2.87541 -22.1805,-4.30912 -6.2667,-1.21517 -12.5326,-2.43056 -18.8011,-3.65108 -5.1225,-0.99738 -10.2467,-1.99818 -15.3505,-3.02811 -3.9484,-0.79674 -7.8845,-1.61092 -11.8404,-2.42953 -2.796,-0.5786 -5.6019,-1.15941 -8.2909,-1.84688 -1.4428,-0.36885 -2.852,-0.7684 -4.2279,-1.17139 -1.9863,-0.58173 -3.9034,-1.17059 -5.8014,-1.74044 -2.4892,-0.74733 -4.9454,-1.46194 -7.3851,-2.07418 -3.011,-0.75559 -5.9967,-1.35526 -8.9823,-1.95493"
         style="fill:none;stroke:#000000;stroke-width:15.11811043;stroke-linecap:round;stroke-miterlimit:4;stroke-dasharray:none;stroke-opacity:1"
         id="path4502" />
      <path
         d="m 2053.3569,1539.0451 c 0.8104,0.1318 1.6208,0.2636 2.6272,0.3279 0.8418,0.054 1.8208,0.06 3.0069,0.063 0.9674,0 2.0725,9e-4 3.4446,0.03 0.8446,0.018 1.7905,0.048 2.8968,0.1116 0.9317,0.054 1.9772,0.1317 3.1803,0.2558 1.0412,0.1073 2.2006,0.2491 3.4727,0.446 1.1891,0.1841 2.4767,0.4162 3.7699,0.6678 3.3166,0.6454 6.6692,1.4186 10.0132,2.1617 4.3089,0.9576 8.6035,1.8653 12.9031,2.7817 4.054,0.8641 8.1124,1.7359 12.1707,2.6018 4.6494,0.9921 9.2987,1.9764 13.9488,2.9557 5.9958,1.2628 11.9929,2.5173 17.994,3.7715 6.3093,1.3186 12.623,2.6369 18.896,4.0026 5.7215,1.2456 11.409,2.5306 17.0013,3.8401 5.1153,1.1978 10.1509,2.4161 15.0243,3.6353 4.5262,1.1323 8.9123,2.2655 13.0464,3.3544 3.9383,1.0374 7.6478,2.0347 11.0647,2.9558 3.3709,0.9087 6.457,1.7433 9.0763,2.3997 2.6862,0.6732 4.8814,1.159 7.0766,1.6448"
         style="fill:none;stroke:#000000;stroke-width:15.11811043;stroke-linecap:round;stroke-miterlimit:4;stroke-dasharray:none;stroke-opacity:1"
         id="path4504" />
      <path
         d="m -2428.0801,-411.66576 c -11.304,1.64399 -22.6081,3.28798 -33.9684,4.95896 -11.282,1.65948 -22.6195,3.34559 -33.9816,5.03541 -11.3096,1.68202 -22.6435,3.36773 -33.9927,5.05362 -11.3236,1.68208 -22.6623,3.36433 -34.0011,5.04334 -11.3404,1.67924 -22.6809,3.35523 -34.0061,5.02919 -11.3547,1.6783 -22.694,3.35456 -34.0089,5.0307 -11.3721,1.68461 -22.7195,3.36912 -34.0108,5.06274 -11.3751,1.70619 -22.6932,3.42164 -34.0114,5.13708"
         style="fill:none;stroke:#000000;stroke-width:15.11811043;stroke-linecap:round;stroke-miterlimit:4;stroke-dasharray:none;stroke-opacity:1"
         id="path4506" />
      <path
         d="m -939.61623,-126.27388 c 0.0484,-0.0187 0.0967,-0.0373 0.10692,-0.0575 0.0385,-0.076 -0.46496,-0.17316 -1.20688,-0.28211 -0.71384,-0.10482 -1.64842,-0.22056 -2.85797,-0.35036 -1.25049,-0.13419 -2.79487,-0.2834 -4.50942,-0.44254 -1.88136,-0.17462 -3.9676,-0.36117 -6.1611,-0.55508 -2.40065,-0.21222 -4.92977,-0.43324 -7.45778,-0.65578 -3.89412,-0.34279 -7.78559,-0.68918 -11.72818,-1.04177 -3.15364,-0.28203 -6.33998,-0.56804 -9.59041,-0.86137 -2.48215,-0.224 -5.00167,-0.45228 -7.54311,-0.68386 -2.71598,-0.24749 -5.45699,-0.49875 -8.20175,-0.75196 -3.36629,-0.31054 -6.73809,-0.624 -10.11569,-0.94022 -4.0036,-0.37485 -8.0151,-0.75357 -12.0298,-1.13558 -4.6441,-0.4419 -9.2926,-0.88819 -13.9441,-1.33845 -7.4144,-0.71772 -14.8366,-1.44555 -22.2602,-2.18214 -7.9026,-0.78413 -15.8069,-1.57819 -23.7123,-2.38128 -7.9782,-0.81049 -15.9576,-1.63017 -23.9382,-2.45819 -8.0526,-0.8355 -16.1064,-1.6795 -24.1614,-2.53108 -29.3402,-3.10192 -58.6951,-6.30452 -88.0645,-9.57697 -30.2679,-3.37255 -60.5511,-6.81928 -90.8324,-10.32492 -20.9508,-2.42545 -41.9007,-4.8791 -62.8498,-7.35582 -21.6612,-2.56092 -43.3216,-5.14649 -64.9807,-7.75615 -22.4114,-2.70031 -44.8216,-5.4264 -67.2304,-8.17592 -9.0182,-1.10652 -18.0363,-2.21684 -27.0541,-3.33029 -9.1414,-1.12871 -18.2827,-2.26065 -27.4239,-3.39516 -9.2662,-1.15001 -18.5323,-2.30268 -27.7985,-3.45724 -9.2266,-1.14964 -18.4532,-2.30116 -27.6796,-3.45384 -8.2142,-1.02623 -16.4282,-2.05337 -24.6421,-3.08096 -7.04,-0.88073 -14.08,-1.76178 -21.1201,-2.64288 -5.0873,-0.63672 -10.1748,-1.27346 -15.2624,-1.91012 -4.2247,-0.52869 -8.4496,-1.05733 -12.6746,-1.58587 -3.3607,-0.42042 -6.7216,-0.84077 -10.0826,-1.26105 -2.4955,-0.31203 -4.991,-0.62403 -7.487,-0.93601 -1.6572,-0.20714 -3.3147,-0.41427 -4.9723,-0.6214 -2.1198,-0.26489 -4.24,-0.52977 -6.3602,-0.79458 -3.3354,-0.41659 -6.6707,-0.83302 -10.006,-1.24928 -4.3887,-0.54772 -8.7776,-1.09515 -13.1662,-1.64217 -4.6303,-0.57715 -9.2604,-1.15385 -13.8903,-1.73005 -11.5523,-1.43767 -23.1039,-2.87219 -34.655,-4.30245 -12.2994,-1.5229 -24.5983,-3.04097 -36.8972,-4.55294 -13.0504,-1.60438 -26.1008,-3.20189 -39.1513,-4.79086 -24.6887,-3.00599 -49.3779,-5.98141 -74.0695,-8.91572 -26.196,-3.1131 -52.3947,-6.17993 -78.5984,-9.18909 -27.6925,-3.18013 -55.3906,-6.29585 -83.0964,-9.33517 -23.3025,-2.55627 -46.6105,-5.05849 -69.9248,-7.50166 -24.2566,-2.54191 -48.5201,-5.0199 -72.7916,-7.42948 -24.2801,-2.41043 -48.5683,-4.75241 -72.8651,-7.02049 -23.7201,-2.21426 -47.4484,-4.35809 -71.1849,-6.42668 -23.1383,-2.01645 -46.2844,-3.9614 -69.4382,-5.8315 -22.5349,-1.82012 -45.0771,-3.56933 -67.6264,-5.24433 -21.9298,-1.62898 -43.8663,-3.18778 -65.8095,-4.67492 -23.4602,-1.58995 -46.9282,-3.09799 -70.4029,-4.51527 -22.8068,-1.37693 -45.6201,-2.66819 -68.4421,-3.86241 -23.2386,-1.21601 -46.4864,-2.3314 -69.7432,-3.33246 -24.2353,-1.04318 -48.4805,-1.96221 -72.7339,-2.73949 -25.157,-0.80623 -50.3228,-1.45994 -75.4952,-1.93963 -10.3112,-0.19649 -20.6235,-0.36379 -30.9368,-0.50083 -10.4605,-0.139 -20.922,-0.24689 -31.3843,-0.3226 -10.6157,-0.0768 -21.2323,-0.12055 -31.8494,-0.12995 -10.7761,-0.01 -21.5528,0.0163 -32.3298,0.0775 -10.9491,0.0622 -21.8985,0.16097 -32.848,0.29548 -11.1226,0.13663 -22.2451,0.31014 -33.3673,0.51988 -10.415,0.19641 -20.8296,0.42459 -31.2437,0.68397 -8.2756,0.20611 -16.5508,0.43193 -24.8256,0.6772 -7.0544,0.20911 -14.1085,0.43236 -21.1621,0.66962 -5.8312,0.19613 -11.6621,0.40185 -17.4927,0.61707 -4.6076,0.17007 -9.215,0.34609 -13.8222,0.528 -3.3847,0.13365 -6.7693,0.27049 -10.1537,0.4105 -2.1628,0.0895 -4.3255,0.18024 -6.4882,0.2723 -2.4584,0.10466 -4.9169,0.21099 -7.3752,0.31898 -4.1299,0.18143 -8.2596,0.36758 -12.3891,0.55843 -5.5497,0.2565 -11.0991,0.52151 -16.648,0.79505 -6.3648,0.31375 -12.729,0.63872 -19.0926,0.97496 -7.1468,0.37763 -14.2927,0.76947 -21.4377,1.17557 -10.522,0.59803 -21.0421,1.22695 -31.56,1.88629 -11.8092,0.74028 -23.6158,1.51889 -35.4195,2.33534 -13.0502,0.90266 -26.0969,1.85156 -39.1397,2.84667 -13.815,1.054 -27.6257,2.15984 -41.4318,3.31609 -14.909,1.2486 -29.8126,2.55599 -44.711,3.91689 -16.0582,1.46684 -32.1103,2.99586 -48.1564,4.58076 -17.2828,1.70705 -34.5585,3.47893 -51.8273,5.31247 -17.4724,1.85515 -34.9376,3.77342 -52.3952,5.75575 -22.2495,2.52645 -44.4866,5.15694 -66.7103,7.89128 -21.4952,2.64471 -42.9779,5.38656 -64.4473,8.22367 -20.7236,2.73856 -41.4349,5.56587 -62.1332,8.48034 -26.5265,3.7351 -53.0318,7.61335 -79.5148,11.63056 -25.0834,3.8049 -50.1467,7.73447 -75.1894,11.78496 -23.6168,3.81985 -47.2152,7.74724 -70.7943,11.78102 -22.1361,3.78692 -44.2552,7.6676 -66.3587,11.63231 -21.0535,3.77639 -42.0928,7.62902 -63.1222,11.55663 -21.5942,4.03309 -43.1779,8.14524 -64.7484,12.33585 -22.2795,4.32837 -44.5449,8.74044 -66.7958,13.23186 -22.9251,4.62749 -45.8349,9.33921 -68.7292,14.12966 -12.249,2.56301 -24.4936,5.14856 -36.7338,7.75558 -12.4098,2.64311 -24.815,5.30829 -37.2159,7.99435 -12.5196,2.71177 -25.0348,5.44482 -37.5457,8.19795 -11.4352,2.51641 -22.8667,5.04959 -34.2948,7.59874 -9.8336,2.19346 -19.6645,4.39874 -29.4932,6.61537 -8.2534,1.86136 -16.5051,3.73072 -24.7553,5.60781 -5.3111,1.20836 -10.6215,2.41992 -15.9312,3.63458 -4.3888,1.00396 -8.7771,2.01004 -13.1647,3.01814 -3.8451,0.88341 -7.6896,1.76837 -11.534,2.65489 -4.648,1.07185 -9.2957,2.14598 -13.9426,3.22227 -5.5652,1.289 -11.1292,2.58109 -16.692,3.87628 -6.4704,1.50651 -12.9393,3.017205 -19.4065,4.532059 -7.3617,1.724393 -14.7214,3.454174 -22.079,5.189325 -8.2366,1.942459 -16.4706,3.891648 -24.7024,5.847479 -18.6758,4.437287 -37.3403,8.908764 -55.9979,13.411648 -18.3913,4.43863 -36.776,8.907778 -55.1537,13.404229 -18.0763,4.422708 -36.1457,8.871832 -54.2084,13.346399 -19.1299,4.738945 -38.2522,9.506429 -57.3649,14.305882 -18.9694,4.763488 -37.9294,9.558468 -56.8794,14.391003 -18.7765,4.788304 -37.5431,9.613479 -56.2931,14.484147 -19.018,4.940292 -38.0189,9.927386 -56.9816,14.965563 -20.0121,5.317018 -39.9818,10.690929 -59.9067,16.122926 -20.9429,5.709552 -41.8364,11.483278 -62.6735,17.324735 -21.7993,6.111229 -43.5368,12.296589 -65.2072,18.558535 -22.5686,6.521477 -45.0645,13.126019 -67.4823,19.815125 -23.2445,6.935773 -46.405,13.962462 -69.4756,21.081885 -23.8146,7.34896 -47.5334,14.79673 -71.1497,22.34453 -19.0215,6.07929 -37.9764,12.22346 -56.8616,18.43271 -19.2516,6.32967 -38.4306,12.72697 -57.5335,19.19195 -19.4263,6.57444 -38.7737,13.21889 -58.0376,19.93327 -19.5466,6.81295 -39.0072,13.69789 -58.3776,20.65568 -19.1997,6.89644 -38.3108,13.86444 -57.3284,20.9041 -21.7958,8.06801 -43.4688,16.23015 -65.004,24.48422 -20.3387,7.7955 -40.5545,15.67301 -60.6333,23.63072 -18.9141,7.49608 -37.7067,15.06333 -56.3661,22.69868 -17.391,7.11638 -34.6664,14.29193 -51.8104,21.52572 -15.8517,6.68851 -31.5912,13.42683 -47.2085,20.21026 -14.5011,6.29863 -28.8967,12.63615 -43.1782,19.01146 -12.5789,5.61531 -25.0692,11.25993 -37.4538,16.92914 -11.6268,5.32228 -23.1604,10.66625 -34.6205,16.04062 -10.7864,5.05841 -21.5076,10.14375 -32.0675,15.21621 -10.2937,4.94461 -20.434,9.87698 -30.2425,14.72387 -10.0835,4.98278 -19.8162,9.87524 -29.2868,14.71817 -9.2244,4.71704 -18.2002,9.3871 -26.9277,14.00334 -8.962,4.74024 -17.6623,9.42373 -26.2232,14.06995 -8.7659,4.75746 -17.3857,9.47586 -25.5761,13.9645 -6.3605,3.48581 -12.462,6.83305 -18.2336,9.9047 -6.0111,3.19905 -11.6645,6.09916 -17.0535,8.71072 -5.5973,2.71248 -10.9094,5.11369 -15.9567,7.40194 -5.2626,2.38588 -10.2372,4.64897 -14.9315,7.37381 -3.905,2.26678 -7.616,4.85312 -11.2417,7.21085 -3.6593,2.37966 -7.2318,4.52644 -11.3938,6.86213 -4.0314,2.2624 -8.616,4.70204 -13.5826,7.47702 -4.8547,2.71242 -10.0745,5.74524 -15.6375,9.04172 -5.4917,3.25425 -11.3178,6.76545 -17.391,10.48263 -2.5196,1.54213 -5.0817,3.11971 -7.6842,4.73781 -2.6013,1.61735 -5.2429,3.27518 -7.9022,4.96115 -2.6618,1.68753 -5.3413,3.40325 -8.0916,5.18827 -2.7596,1.79113 -5.5905,3.65203 -8.244,5.41265 -2.8851,1.91436 -5.5604,3.71017 -7.9826,5.34814 -2.772,1.87454 -5.2124,3.54236 -7.4767,5.10625 -2.5611,1.76894 -4.8969,3.4049 -6.9492,4.93075 -1.4686,1.09185 -2.7922,2.12732 -4.1157,3.16278"
         style="fill:none;stroke:#000000;stroke-width:15.11811043;stroke-linecap:round;stroke-miterlimit:4;stroke-dasharray:none;stroke-opacity:1"
         id="path4508" />
      <path
         d="m -6578.9469,933.32468 c 1.0378,0.74488 2.0756,1.48977 3.1301,2.23686 2.0123,1.42561 4.0854,2.85925 6.195,4.29673 6.8578,4.67286 14.1011,9.38616 21.7102,14.14244 8.1129,5.07126 16.6417,10.19139 25.6073,15.36305 9.4858,5.47173 19.4606,11.00116 29.5916,16.38902 10.9115,5.80291 22.0043,11.4416 33.2659,16.95942 12.1342,5.9452 24.4645,11.7502 36.9571,17.4146 13.4084,6.0797 27.0038,11.9975 40.7582,17.7686 14.7525,6.1898 29.6878,12.2107 44.772,18.0748 13.548,5.2669 27.2161,10.4073 40.9865,15.4325 14.6586,5.3493 29.4332,10.568 44.3068,15.6666 15.8729,5.4412 31.8586,10.7457 47.9397,15.9261 17.2243,5.5486 34.558,10.9549 51.9819,16.2355 14.2278,4.3119 28.5157,8.5401 42.8552,12.6907 13.515,3.9121 27.0759,7.7553 40.6775,11.5356 12.5543,3.4892 25.1432,6.9249 37.7635,10.3149 11.3672,3.0534 22.7597,6.0698 34.1767,9.0531 8.5837,2.243 17.1812,4.4674 25.7919,6.6742 7.5445,1.9335 15.0992,3.8537 22.6638,5.761 6.4697,1.6313 12.9466,3.2533 19.4307,4.8664 5.3642,1.3346 10.7334,2.663 16.1074,3.9857 4.2327,1.0418 8.4685,2.08 12.7084,3.115 3.0861,0.7533 6.1745,1.5049 9.2642,2.2547 4.481,1.0875 8.965,2.1711 13.4507,3.2507 5.3212,1.2806 10.6448,2.5556 15.9722,3.8256 6.5435,1.5598 13.0928,3.112 19.6473,4.6568 6.6741,1.573 13.3536,3.1384 20.0383,4.6965 7.6555,1.7844 15.3179,3.5594 22.9869,5.3254 8.6647,1.9953 17.3378,3.9792 26.0188,5.9525 9.7047,2.2059 19.4192,4.3986 29.143,6.579 10.7782,2.4169 21.5678,4.8187 32.3681,7.2067 11.7344,2.5945 23.4814,5.1728 35.2384,7.7357 11.8046,2.5732 23.6193,5.131 35.4434,7.6746 31.9392,6.8709 63.947,13.6386 96.0081,20.3256 31.0717,6.4807 62.1934,12.8855 93.3531,19.2319 21.5441,4.388 43.1063,8.748 64.683,13.0851 20.9061,4.2023 41.8258,8.383 62.7557,12.5461 20.198,4.0174 40.4054,8.0184 60.6198,12.006 19.4241,3.8317 38.8547,7.6511 58.287,11.46 18.7037,3.666 37.409,7.3222 56.1216,10.9725 16.3742,3.1942 32.754,6.3838 49.1397,9.5707 17.588,3.4207 35.1829,6.8381 52.7833,10.2552 18.7895,3.6479 37.5852,7.2954 56.3862,10.9457 19.9815,3.8794 39.9688,7.7621 59.9601,11.6533 21.2706,4.1403 42.5457,8.2903 63.8247,12.4506 22.6883,4.4359 45.381,8.8836 68.0777,13.3434 16.1095,3.1655 32.2209,6.3372 48.3343,9.5151 16.7942,3.3122 33.5906,6.6313 50.3893,9.9566 17.5009,3.4643 35.0043,6.9353 52.5106,10.4125 18.2293,3.6209 36.4617,7.2484 54.697,10.8817 18.9686,3.7795 37.9405,7.5654 56.9156,11.3568 19.7134,3.939 39.4302,7.884 59.1509,11.8322 20.1217,4.0285 40.2473,8.0604 60.38,12.092 15.6058,3.1251 31.2159,6.2501 46.8305,9.3731 14.328,2.8657 28.6599,5.7298 42.9961,8.5911 13.0146,2.5975 26.0328,5.1927 39.055,7.7846 11.6723,2.3232 23.3479,4.6437 35.0272,6.9609 10.3077,2.0451 20.6182,4.0876 30.9321,6.1272 8.9257,1.7652 17.854,3.5282 26.7853,5.289 7.1376,1.4071 14.2773,2.8128 21.4199,4.2168 5.8877,1.1573 11.7776,2.3135 17.6703,3.4684 4.631,0.9076 9.2638,1.8144 13.9008,2.7207 4.0146,0.7848 8.0324,1.5691 12.0526,2.353 4.7362,0.9234 9.4758,1.846 14.2171,2.7674 5.5031,1.0695 11.0085,2.1373 16.5176,3.2035 6.6265,1.2826 13.2583,2.5629 19.8939,3.8405 8.0162,1.5434 16.0381,3.0827 24.0636,4.6171 9.4111,1.7994 18.8273,3.5922 28.2476,5.3774 10.8099,2.0486 21.6251,4.0874 32.4451,6.1154 9.4778,1.7764 18.9593,3.5444 28.4441,5.3035 10.3444,1.9185 20.6929,3.8264 31.0452,5.7229 11.2112,2.0538 22.427,4.0942 33.6471,6.1202 12.0773,2.1808 24.1596,4.345 36.247,6.4913 12.5525,2.229 25.1104,4.4386 37.6739,6.6275 14.7139,2.5635 29.4355,5.0984 44.1652,7.6021 13.1394,2.2333 26.2852,4.4419 39.4379,6.6238 11.5619,1.918 23.129,3.8154 34.7019,5.691 9.9827,1.618 19.9697,3.2197 29.9612,4.8045 8.404,1.333 16.8112,2.6541 25.2219,3.9628 5.4974,0.8554 10.9963,1.7055 16.4969,2.5503 4.5256,0.6951 9.0523,1.3865 13.5801,2.0742 3.8901,0.5909 7.7809,1.179 11.6721,1.7643 3.8906,0.5853 7.7817,1.1677 11.6732,1.7473 3.9065,0.5818 7.8134,1.1607 11.7206,1.7367 6.0324,0.8893 12.0657,1.7715 18.1001,2.6465 7.0941,1.0287 14.1898,2.0475 21.287,3.0559 8.2643,1.1744 16.5306,2.3348 24.799,3.4805 9.4522,1.3097 18.9071,2.6001 28.3649,3.8689 10.6689,1.4314 21.3415,2.8354 32.0181,4.209 11.9198,1.5337 23.8445,3.0295 35.7744,4.4819 11.5358,1.4045 23.0766,2.7683 34.6225,4.0866 12.5305,1.4307 25.0672,2.8078 37.6101,4.1246 13.4731,1.4144 26.9534,2.7592 40.441,4.0272 13.7201,1.2899 27.4476,2.5004 41.1822,3.6244 13.7427,1.1247 27.4924,2.1628 41.2487,3.1068 13.7476,0.9434 27.5016,1.7927 41.2612,2.5401 13.7432,0.7466 27.492,1.3914 41.2454,1.9271 25.1554,0.98 50.3264,1.595 75.501,1.7878 25.1274,0.1924 50.2583,-0.036 75.3794,-0.6476 25.1418,-0.6122 50.2739,-1.6085 75.3881,-2.9272 19.2867,-1.0127 38.5629,-2.2156 57.8274,-3.5798 19.2971,-1.3665 38.5824,-2.8949 57.8552,-4.5585 19.2567,-1.6622 38.5009,-3.4596 57.7349,-5.3606 18.3456,-1.8132 36.6819,-3.7207 55.0124,-5.6901 16.6254,-1.7862 33.2459,-3.6232 49.8635,-5.4865 14.92,-1.6729 29.8376,-3.3668 44.7541,-5.0586 13.2427,-1.5019 26.4844,-3.002 39.7245,-4.4936 11.5881,-1.3056 23.1749,-2.6046 34.7529,-3.8939 9.9435,-1.1073 19.8804,-2.2073 29.8107,-3.2975 8.3099,-0.9122 16.6151,-1.8176 24.8723,-2.7061 6.6817,-0.7189 13.3319,-1.4269 19.9828,-2.1302 6.9256,-0.7324 13.8518,-1.4598 20.8001,-2.1859 8.4514,-0.8832 16.9353,-1.7646 25.4272,-2.6394 10.0078,-1.0311 20.0268,-2.0531 30.0555,-3.0658 10.5297,-1.0634 21.0701,-2.1165 31.6164,-3.1584 11.8279,-1.1685 23.6634,-2.323 35.5043,-3.4633 13.124,-1.2637 26.2547,-2.51 39.3903,-3.7386 14.4187,-1.3486 28.8432,-2.676 43.2721,-3.9825 15.7103,-1.4225 31.4258,-2.8203 47.1453,-4.1946 16.9956,-1.4858 33.9958,-2.9441 50.9997,-4.3764 15.5493,-1.3098 31.1016,-2.5977 46.6564,-3.8659 16.4774,-1.3433 32.9575,-2.6644 49.4396,-3.9667 16.4363,-1.2988 32.8747,-2.5788 49.3146,-3.8433 15.512,-1.1931 31.0254,-2.3724 46.54,-3.5418 14.5913,-1.0999 29.1836,-2.191 43.7767,-3.277 17.7211,-1.3189 35.4433,-2.6303 53.1665,-3.9398 16.1545,-1.1936 32.3098,-2.3856 48.4656,-3.5812 14.5889,-1.0796 29.1783,-2.1621 43.768,-3.2511 13.024,-0.9721 26.0482,-1.9494 39.0725,-2.934 11.4614,-0.8664 22.9228,-1.7385 34.3837,-2.6178 9.9027,-0.7597 19.805,-1.5249 29.7059,-2.2966 4.8016,-0.3743 9.603,-0.7501 14.4043,-1.1277 3.6564,-0.2875 7.3129,-0.576 10.9692,-0.8657 2.5129,-0.199 5.0258,-0.3985 7.5385,-0.5986 1.6343,-0.1302 3.2686,-0.2605 4.9028,-0.3911 3.4205,-0.2733 6.841,-0.5477 10.2615,-0.8231 4.896,-0.3942 9.7919,-0.7906 14.6877,-1.1895 6.3688,-0.5188 12.7373,-1.0417 19.1055,-1.5689 7.8382,-0.649 15.676,-1.3047 23.5131,-1.968 9.3059,-0.7876 18.611,-1.586 27.915,-2.3964 10.7747,-0.9385 21.5481,-1.8932 32.3198,-2.8636 9.4989,-0.8557 18.9967,-1.7236 28.4931,-2.6032 10.4114,-0.9644 20.8213,-1.943 31.2296,-2.9352 11.3251,-1.0795 22.6484,-2.1751 33.9697,-3.286 12.2381,-1.2009 24.4738,-2.4196 36.7071,-3.6552 13.1439,-1.3274 26.285,-2.6743 39.4233,-4.0394 13.8498,-1.439 27.6965,-2.8981 41.5399,-4.3761 38.3755,-4.0972 76.7254,-8.3389 115.0473,-12.6945 37.0878,-4.2154 74.1493,-8.5374 111.1847,-12.9352 35.8405,-4.2558 71.65643,-8.5825 107.44606,-12.9675 34.53234,-4.231 69.04016,-8.5164 103.52306,-12.8393 33.21897,-4.1644 66.41481,-8.3636 99.588,-12.5786 31.93464,-4.0577 63.84829,-8.13 95.74085,-12.2078 30.62921,-3.9162 61.23896,-7.8373 91.82703,-11.7496 26.93943,-3.4456 53.86204,-6.8843 80.77557,-10.3073 25.87766,-3.2912 51.74693,-6.5678 77.57992,-9.8221 25.8972,-3.2624 51.75794,-6.5024 77.56256,-9.7069 26.71437,-3.3174 53.36858,-6.5968 79.96932,-9.8219 27.5211,-3.3366 54.98495,-6.6151 82.39303,-9.8196 28.34914,-3.3144 56.638609,-6.5497 84.872528,-9.6893 9.186595,-1.0215 18.36731,-2.0329 27.542441,-3.036 9.275609,-1.0141 18.545513,-2.0197 27.811278,-3.0253 9.366425,-1.0165 18.728622,-2.033 28.087002,-3.0455 9.461094,-1.0237 18.918286,-2.0433 28.371393,-3.0549 9.5603,-1.023 19.116422,-2.0379 28.668307,-3.0415 9.220896,-0.9689 18.437841,-1.9274 27.647931,-2.8746 6.16189,-0.6337 12.3207,-1.2623 18.47557,-1.8857 5.16046,-0.5227 10.31814,-1.0417 15.46592,-1.5562 4.15337,-0.4151 8.30029,-0.8274 12.44688,-1.2373 3.20057,-0.3164 6.40095,-0.6314 9.55924,-0.941 3.51697,-0.3447 6.98177,-0.6827 10.41472,-1.0165 4.36054,-0.4238 8.6697,-0.8408 12.95153,-1.2537 5.05822,-0.4879 10.07829,-0.9701 15.07425,-1.4482 5.87049,-0.5617 11.70769,-1.1177 17.52862,-1.6687 6.52732,-0.6178 13.03417,-1.2293 19.48304,-1.8307 6.31504,-0.5888 12.57449,-1.1679 18.77119,-1.7343 5.95929,-0.5447 11.86056,-1.0777 17.69099,-1.5951 5.60673,-0.4976 11.14795,-0.9808 16.61062,-1.4473 5.25424,-0.4487 10.4358,-0.8818 15.53024,-1.2979 8.45713,-0.6909 16.67414,-1.3351 24.57121,-1.9276 7.407,-0.5556 14.53254,-1.0658 21.2251,-1.5219 6.32031,-0.4308 12.25446,-0.8134 17.82615,-1.1473 5.33715,-0.3199 10.34171,-0.5952 15.07371,-0.8302 4.09788,-0.2035 7.99135,-0.3767 11.63976,-0.5197 3.53957,-0.1386 6.84848,-0.2487 9.83047,-0.3328 2.90391,-0.082 5.49781,-0.1388 7.96174,-0.1805 2.59722,-0.044 5.05003,-0.071 7.60335,-0.085 2.88955,-0.016 5.90782,-0.015 8.98845,0 2.61434,0.012 5.27358,0.033 8.27422,0.065 3.01388,0.033 6.37217,0.076 10.01181,0.1341 3.66662,0.058 7.61877,0.1299 11.80636,0.2165 4.39476,0.091 9.04882,0.1976 13.56497,0.3103 5.18897,0.1295 10.19588,0.2666 15.20478,0.4131 4.96034,0.145 9.92264,0.2993 15.14533,0.4718 4.45402,0.1472 9.09743,0.3076 14.01776,0.4864 4.05224,0.1471 8.29232,0.3067 12.76992,0.4816 3.84445,0.1502 7.86401,0.3117 11.8066,0.4742 3.83571,0.1581 7.59857,0.3171 11.40993,0.4818 3.76962,0.1629 7.58669,0.3315 11.11464,0.4898 3.46753,0.1557 6.65577,0.3014 9.72129,0.4424 4.06605,0.187 7.91622,0.3656 11.65983,0.5387 4.67633,0.2162 9.18639,0.4237 13.60272,0.6239 5.29443,0.2401 10.45415,0.4697 15.53287,0.703 5.90907,0.2715 11.70848,0.548 17.42147,0.8295 6.51142,0.3208 12.91057,0.648 19.22418,0.9612 7.07738,0.351 14.04728,0.6843 20.87661,1.0429 7.54393,0.3962 14.91634,0.8232 22.28876,1.2502"
         style="fill:none;stroke:#000000;stroke-width:15.11811043;stroke-linecap:round;stroke-miterlimit:4;stroke-dasharray:none;stroke-opacity:1"
         id="path4510" />
      <path
         d="m 3308.2155,-347.29739 c -16.8516,-2.49137 -33.7031,-4.98274 -50.6152,-7.38978 -17.4624,-2.48533 -34.9893,-4.88075 -52.5277,-7.31826 -18.0983,-2.51536 -36.2087,-5.07554 -54.3189,-7.69761 -18.6685,-2.70288 -37.3367,-5.47152 -56.011,-8.17765 -19.2749,-2.79315 -38.5561,-5.51971 -57.8405,-8.17659 -19.8843,-2.73952 -39.7719,-5.40496 -59.6593,-7.99099 -15.2986,-1.98933 -30.5971,-3.93168 -45.8938,-5.81732 -15.6162,-1.92504 -31.2304,-3.79099 -46.845,-5.61174 -15.9262,-1.85709 -31.8528,-3.66716 -47.7659,-5.34761 -16.1112,-1.70136 -32.2084,-3.26987 -48.3522,-5.05424 -9.7578,-1.07854 -19.5326,-2.23594 -29.291,-3.55942 -8.5213,-1.1557 -17.03,-2.43804 -25.4573,-3.88075 -7.2711,-1.2448 -14.4816,-2.60899 -21.4924,-4.10074 -4.6064,-0.98013 -9.1265,-2.01532 -13.4515,-3.07047 -3.8933,-0.94984 -7.6285,-1.91585 -11.1223,-2.86298 -3.2217,-0.87337 -6.2382,-1.73068 -8.7623,-2.35425 -2.4304,-0.60044 -4.4043,-0.98417 -6.3782,-1.36789"
         style="fill:none;stroke:#000000;stroke-width:15.11811043;stroke-linecap:round;stroke-miterlimit:4;stroke-dasharray:none;stroke-opacity:1"
         id="path4512" />
      <path
         d="m -6714.2881,752.52017 c 0.8538,7.13028 1.7076,14.26056 3.2741,21.35835 1.4791,6.70148 3.5936,13.37399 6.0209,19.99489 2.256,6.1537 4.7823,12.26282 7.6127,18.30946 2.6009,5.55616 5.4587,11.05957 8.5365,16.4948 2.8033,4.95047 5.7891,9.84437 8.9422,14.66431 2.8597,4.37138 5.857,8.68194 8.9717,12.90683 2.1473,2.91278 4.3504,5.78485 6.5978,8.60788 2.1302,2.67596 4.3003,5.30786 6.4852,7.86651 2.1403,2.50642 4.295,4.94256 6.4474,7.29375 2.147,2.34522 4.2917,4.60593 6.4242,6.7891 4.3609,4.46461 8.6705,8.60493 12.8977,12.41279 4.4473,4.00624 8.8034,7.64447 13.1596,11.2827"
         style="fill:none;stroke:#000000;stroke-width:15.11811043;stroke-linecap:round;stroke-miterlimit:4;stroke-dasharray:none;stroke-opacity:1"
         id="path4514" />
      <path
         d="m -6608.8621,592.75659 c -1.0565,0.79406 -2.1131,1.58811 -3.2214,2.3267 -0.883,0.58847 -1.7989,1.14173 -2.8161,1.74056 -0.7463,0.43932 -1.5471,0.90316 -2.5467,1.49805 -0.3645,0.21691 -0.7554,0.45124 -1.2049,0.72624 -0.3462,0.21181 -0.7271,0.44774 -1.1721,0.72995 -0.1807,0.11459 -0.3719,0.2368 -0.5759,0.36853 -0.1808,0.1168 -0.3717,0.24108 -0.5698,0.37142 -0.1842,0.12116 -0.3747,0.24757 -0.564,0.37436 -0.1897,0.12701 -0.3782,0.2544 -0.5584,0.37718 -0.1946,0.13253 -0.3795,0.25968 -0.5527,0.37969 -0.1962,0.13588 -0.3776,0.26261 -0.5469,0.38165 -0.4195,0.295 -0.7649,0.54275 -1.0741,0.76588 -0.9208,0.66459 -1.5194,1.1107 -2.1497,1.57976 -0.671,0.49939 -1.3779,1.0248 -2.0713,1.54382 -0.679,0.50834 -1.345,1.01055 -2.0138,1.51704 -1.5201,1.15113 -3.0548,2.32438 -4.5524,3.5391 -2.4733,2.0061 -4.8453,4.12531 -7.4123,6.58575 -1.5628,1.49786 -3.1978,3.1222 -4.9657,4.91997 -2.0301,2.06455 -4.2354,4.35785 -6.5059,6.74631 -2.651,2.78878 -5.3909,5.70729 -8.1881,8.6861 -3.1566,3.36165 -6.3862,6.80009 -9.6772,10.32395 -3.6311,3.88794 -7.337,7.87988 -10.8211,12.14294 -3.8063,4.65745 -7.3478,9.63851 -10.8894,14.61956"
         style="fill:none;stroke:#000000;stroke-width:15.11811043;stroke-linecap:round;stroke-miterlimit:4;stroke-dasharray:none;stroke-opacity:1"
         id="path4516" />
      <path
         d="m 4686.6142,199.31273 c -16.5213,-14.33112 -33.0426,-28.66224 -49.9453,-42.53352 -17.5221,-14.37959 -35.454,-28.26504 -53.6403,-41.80357 -18.8504,-14.03296 -37.974,-27.693216 -57.369,-40.9582 -20.1009,-13.747779 -40.4932,-27.070992 -61.1333,-39.997141 -21.3883,-13.394783 -43.0426,-26.363188 -64.9326,-38.920462 -22.6803,-13.010618 -45.6135,-25.579883 -68.7671,-37.728163 -22.5924,-11.853833 -45.3945,-23.306842 -68.3811,-34.376335 -23.7613,-11.442561 -47.7197,-22.475321 -71.8504,-33.116709 -24.9402,-10.99838 -50.0645,-21.57868 -75.3491,-31.76017 -26.1288,-10.52143 -52.4288,-20.61697 -78.8772,-30.30675 -27.3271,-10.01168 -54.8126,-19.59019 -82.4348,-28.75639 -28.5351,-9.46918 -57.216,-18.49833 -86.0217,-27.10917 -29.7528,-8.89393 -59.6388,-17.34159 -89.638,-25.36494 -30.9801,-8.2857 -62.081,-16.11888 -93.2833,-23.52374 -32.2161,-7.64546 -64.5404,-14.8343 -96.9558,-21.58492 -33.4556,-6.96724 -67.0082,-13.46768 -100.6369,-19.54238 -16.9245,-3.05724 -33.8682,-6.00665 -50.8316,-8.83752 -17.2696,-2.88197 -34.5595,-5.64107 -51.852,-8.38315 -18.2457,-2.89323 -36.4942,-5.7675 -54.7463,-8.61924 -19.3869,-3.02906 -38.7778,-6.03271 -58.1725,-9.01186 -20.5082,-3.1502 -41.0206,-6.27302 -61.5371,-9.36834 -21.6017,-3.25903 -43.2079,-6.48757 -64.8187,-9.68573 -22.6655,-3.35426 -45.336,-6.6751 -68.0113,-9.96259 -23.6995,-3.43597 -47.4044,-6.83549 -71.1143,-10.19877 -28.2505,-4.00736 -56.5083,-7.96328 -84.7732,-11.86803 -29.5159,-4.07758 -59.0395,-8.09936 -88.5705,-12.06555 -30.7392,-4.12844 -61.4864,-8.19663 -92.2414,-12.20471 -31.9202,-4.15992 -63.8488,-8.25508 -95.7856,-12.28548 -33.0591,-4.17203 -66.1268,-8.27469 -99.2031,-12.30785 -33.5366,-4.08929 -67.0818,-8.10714 -100.6355,-12.05332 -34.5544,-4.06388 -69.1178,-8.05174 -103.6898,-11.96322 -35.5323,-4.02013 -71.0737,-7.95957 -106.6239,-11.81778 -36.4703,-3.95806 -72.9497,-7.83063 -109.4382,-11.61701 -44.5823,-4.62627 -89.1779,-9.12387 -133.7863,-13.49125 -45.7875,-4.48282 -91.5883,-8.82844 -137.402,-13.03492 -46.9252,-4.30853 -93.8638,-8.47107 -140.8151,-12.48521 -47.9955,-4.10343 -96.0043,-8.05178 -144.0256,-11.84216 -48.9986,-3.86751 -98.0101,-7.57056 -147.0338,-11.10572 -49.9341,-3.60082 -99.8808,-7.02746 -149.8392,-10.27594 -61.0583,-3.97025 -122.134,-7.67437 -183.2251,-11.10435 -62.1925,-3.49182 -124.40106,-6.69951 -186.62337,-9.61367 -63.21051,-2.96045 -126.43524,-5.61796 -189.67166,-7.96167 -64.11232,-2.37617 -128.23665,-4.42979 -192.36995,-6.14833 -64.89796,-1.73904 -129.80511,-3.13498 -194.71824,-4.17367 -85.97788,-1.37575 -171.96625,-2.12477 -257.955383,-2.2103 -86.868373,-0.0864 -173.737527,0.50433 -260.596227,1.81492 -87.49925,1.32025 -174.9879,3.37102 -262.45111,6.20244 -71.14761,2.30323 -142.2784,5.12303 -213.38369,8.48796 -71.25187,3.37187 -142.47815,7.29113 -213.66729,11.79617 -71.2183,4.50689 -142.39948,9.60005 -213.53308,15.29695 -71.0519,5.69035 -142.0563,11.98306 -212.9895,18.98696 -70.8855,6.99918 -141.6998,14.70861 -212.483,22.68347 -71.676,8.07546 -143.3202,16.42311 -214.9296,25.06094 -85.5373,10.31788 -171.025,21.0498 -256.4695,32.11685 -86.3761,11.18773 -172.7081,22.71794 -258.9731,34.7263 -77.3864,10.77242 -154.7189,21.92963 -232.0513,33.08683"
         style="fill:none;stroke:#000000;stroke-width:15.11811043;stroke-linecap:round;stroke-miterlimit:4;stroke-dasharray:none;stroke-opacity:1"
         id="path4522" />
      <path
         d="m -2578.9927,-389.36069 c -64.7432,9.64834 -129.4864,19.29669 -194.1768,29.28561 -80.6408,12.45184 -161.1997,25.43292 -241.7586,38.41399"
         style="fill:none;stroke:#000000;stroke-width:15.11811043;stroke-linecap:round;stroke-miterlimit:4;stroke-dasharray:none;stroke-opacity:1"
         id="path4524" />
      <path
         d="m -6608.6373,592.60198 c -0.1947,0.12298 -0.3895,0.24597 -0.5204,0.34377 -0.086,0.0643 -0.1448,0.11779 -0.2034,0.17124"
         style="fill:none;stroke:#000000;stroke-width:15.11811043;stroke-linecap:round;stroke-miterlimit:4;stroke-dasharray:none;stroke-opacity:1"
         id="path4526" />
      <path
         d="m -6614.1771,913.67615 c 0,0 0,0 0,10e-6 0,0.093 -2e-4,0.17796 -3e-4,0.25336 -1e-4,0.0754 -2e-4,0.14122 -3e-4,0.19562 0,0.0544 1e-4,0.0974 2e-4,0.12687 0,0.0295 2e-4,0.0455 2e-4,0.0455"
         style="fill:none;stroke:#000000;stroke-width:15.11811043;stroke-linecap:round;stroke-miterlimit:4;stroke-dasharray:none;stroke-opacity:1"
         id="path4532" />
      <path
         d="m -6614.1732,914.29229 c 9.1487,6.8708 18.2975,13.74161 27.7227,20.21737 10.3945,7.14176 21.1252,13.80304 32.0286,20.15095 11.9749,6.97172 24.158,13.56544 36.4646,19.9368 13.4369,6.95658 27.021,13.64808 40.932,19.58495 1.6322,0.69661 3.269,1.38283 4.9057,2.06904"
         style="fill:none;stroke:#000000;stroke-width:15.11811043;stroke-linecap:round;stroke-miterlimit:4;stroke-dasharray:none;stroke-opacity:1"
         id="path4534" />
      <path
         d="m 698.59809,1356.1078 c 2.63649,0.173 5.27299,0.3459 7.9094,0.52 28.33967,1.8712 56.67038,3.8762 84.99792,5.9246 41.97879,3.0356 83.9506,6.1666 125.90979,9.4603 41.19387,3.2337 82.37557,6.6242 123.5427,10.1838 40.2157,3.4774 80.4175,7.1161 120.6011,10.9483 39.0404,3.7232 78.0635,7.629 117.0635,11.754 29.6995,3.1413 59.3855,6.4098 89.0545,9.8276 28.7196,3.3085 57.4232,6.7569 86.1061,10.371 27.622,3.4805 55.2248,7.1147 82.8021,10.9344 26.3957,3.656 52.7681,7.4818 79.1085,11.5165 19.3932,2.9706 38.7691,6.0543 58.1228,9.2722 18.5282,3.0806 37.0361,6.2843 55.5172,9.6362 17.5969,3.1916 35.1695,6.5177 52.7102,10.0053 16.597,3.3 33.1654,6.7446 49.6926,10.3778 15.5397,3.4161 31.0429,6.9989 46.5077,10.7383 14.6979,3.5539 29.3611,7.2493 44.0439,10.865 34.2611,8.4367 68.6285,16.439 103.0369,24.258 33.8906,7.7014 67.8208,15.2251 101.8098,22.4757 29.8422,6.366 59.7296,12.5215 89.6565,18.4781 29.3427,5.8404 58.7233,11.4896 88.1421,16.9327 28.7711,5.3234 57.5787,10.4496 86.4211,15.372 28.1308,4.801 56.2947,9.408 84.4906,13.8111 33.7404,5.2689 67.5266,10.2457 101.3552,14.9161 34.3666,4.7446 68.7769,9.1729 103.2272,13.2666 34.6881,4.1219 69.4166,7.9046 104.1803,11.3319 34.5974,3.411 69.2297,6.47 103.891,9.1554 34.0409,2.6373 68.1099,4.9142 102.2,6.8155 32.9881,1.8398 65.9959,3.3278 99.0162,4.4456 27.106,0.9176 54.2204,1.5857 81.3387,1.996 25.7889,0.3902 51.5815,0.5472 77.3733,0.4637 24.3181,-0.079 48.6355,-0.3713 72.9483,-0.8839 22.7694,-0.48 45.5348,-1.153 68.2927,-2.0232 21.4085,-0.8186 42.8104,-1.8118 64.2027,-2.9821 20.4112,-1.1167 40.8136,-2.3947 61.2043,-3.8368 19.5575,-1.3832 39.1043,-2.9174 58.6381,-4.6041 25.6552,-2.2152 51.2878,-4.6934 76.8922,-7.4356 24.4155,-2.6149 48.8052,-5.47 73.1648,-8.5627 23.3512,-2.9647 46.6746,-6.1478 69.9663,-9.5478 22.4304,-3.2742 44.8314,-6.7495 67.1995,-10.4259 27.9806,-4.5989 55.9097,-9.5123 83.7829,-14.7243 26.9045,-5.0309 53.7569,-10.34 80.5404,-15.9788 26.0304,-5.4803 51.9957,-11.272 77.8771,-17.4185 25.3547,-6.0215 50.6289,-12.3834 75.7994,-19.1342 24.3813,-6.5393 48.6653,-13.4434 72.8241,-20.7627 23.2487,-7.0436 46.3815,-14.4717 69.3658,-22.3359 22.1069,-7.5641 44.0765,-15.5316 65.8692,-23.9591 23.0252,-8.904 45.8529,-18.3215 68.438,-28.2924 21.6464,-9.5565 43.0699,-19.6214 64.2091,-30.2493 20.2472,-10.1793 40.2335,-20.875 59.9464,-32.0633 18.8621,-10.7053 37.4738,-21.8615 55.6587,-33.6662 17.3824,-11.2837 34.3748,-23.1598 51.3672,-35.0359"
         style="fill:none;stroke:#000000;stroke-width:15.11811043;stroke-linecap:round;stroke-miterlimit:4;stroke-dasharray:none;stroke-opacity:1"
         id="path4536" />
      <path
         d="m -6693.135,675.21885 c -1.9287,2.83018 -3.8573,5.66037 -5.6028,8.59755 -4.1267,6.94425 -7.2296,14.48654 -9.7412,22.22061 -2.5108,7.73182 -4.4306,15.65531 -5.2631,23.67708 -0.7863,7.57628 -0.6026,15.24023 -0.419,22.90417"
         style="fill:none;stroke:#000000;stroke-width:15.11811043;stroke-linecap:round;stroke-miterlimit:4;stroke-dasharray:none;stroke-opacity:1"
         id="path4544" />
      <path
         d="m 4686.6142,199.31279 c 10.5575,9.40534 20.9775,18.96707 31.2468,28.68784 10.2693,9.72076 20.3877,19.60058 30.3421,29.64209 9.9543,10.04151 19.7446,20.24472 29.3573,30.61229 9.6128,10.36756 19.0481,20.89948 28.2926,31.59841 9.2445,10.69893 18.2983,21.56488 27.1417,32.59883 2.9478,3.67799 5.8723,7.37464 8.7726,11.09 5.8008,7.43071 11.5051,14.93625 17.1074,22.51691 8.4033,11.37098 16.5769,22.91098 24.5026,34.62027 7.9257,11.70929 15.6035,23.58787 23.0074,35.63422 7.4039,12.04635 14.5338,24.26047 21.3664,36.63954 3.4163,6.18953 6.7583,12.42031 10.0221,18.69173 3.2638,6.27142 6.4494,12.58348 9.553,18.9356 6.2072,12.70424 12.0864,25.56868 17.6093,38.5851 5.5229,13.01643 10.6897,26.18483 15.4601,39.49523 4.7704,13.31041 9.1445,26.76281 13.0968,40.33905 3.9523,13.57623 7.4828,27.2763 10.4922,41.09201 0.6687,3.07015 1.3118,6.14602 1.9278,9.22727 2.1562,10.78438 3.982,21.6347 5.4242,32.53698 0.9271,7.00861 1.6957,14.03868 2.3002,21.08274 0.6045,7.04406 1.0448,14.10211 1.3153,21.16665 0.5409,14.1291 0.4027,28.28419 -0.3987,42.40085 -0.6233,10.97962 -1.6478,21.93599 -3.0391,32.84546 -0.3975,3.117 -0.8249,6.23016 -1.2815,9.33895 -2.0545,13.98954 -4.6991,27.89041 -7.8775,41.66833 -3.1783,13.77792 -6.8903,27.4329 -11.0876,40.93498 -4.1973,13.50209 -8.8799,26.85128 -14.0099,40.02737 -5.13,13.17608 -10.7075,26.17911 -16.6947,38.98871 -2.9936,6.4049 -6.0896,12.7614 -9.2841,19.068 -3.1945,6.3066 -6.4875,12.5633 -9.8752,18.7685 -3.3876,6.2052 -6.8698,12.359 -10.4427,18.4597 -3.5729,6.1007 -7.2365,12.1483 -10.9869,18.1414 -3.7504,5.993 -7.5875,11.9314 -11.508,17.8143 -3.9205,5.883 -7.9243,11.7104 -12.0079,17.4816 -4.0837,5.7711 -8.2472,11.4859 -12.487,17.1435 -2.1199,2.8288 -4.259,5.6433 -6.4167,8.4434 -2.1576,2.8 -4.334,5.5857 -6.5286,8.3569 -4.3891,5.5424 -8.8511,11.0267 -13.383,16.4527 -1.5107,1.8086 -3.0291,3.6108 -4.5551,5.4065 -3.0521,3.5914 -6.1347,7.1569 -9.247,10.6963 -4.6685,5.3091 -9.4038,10.5597 -14.2027,15.7514 -2.3995,2.5959 -4.8148,5.177 -7.2458,7.7434 -2.4309,2.5664 -4.8774,5.1181 -7.339,7.655 -2.4616,2.5369 -4.9384,5.0591 -7.43,7.5665 -2.4916,2.5073 -4.998,5 -7.5188,7.4779 -2.5209,2.4779 -5.0563,4.9411 -7.6058,7.3896 -2.5495,2.4485 -5.1132,4.8823 -7.6906,7.3014 -5.155,4.8382 -10.3651,9.6178 -15.6278,14.3388 -5.2626,4.7211 -10.5778,9.3836 -15.9428,13.9878 -5.365,4.6042 -10.7799,9.1502 -16.2422,13.6383 -5.4624,4.4881 -10.9722,8.9184 -16.5272,13.2914 -5.5551,4.3731 -11.1553,8.6888 -16.7983,12.9477 -2.8216,2.1295 -5.6538,4.2448 -8.4965,6.3459 -2.8426,2.1011 -5.6957,4.1881 -8.5589,6.2611"
         style="fill:none;stroke:#000000;stroke-width:15.11811043;stroke-linecap:round;stroke-miterlimit:4;stroke-dasharray:none;stroke-opacity:1"
         id="path4546" />
      <path
         d="m -6500.7874,526.66733 c -6.8412,4.01051 -13.6824,8.02102 -20.1458,11.86513 -6.463,3.84392 -12.5482,7.52145 -18.3121,11.00156 -5.7636,3.48001 -11.206,6.76261 -16.2803,9.79598 -5.0744,3.03342 -9.7807,5.8176 -14.1153,8.33121 -4.335,2.51389 -8.2983,4.75714 -11.8863,6.98557 -3.5883,2.22867 -6.8014,4.44252 -9.683,6.4465 -2.8811,2.00358 -5.4308,3.79739 -7.7076,5.28803 -2.2773,1.49094 -4.2814,2.6786 -5.9282,3.7161 -1.4479,0.91225 -2.6196,1.70841 -3.7913,2.50457"
         style="fill:none;stroke:#000000;stroke-width:15.11811043;stroke-linecap:round;stroke-miterlimit:4;stroke-dasharray:none;stroke-opacity:1"
         id="path4548" />
      <path
         d="m 2053.5691,1539.0927 4.6768,0.8761"
         style="fill:none;stroke:#000000;stroke-width:15.11811043;stroke-linecap:round;stroke-miterlimit:4;stroke-dasharray:none;stroke-opacity:1"
         id="path4554" />
      <path
         d="m 2228.7692,1575.956 5.2015,1.0963"
         style="fill:none;stroke:#000000;stroke-width:15.11811043;stroke-linecap:round;stroke-miterlimit:4;stroke-dasharray:none;stroke-opacity:1"
         id="path4556" />
      <path
         d="m -2430.173,-411.36416 -0.9545,0.14328"
         style="fill:none;stroke:#000000;stroke-width:15.11811043;stroke-linecap:round;stroke-miterlimit:4;stroke-dasharray:none;stroke-opacity:1"
         id="path4558" />
      <path
         d="m 2672.0154,-437.08858 -22.0635,-2.83966"
         style="fill:none;stroke:#000000;stroke-width:15.11811043;stroke-linecap:round;stroke-miterlimit:4;stroke-dasharray:none;stroke-opacity:1"
         id="path4560" />
      <path
         d="m -3825.385,1274.4495 h 0.8147"
         style="fill:none;stroke:#000000;stroke-width:15.11811043;stroke-linecap:round;stroke-miterlimit:4;stroke-dasharray:none;stroke-opacity:1"
         id="path4568" />
      <path
         d="m -6634.6723,896.72187 20.495,17.57563"
         style="fill:none;stroke:#000000;stroke-width:15.11811043;stroke-linecap:round;stroke-miterlimit:4;stroke-dasharray:none;stroke-opacity:1"
         id="path4570" />
      <path
         d="m -6689.3646,669.43312 -3.7704,5.78573"
         style="fill:none;stroke:#000000;stroke-width:15.11811043;stroke-linecap:round;stroke-miterlimit:4;stroke-dasharray:none;stroke-opacity:1"
         id="path4572" />
    </g>
  </g>
</svg>
