<?xml version="1.0" encoding="UTF-8" standalone="no"?>
<!-- Created with Inkscape (http://www.inkscape.org/) -->

<svg
   xmlns:dc="http://purl.org/dc/elements/1.1/"
   xmlns:cc="http://creativecommons.org/ns#"
   xmlns:rdf="http://www.w3.org/1999/02/22-rdf-syntax-ns#"
   xmlns:svg="http://www.w3.org/2000/svg"
   xmlns="http://www.w3.org/2000/svg"
   xmlns:sodipodi="http://sodipodi.sourceforge.net/DTD/sodipodi-0.dtd"
   xmlns:inkscape="http://www.inkscape.org/namespaces/inkscape"
   width="2778.4395mm"
   height="935.6239mm"
   viewBox="0 0 2778.4395 935.62392"
   version="1.1"
   id="svg8"
   inkscape:version="0.92.1 r15371"
   sodipodi:docname="UBCST-Urban-1.svg">
  <defs
     id="defs2">
    <marker
       style="overflow:visible"
       refY="0"
       refX="0"
       orient="auto"
       id="DistanceX">
      <path
         id="path4487"
         style="stroke:#000000;stroke-width:0.5"
         d="M 3,-3 -3,3 M 0,-5 V 5"
         inkscape:connector-curvature="0" />
    </marker>
    <pattern
       y="0"
       x="0"
       width="8"
       patternUnits="userSpaceOnUse"
       id="Hatch"
       height="8">
      <path
         id="path4490"
         stroke-width="0.25"
         stroke="#000000"
         linecap="square"
         d="M8 4 l-4,4" />
      <path
         id="path4492"
         stroke-width="0.25"
         stroke="#000000"
         linecap="square"
         d="M6 2 l-4,4" />
      <path
         id="path4494"
         stroke-width="0.25"
         stroke="#000000"
         linecap="square"
         d="M4 0 l-4,4" />
    </pattern>
    <symbol
       id="*Model_Space" />
    <symbol
       id="*Paper_Space" />
    <symbol
       id="*Paper_Space0" />
    <marker
       style="overflow:visible"
       refY="0"
       refX="0"
       orient="auto"
       id="DistanceX-1">
      <path
         id="path4648"
         style="stroke:#000000;stroke-width:0.5"
         d="M 3,-3 -3,3 M 0,-5 V 5"
         inkscape:connector-curvature="0" />
    </marker>
    <pattern
       y="0"
       x="0"
       width="8"
       patternUnits="userSpaceOnUse"
       id="Hatch-1"
       height="8">
      <path
         id="path4651"
         stroke-width="0.25"
         stroke="#000000"
         linecap="square"
         d="M8 4 l-4,4" />
      <path
         id="path4653"
         stroke-width="0.25"
         stroke="#000000"
         linecap="square"
         d="M6 2 l-4,4" />
      <path
         id="path4655"
         stroke-width="0.25"
         stroke="#000000"
         linecap="square"
         d="M4 0 l-4,4" />
    </pattern>
    <symbol
       id="*Model_Space-1" />
    <symbol
       id="*Paper_Space-0" />
    <symbol
       id="*Paper_Space0-7" />
    <marker
       style="overflow:visible"
       refY="0"
       refX="0"
       orient="auto"
       id="DistanceX-6">
      <path
         id="path4937"
         style="stroke:#000000;stroke-width:0.5"
         d="M 3,-3 -3,3 M 0,-5 V 5"
         inkscape:connector-curvature="0" />
    </marker>
    <pattern
       y="0"
       x="0"
       width="8"
       patternUnits="userSpaceOnUse"
       id="Hatch-3"
       height="8">
      <path
         id="path4940"
         stroke-width="0.25"
         stroke="#000000"
         linecap="square"
         d="M8 4 l-4,4" />
      <path
         id="path4942"
         stroke-width="0.25"
         stroke="#000000"
         linecap="square"
         d="M6 2 l-4,4" />
      <path
         id="path4944"
         stroke-width="0.25"
         stroke="#000000"
         linecap="square"
         d="M4 0 l-4,4" />
    </pattern>
    <symbol
       id="*Model_Space-9" />
    <symbol
       id="*Paper_Space-2" />
    <symbol
       id="*Paper_Space0-8" />
  </defs>
  <sodipodi:namedview
     id="base"
     pagecolor="#ffffff"
     bordercolor="#666666"
     borderopacity="1.0"
     inkscape:pageopacity="0.0"
     inkscape:pageshadow="2"
     inkscape:zoom="0.12374369"
     inkscape:cx="1762.061"
     inkscape:cy="172.32105"
     inkscape:document-units="mm"
     inkscape:current-layer="g5012"
     showgrid="false"
     fit-margin-top="0"
     fit-margin-left="0"
     fit-margin-right="0"
     fit-margin-bottom="0"
     inkscape:window-width="3200"
     inkscape:window-height="1675"
     inkscape:window-x="-13"
     inkscape:window-y="2147"
     inkscape:window-maximized="1" />
  <metadata
     id="metadata5">
    <rdf:RDF>
      <cc:Work
         rdf:about="">
        <dc:format>image/svg+xml</dc:format>
        <dc:type
           rdf:resource="http://purl.org/dc/dcmitype/StillImage" />
        <dc:title></dc:title>
      </cc:Work>
    </rdf:RDF>
  </metadata>
  <g
     inkscape:label="Layer 1"
     inkscape:groupmode="layer"
     id="layer1"
     transform="translate(3404.4382,-715.94626)">
    <g
       id="g4582"
       inkscape:label="0"
       transform="matrix(0.26458333,0,0,0.26458333,421.3171,126.77947)"
       style="stroke:#000000;stroke-width:15.11811066;stroke-miterlimit:4;stroke-dasharray:none;stroke-opacity:1">
      <g
         id="g4729"
         inkscape:label="0"
         transform="translate(-11403.403,6170.009)">
        <g
           id="g5012"
           inkscape:label="0"
           transform="translate(-2787.8278,-1584.7205)">
          <path
             id="path4952"
             style="fill:none;stroke:#000000;stroke-width:15.11811043;stroke-linecap:round;stroke-miterlimit:4;stroke-dasharray:none"
             d="m 8455.1152,-652.90737 c -0.1351,-0.0209 -0.2702,-0.0418 -0.4122,-0.0638 -1.4492,-0.22476 -3.6248,-0.5684 -6.0243,-0.94846 -2.1576,-0.34174 -4.4961,-0.71292 -7.2827,-1.15482 -2.5004,-0.39653 -5.3616,-0.85 -8.5532,-1.35396 -2.9649,-0.46816 -6.215,-0.97989 -9.3667,-1.48076 -3.1349,-0.49819 -6.1724,-0.98563 -9.2001,-1.47492 -3.0179,-0.4877 -6.026,-0.97725 -9.0003,-1.4654 -2.9646,-0.48657 -5.8954,-0.97176 -8.7983,-1.45609 -2.8935,-0.48277 -5.7592,-0.96469 -8.5945,-1.44422 -4.5172,-0.76401 -8.9572,-1.52195 -13.3219,-2.27039 -4.3421,-0.74456 -8.6096,-1.47973 -12.787,-2.19783 -4.1558,-0.71439 -8.2224,-1.41189 -12.2446,-2.09253 -3.895,-0.65913 -7.7484,-1.30245 -11.8445,-1.96602 -3.7232,-0.60316 -7.647,-1.22306 -11.7716,-1.85869 -3.1265,-0.4818 -6.3683,-0.97264 -9.7642,-1.47798 -3.1017,-0.46157 -6.3319,-0.93523 -9.7236,-1.42665 -3.085,-0.44698 -6.3035,-0.90865 -9.6835,-1.38951 -3.0633,-0.4358 -6.2592,-0.88736 -9.6439,-1.3629 -3.0882,-0.43388 -6.3336,-0.88771 -9.6883,-1.35494 -3.9209,-0.54608 -7.9913,-1.11045 -12.1429,-1.68349 -6.6278,-0.9148 -13.463,-1.85169 -20.0564,-2.74956 -7.5571,-1.0291 -14.7967,-2.00695 -21.7889,-2.9453 -7.7476,-1.03972 -15.1914,-2.03094 -22.404,-2.98475 -7.9449,-1.05068 -15.6091,-2.05596 -23.0535,-3.02505 -8.1471,-1.06058 -16.0309,-2.07781 -23.7434,-3.06439 -8.386,-1.07275 -16.5694,-2.10926 -24.4799,-3.09841 -6.6487,-0.83138 -13.1047,-1.6293 -19.786,-2.45161 -6.4859,-0.79826 -13.1842,-1.61949 -20.2604,-2.48902 -6.5789,-0.80844 -13.4846,-1.65863 -20.7345,-2.55447 -6.7636,-0.83574 -13.8269,-1.71119 -21.2301,-2.63263 -6.9453,-0.86445 -14.1899,-1.76937 -21.7466,-2.71637 -7.1504,-0.89608 -14.5803,-1.82983 -22.2887,-2.79939 -8.8323,-1.11093 -18.0303,-2.26887 -27.5238,-3.45912 -9.2295,-1.15715 -18.7384,-2.34483 -28.4381,-3.5428 -9.6171,-1.18779 -19.4218,-2.38568 -29.1866,-3.55013 -9.331,-1.11271 -18.6256,-2.19488 -27.8266,-3.24356 -8.6153,-0.98192 -17.1485,-1.93449 -25.4332,-2.84473 -7.7404,-0.85044 -15.2639,-1.66393 -22.8322,-2.46924 -7.9827,-0.84941 -16.0152,-1.68972 -24.1138,-2.52002 -8.7824,-0.9004 -17.6425,-1.78902 -26.5438,-2.66027 -9.6113,-0.94075 -19.2708,-1.86125 -28.9951,-2.76002 -13.4554,-1.24362 -27.0351,-2.44565 -40.7567,-3.59613 -14.5196,-1.2174 -29.1981,-2.37708 -43.9529,-3.45967 -15.6158,-1.14576 -31.3171,-2.20516 -47.0668,-3.16663 -16.6629,-1.01722 -33.38,-1.92483 -50.113,-2.7187 -17.692,-0.83938 -35.4018,-1.55162 -53.1102,-2.14333 -18.1914,-0.60784 -36.3813,-1.0885 -54.5739,-1.45536 -18.3578,-0.37019 -36.7182,-0.62451 -55.078,-0.7725 -18.5155,-0.14924 -37.0303,-0.19034 -55.5435,-0.13663 -41.9756,0.12177 -83.9431,0.73089 -125.8948,1.62617 -42.502,0.90704 -84.9877,2.1078 -127.4597,3.40503 -16.788,0.51276 -33.5739,1.0406 -50.3577,1.58441 -16.8147,0.54482 -33.6273,1.10568 -50.4374,1.67225 -16.5106,0.55648 -33.0187,1.11846 -49.5165,1.68625 -15.5357,0.53468 -31.0623,1.07451 -46.5729,1.60762 -16.3804,0.56301 -32.7429,1.11852 -49.0913,1.66243 -15.0534,0.50084 -30.0947,0.99184 -45.0683,1.44236 -4.5996,0.13839 -9.1929,0.27297 -13.7861,0.40754"
             inkscape:connector-curvature="0" />
          <path
             id="path4954"
             style="fill:none;stroke:#000000;stroke-width:15.11811043;stroke-linecap:round;stroke-miterlimit:4;stroke-dasharray:none"
             d="m 3788.0545,-674.39705 c -0.014,-10e-4 -0.028,-0.003 -0.042,-0.004 -1.5032,-0.14963 -3.5764,-0.31772 -5.859,-0.49651 -2.2414,-0.17556 -4.6848,-0.36143 -7.6002,-0.57334 -2.4564,-0.17854 -5.2479,-0.37556 -8.6086,-0.61128 -2.3926,-0.16783 -5.0737,-0.35526 -8.0139,-0.56226 -2.8117,-0.19795 -5.8603,-0.4138 -8.9355,-0.63356 -3.3281,-0.23783 -6.6873,-0.48026 -10.1137,-0.73006 -3.6958,-0.26944 -7.4697,-0.54744 -11.2933,-0.83242 -3.6212,-0.26988 -7.287,-0.54601 -10.9743,-0.82682 -4.6552,-0.35454 -9.3446,-0.71654 -14.0493,-1.08489 -5.6886,-0.44539 -11.3996,-0.90005 -17.1181,-1.36307 -6.7142,-0.54364 -13.4386,-1.09879 -20.1808,-1.66657 -9.3366,-0.78625 -18.7073,-1.5967 -27.9012,-2.41481 -9.0422,-0.80461 -17.9134,-1.61663 -26.5857,-2.43451 -8.2568,-0.77869 -16.3333,-1.56269 -24.1846,-2.34984 -7.4811,-0.75004 -14.7576,-1.50294 -21.7895,-2.25632 -6.7132,-0.71923 -13.2033,-1.43889 -19.3975,-2.14929 -4.9712,-0.57014 -9.7517,-1.13431 -14.3385,-1.68569 -4.279,-0.51437 -8.3893,-1.01761 -12.7059,-1.55081 -3.5535,-0.43893 -7.2468,-0.89815 -11.1446,-1.3873 -2.354,-0.29542 -4.7825,-0.60175 -7.3369,-0.9259 -2.034,-0.25811 -4.1477,-0.52751 -6.4616,-0.82412 -1.8023,-0.23104 -3.7261,-0.47857 -5.6998,-0.73358 -2.0554,-0.26556 -4.1649,-0.53922 -6.2965,-0.81678 -4.5064,-0.58679 -9.1112,-1.19099 -13.7654,-1.80535 -5.592,-0.73816 -11.2552,-1.49099 -16.9536,-2.25253 -6.6734,-0.89183 -13.3951,-1.79561 -20.1444,-2.70703 -7.7477,-1.04625 -15.532,-2.10259 -23.3379,-3.16505 -8.6844,-1.18203 -17.3956,-2.37164 -26.1148,-3.56514 -17.5661,-2.40446 -35.1648,-4.82473 -52.8015,-7.24378 -17.9583,-2.46317 -35.9559,-4.92507 -53.9892,-7.3682 -27.9139,-3.78175 -55.913,-7.51854 -83.9889,-11.15146 -28.7496,-3.72011 -57.5797,-7.33131 -86.4795,-10.77845 -29.5257,-3.5218 -59.1241,-6.87237 -88.783,-9.99059 -30.3191,-3.18762 -60.7014,-6.13243 -91.1169,-8.7964 -31.4979,-2.75879 -63.0314,-5.2164 -94.5977,-7.31796 -32.6393,-2.17299 -65.3137,-3.96533 -98.0116,-5.31272 -28.803,-1.18688 -57.6242,-2.0285 -86.4543,-2.47699 -29.4781,-0.45857 -58.9655,-0.50614 -88.4477,-0.10128 -30.0975,0.4133 -60.1896,1.2981 -90.2588,2.68087 -30.6898,1.41133 -61.3557,3.3414 -91.976,5.82066 -31.2594,2.53099 -62.4713,5.63432 -93.611,9.32934 -31.8568,3.78011 -63.6379,8.17947 -95.319,13.19329 -32.5102,5.14505 -64.9151,10.93715 -97.1894,17.35606 -25.3427,5.04034 -50.605,10.46716 -75.773,16.26815 -24.1041,5.55579 -48.1218,11.45478 -72.0457,17.67374 -22.8186,5.93167 -45.5519,12.15441 -68.1931,18.64974 -21.5257,6.17536 -42.9682,12.59709 -64.3218,19.24761 -20.2408,6.30393 -40.4017,12.81342 -60.4787,19.50959 -18.6371,6.21598 -37.2019,12.59282 -55.6915,19.11112 -17.4228,6.14217 -34.7788,12.40995 -52.0646,18.78917 -16.2475,5.99606 -32.433,12.09059 -48.5541,18.26839 -15.1136,5.79169 -30.1707,11.65657 -45.1642,17.57938 -10.0888,3.98535 -20.1489,7.99693 -30.1834,12.0314 -9.5178,3.8267 -19.0126,7.67399 -28.4601,11.53002 -8.241,3.36355 -16.4459,6.73375 -24.5855,10.09485 -6.694,2.76419 -13.3438,5.52222 -19.8897,8.2458 -2.8806,1.19855 -5.7411,2.39044 -8.5726,3.5715 -2.4718,1.03108 -4.9215,2.0539 -7.3164,3.05457 -2.0601,0.86074 -4.0796,1.70509 -6.0742,2.53926 -2.5859,1.08146 -5.1299,2.14583 -7.6815,3.21372 -3.8713,1.62018 -7.76,3.24848 -11.6458,4.8767 -5.1914,2.17526 -10.3778,4.35038 -15.5697,6.53056 -7.5919,3.18795 -15.1958,6.3867 -22.8689,9.62345 -7.8562,3.31401 -15.785,6.66786 -23.7679,10.05701 -8.0346,3.41111 -16.1241,6.85798 -24.2647,10.34214 -8.2006,3.50984 -16.4531,7.05752 -24.7473,10.64174 -8.3643,3.61448 -16.771,7.26612 -25.2207,10.95829 -9.0094,3.93678 -18.0676,7.91962 -27.1568,11.94537 -10.2959,4.56018 -20.6316,9.17541 -30.9863,13.83568 -11.545,5.19603 -23.1136,10.44806 -34.691,15.77515 -12.7446,5.86419 -25.4998,11.81933 -38.255,17.77448"
             inkscape:connector-curvature="0" />
          <path
             id="path4956"
             style="fill:none;stroke:#000000;stroke-width:15.11811043;stroke-linecap:round;stroke-miterlimit:4;stroke-dasharray:none"
             d="m 942.95713,1133.5749 0.18682,0.01 0.6305,0.015 1.8788,0.045 2.92993,0.07 4.56578,0.1088 7.05739,0.1634 9.56098,0.2079 11.1947,0.2189 12.62313,0.2107 14.06254,0.1857 14.7649,0.1368 11.0826,0.062 11.0107,0.027 9.937,-0.01 8.4807,-0.029 4.8528,-0.027 4.5583,-0.032 4.663,-0.039 3.5484,-0.033 1.7863,-0.018 1.7924,-0.018 1.7972,-0.019 1.8004,-0.02 1.8024,-0.021 1.803,-0.022 3.6023,-0.047 3.5888,-0.05 1.8221,-0.027 0.9694,-0.015 0.5009,-0.01 0.512,-0.01 0.523,-0.01 0.5344,-0.01 1.1028,-0.018 2.3468,-0.04 3.4371,-0.062 3.8156,-0.073 4.2274,-0.086 4.6769,-0.1014 5.1678,-0.1179 5.7032,-0.1356 v 0 z"
             inkscape:connector-curvature="0" />
          <path
             id="path4958"
             style="fill:none;stroke:#000000;stroke-width:15.11811043;stroke-linecap:round;stroke-miterlimit:4;stroke-dasharray:none"
             d="m 1133.8583,-397.22348 c -20.1763,7.94831 -40.3526,15.89663 -60.3714,23.74697 -19.9022,7.80459 -39.6489,15.51235 -59.2521,23.15785 -19.45211,7.58652 -38.76297,15.11175 -57.91273,22.57755 -18.95308,7.38912 -37.74836,14.72004 -56.38281,22.0044 -18.3875,7.18782 -36.6184,14.33032 -54.6904,21.43682 -17.77419,6.9894 -35.39467,13.94399 -52.86167,20.87342 -17.12062,6.79202 -34.09378,13.55988 -50.92108,20.3129 -22.89022,9.18615 -45.51053,18.34483 -67.86372,27.4994 -21.48323,8.79829 -42.71973,17.59278 -63.71281,26.40515 -20.03986,8.41223 -39.85792,16.84076 -59.45538,25.30398 -18.58214,8.02474 -36.96595,16.08068 -55.15059,24.18532 -17.12951,7.63438 -34.08229,15.31197 -50.85613,23.04924 -22.52673,10.39091 -44.73072,20.889457 -66.58191,31.534895 -21.58284,10.514703 -42.82149,21.172708 -63.7007,32.049232 -20.56138,10.710954 -40.77417,21.633825 -60.59131,32.811392 C 234.06408,-9.2822 214.95727,1.956905 196.29461,13.382858 177.68194,24.778205 159.51103,36.3594 141.80914,48.046309 123.85718,59.898311 106.38758,71.859034 89.407904,83.887802 72.067658,96.172005 55.238362,108.52717 38.988099,120.9591 c -12.906466,9.87383 -25.447676,19.79607 -37.621754,29.79434 -11.957359,9.82029 -23.560541,19.71391 -34.776655,29.67398 -10.944597,9.71896 -21.52064,19.50119 -31.723007,29.333 -9.956924,9.59527 -19.557936,19.23777 -28.794184,28.91517 -9.016239,9.44687 -17.684889,18.927 -25.999189,28.42732 -5.33753,6.09892 -10.52903,12.20616 -15.57297,18.31835 -4.96652,6.01837 -9.78997,12.04154 -14.4689,18.06594 -4.60779,5.9328 -9.0754,11.8668 -13.40166,17.79856 -4.26119,5.84254 -8.38524,11.68291 -12.37095,17.51738 -3.92646,5.74774 -7.71868,11.48976 -11.37641,17.22346 -3.49904,5.48494 -6.87502,10.96227 -10.1308,16.43526 -3.10074,5.21238 -6.09246,10.42082 -8.97519,15.62473 -2.5115,4.53376 -4.94029,9.06408 -7.28825,13.59466 -2.00006,3.85927 -3.94148,7.71872 -5.82481,11.57992 -1.55462,3.18725 -3.06966,6.37568 -4.55248,9.58251 -0.91319,1.97493 -1.81416,3.95683 -2.70175,5.94429 -1.11164,2.4891 -2.20232,4.98691 -3.26419,7.47524 -1.28192,3.00399 -2.52187,5.99416 -3.73155,8.99914 -1.39686,3.46998 -2.75337,6.95972 -4.06618,10.46757 -1.47742,3.94765 -2.8995,7.91823 -4.25089,11.87151 -1.51689,4.43744 -2.94472,8.85309 -4.27867,13.22342 -1.49582,4.90068 -2.87361,9.74438 -4.13239,14.50132 -1.36864,5.17213 -2.59659,10.24169 -3.69668,15.22458 -0.99517,4.50767 -1.8857,8.94441 -2.67527,13.30147 -0.6765,3.73314 -1.27889,7.40779 -1.80937,11.01268 -0.33004,2.24281 -0.63224,4.45861 -0.90914,6.65871 -0.24503,1.94679 -0.47024,3.88128 -0.67891,5.84532 -0.21217,1.99696 -0.40723,4.02447 -0.57553,5.98628 -0.11292,1.3163 -0.2138,2.60303 -0.30295,3.83095 -0.1173,1.61575 -0.21431,3.12968 -0.29118,4.56087 -0.0971,1.8071 -0.16203,3.4823 -0.22204,5.05305 -0.0733,1.91817 -0.13921,3.68059 -0.0836,5.17935 0.0725,1.95348 0.35144,3.45907 0.63757,5.2061 0.2501,1.52703 0.50568,3.23853 0.81334,4.98516 0.26523,1.50571 0.56916,3.03753 0.90499,4.63137 0.28449,1.35013 0.59187,2.74477 0.92544,4.17651 0.27601,1.18467 0.56994,2.39473 0.88634,3.64732 0.29557,1.17009 0.61075,2.37728 0.95056,3.63258 0.55483,2.04966 1.17532,4.2276 1.87382,6.533 0.74389,2.45518 1.57625,5.05492 2.52659,7.82707 0.32309,0.94247 0.65981,1.90486 1.01097,2.88691 0.35172,0.98366 0.71792,1.98704 1.10417,3.02149 0.34995,0.93724 0.71637,1.89999 1.11293,2.91882 0.41127,1.05662 0.85495,2.17358 1.40662,3.50784 0.17171,0.41529 0.35387,0.85162 0.56768,1.35344 0.0772,0.18109 0.15844,0.37071 0.24715,0.57566 0.0682,0.15747 0.14071,0.324 0.2218,0.50798 0.0611,0.13857 0.12699,0.28704 0.19586,0.44008 0.0292,0.0649 0.0589,0.13054 0.088,0.19453 0.028,0.0615 0.0555,0.12152 0.0814,0.17747 0.0268,0.058 0.0518,0.11176 0.0746,0.16041 0.0251,0.0536 0.0476,0.10107 0.0678,0.14333 0.0491,0.10282 0.0847,0.17488 0.11515,0.23534 0.0891,0.17734 0.13347,0.25473 0.14703,0.2649 0.0121,0.009 -2.5e-4,-0.0352 -0.0126,-0.0795"
             inkscape:connector-curvature="0" />
          <path
             id="path4960"
             style="fill:none;stroke:#000000;stroke-width:15.11811043;stroke-linecap:round;stroke-miterlimit:4;stroke-dasharray:none"
             d="m 9331.9531,-560.15724 c -36.8594,-25.34563 -73.7189,-50.69127 -110.4395,-76.23682 -48.6113,-33.81763 -96.9791,-67.98561 -145.2368,-102.30722 -48.7398,-34.66444 -97.3673,-69.48561 -145.8759,-104.47192 -14.459,-10.42838 -28.9074,-20.87144 -43.347,-31.32659 -14.5276,-10.51886 -29.0463,-21.04996 -43.5564,-31.59295 -14.6535,-10.64719 -29.2982,-21.3065 -43.9349,-31.97669 -14.7892,-10.78137 -29.5704,-21.57385 -44.3441,-32.3764 -14.8994,-10.89444 -29.7914,-21.79914 -44.6764,-32.71317 -15.3113,-11.2266 -30.6153,-22.463 -45.913,-33.7082 -16.0614,-11.8065 -32.1158,-23.6226 -48.1639,-35.4473 -17.0366,-12.5531 -34.066,-25.1158 -51.0902,-37.6857 -20.2989,-14.9879 -40.5903,-29.9861 -60.8764,-44.9914 -21.5722,-15.9567 -43.1384,-31.9216 -64.7003,-47.8923 -22.77,-16.8655 -45.5353,-33.7375 -68.3002,-50.6099 -23.632,-17.515 -47.2637,-35.0305 -70.8993,-52.5405 -18.7503,-13.8908 -37.503,-27.7783 -56.2607,-41.659 -18.4241,-13.6339 -36.853,-27.2613 -55.2894,-40.8785 -17.7191,-13.0874 -35.4452,-26.1653 -53.1822,-39.2284 -16.6995,-12.299 -33.4086,-24.5849 -50.1305,-36.8534 -13.87,-10.1761 -27.7488,-20.3402 -41.6385,-30.4894 -12.7772,-9.3361 -25.5636,-18.6596 -38.3619,-27.9666 -11.7313,-8.5311 -23.4726,-17.0483 -35.2255,-25.5493 -10.9129,-7.8934 -21.8358,-15.7728 -32.7698,-23.6368 -10.3124,-7.4169 -20.6345,-14.8202 -30.9684,-22.2071 -9.8997,-7.0765 -19.81,-14.1379 -29.7323,-21.1827 -9.6527,-6.8533 -19.3166,-13.6908 -28.9924,-20.5114 -9.4666,-6.673 -18.9446,-13.3298 -28.4353,-19.9685 -18.5144,-12.9508 -37.077,-25.8327 -55.6982,-38.6294 -17.506,-12.0303 -35.0637,-23.9852 -52.6792,-35.8545 -16.666,-11.2296 -33.3836,-22.3826 -50.1602,-33.4464 -15.843,-10.4482 -31.7386,-20.8167 -47.6926,-31.0946 -15.0566,-9.6997 -30.1653,-19.3187 -45.3303,-28.8479 -14.0766,-8.8453 -28.2017,-17.6134 -42.3787,-26.2969 -13.4432,-8.2339 -26.9329,-16.3918 -40.472,-24.4672 -13.3537,-7.9648 -26.7554,-15.8494 -40.2073,-23.6475 -13.4455,-7.7943 -26.941,-15.5022 -40.4889,-23.1175 -24.2208,-13.6147 -48.6088,-26.9335 -73.1722,-39.921 -24.6795,-13.0489 -49.5361,-25.7633 -74.5725,-38.1136 -25.2603,-12.4608 -50.7038,-24.5511 -76.327,-36.2479 -25.972,-11.856 -52.1288,-23.3078 -78.4619,-34.3387 -25.854,-10.8303 -51.878,-21.2547 -78.06,-31.2658 -26.7813,-10.2402 -53.728,-20.0479 -80.8225,-29.4284 -27.8422,-9.6393 -55.8404,-18.8275 -83.9744,-27.5787 -29.0407,-9.0332 -58.2259,-17.6008 -87.5336,-25.7257 -30.3854,-8.4236 -60.9024,-16.3712 -91.5278,-23.876 -31.8785,-7.8118 -63.8745,-15.1438 -95.9632,-22.0384 -17.5089,-3.762 -35.0454,-7.3937 -52.6065,-10.9022 -17.9861,-3.5935 -35.9982,-7.0577 -54.0327,-10.4002 -18.0836,-3.3515 -36.1898,-6.5806 -54.3157,-9.6945 -17.2065,-2.956 -34.4308,-5.8081 -51.6705,-8.5632 -16.2142,-2.5911 -32.4421,-5.0965 -48.6817,-7.5238 -14.8669,-2.2222 -29.7437,-4.3789 -44.6289,-6.4749 -13.7426,-1.9352 -27.4926,-3.8186 -41.2489,-5.6536 -12.5596,-1.6754 -25.1246,-3.3104 -37.6944,-4.9074 -11.3303,-1.4394 -22.6645,-2.848 -34.0022,-4.2272 -7.5494,-0.9183 -15.1003,-1.8237 -22.6527,-2.7165 -6.8465,-0.8094 -13.6942,-1.6085 -20.543,-2.3975 -6.1358,-0.7069 -12.2724,-1.4057 -18.41,-2.0967 -5.42,-0.6102 -10.8406,-1.2143 -16.2619,-1.8124 -4.7014,-0.5186 -9.4032,-1.0328 -14.1056,-1.5425 -3.9814,-0.4315 -7.9632,-0.8599 -11.9453,-1.2851 -3.8725,-0.4136 -7.7453,-0.8241 -11.6183,-1.2318 -4.6937,-0.494 -9.3879,-0.9836 -14.0824,-1.4691 -5.9893,-0.6193 -11.9793,-1.2317 -17.9699,-1.8373 -7.2735,-0.7353 -14.548,-1.4606 -21.8235,-2.176 -8.4884,-0.8348 -16.978,-1.6561 -25.469,-2.4643 -9.6572,-0.9192 -19.3161,-1.8214 -28.9764,-2.7071 -10.8017,-0.9903 -21.6053,-1.9598 -32.4106,-2.909 -11.9137,-1.0466 -23.8295,-2.0685 -35.7474,-3.0664 -12.9836,-1.087 -25.9695,-2.1455 -38.9576,-3.176 -9.2248,-0.732 -18.4506,-1.4498 -27.6775,-2.1537 -9.6562,-0.7366 -19.3137,-1.458 -28.9722,-2.1641 -9.2803,-0.6785 -18.5617,-1.3429 -27.844,-1.9934 -8.2898,-0.5808 -16.5803,-1.1506 -24.8716,-1.7091 -7.3208,-0.4932 -14.6421,-0.9777 -21.9637,-1.4536 -6.3719,-0.4141 -12.7441,-0.8217 -19.1173,-1.2227 -5.443,-0.3425 -10.8868,-0.6802 -16.3285,-1.0131 -4.5292,-0.277 -9.057,-0.5508 -13.5915,-0.8214 -3.6362,-0.217 -7.2768,-0.4321 -10.8996,-0.6445 -2.1377,-0.1254 -4.2693,-0.2498 -6.4313,-0.3744 -1.8139,-0.1046 -3.6492,-0.2093 -5.3677,-0.3047 -1.8938,-0.1052 -3.6456,-0.1991 -5.222,-0.2888 -1.93,-0.1097 -3.597,-0.2131 -5.1079,-0.3167 -2.591,-0.1778 -4.723,-0.3564 -6.6278,-0.5359 -2.46,-0.2318 -4.541,-0.465 -6.4085,-0.6939 -2.3177,-0.2842 -4.3065,-0.5618 -6.1727,-0.8307 -2.0381,-0.2936 -3.93,-0.5766 -6.1701,-0.8673 -1.9596,-0.2544 -4.1857,-0.5145 -6.7097,-0.7799 -2.1599,-0.2271 -4.5379,-0.4579 -7.2779,-0.699 -1.7752,-0.1561 -3.7023,-0.3166 -5.836,-0.4838 -1.8786,-0.1471 -3.9172,-0.2996 -6.1622,-0.459 -1.995,-0.1417 -4.1529,-0.2889 -6.4895,-0.4415 -2.1357,-0.1394 -4.4206,-0.2834 -6.8173,-0.4286 -2.3053,-0.1396 -4.714,-0.2805 -7.1445,-0.4173 -2.4925,-0.1404 -5.0078,-0.2766 -7.4702,-0.4046 -2.6695,-0.1388 -5.2767,-0.268 -7.7934,-0.3869 -2.8212,-0.1332 -5.5288,-0.2534 -8.1128,-0.3606 -4.524,-0.1878 -8.6694,-0.3359 -12.6992,-0.4647 -4.5208,-0.1445 -8.8962,-0.2647 -13.4463,-0.385 -4.6099,-0.1218 -9.3992,-0.2436 -14.2669,-0.3599 -4.9395,-0.118 -9.9598,-0.2303 -15.0726,-0.3394 -5.198,-0.1109 -10.4916,-0.2185 -15.8621,-0.3228 -5.4683,-0.1062 -11.0162,-0.2089 -16.6346,-0.3088 -9.0515,-0.1609 -18.2858,-0.3145 -27.6587,-0.4611 -9.6818,-0.1515 -19.5115,-0.2955 -29.4534,-0.4334 -10.2826,-0.1426 -20.6852,-0.2786 -31.1766,-0.4063 -13.996,-0.1703 -28.1499,-0.3258 -42.4041,-0.4632 -14.8924,-0.1436 -29.8943,-0.2674 -44.9612,-0.3603 -15.7242,-0.097 -31.5193,-0.1602 -47.3504,-0.1734 -16.495,-0.014 -33.0292,0.027 -49.5706,0.1384 -17.1339,0.1157 -34.2757,0.3076 -51.4149,0.5773 -33.9656,0.5344 -67.9215,1.3741 -101.8673,2.5503 -34.0774,1.1807 -68.1446,2.7006 -102.1911,4.5972 -40.6339,2.2636 -81.2384,5.0637 -121.793,8.4651 -40.6428,3.4087 -81.2357,7.4212 -121.7511,12.1143 -40.6268,4.706 -81.1758,10.0964 -121.6076,16.25 -23.141,3.5221 -46.2437,7.2942 -69.2994,11.3357 -23.1574,4.0593 -46.2675,8.3904 -69.32,13.0093 -22.3554,4.4792 -44.6567,9.2289 -66.8941,14.2614 -20.707,4.6861 -41.3585,9.6173 -61.9465,14.8012 -19.1844,4.8306 -38.3136,9.8806 -57.3795,15.1596 -17.4652,4.8358 -34.8772,9.8638 -52.23,15.0885 -16.1856,4.8732 -32.3196,9.9177 -48.3975,15.1347 -14.9712,4.8579 -29.8937,9.8655 -44.7638,15.0245 -13.8109,4.7914 -27.5765,9.7134 -41.2935,14.7673 -10.1544,3.7412 -20.2821,7.5547 -30.3821,11.4403 -8.9658,3.4492 -17.9098,6.9552 -26.8313,10.5177 -7.7294,3.0864 -15.4418,6.2152 -23.137,9.3858 -6.8293,2.814 -13.645,5.6609 -20.4469,8.5405 -6.4269,2.7208 -12.8415,5.4708 -19.2436,8.2496 -8.7581,3.8014 -17.4927,7.6568 -26.2029,11.5667 -9.6213,4.3189 -19.2127,8.7044 -28.7746,13.1535 -10.5029,4.887 -20.9701,9.8507 -31.4028,14.8859 -8.7642,4.23 -17.5041,8.5104 -26.2171,12.8449 -9.436,4.6941 -18.8404,9.4515 -28.2127,14.2716 -10.3401,5.3179 -20.641,10.7121 -30.9061,16.1734 -11.535,6.137 -23.0248,12.3589 -34.4707,18.6608 -12.8488,7.0742 -25.6422,14.2492 -38.379,21.5231 -13.8613,7.9161 -27.6556,15.9493 -41.3897,24.0842 -14.9305,8.8434 -29.7898,17.8069 -44.5783,26.8858 -14.6401,8.9877 -29.2109,18.0885 -43.7111,27.3003 -15.456,9.819 -30.8318,19.7642 -46.1281,29.8303 -15.9726,10.511 -31.8584,21.1539 -47.651,31.9336 -16.1583,11.0295 -32.219,22.2023 -48.1672,33.5337 -16.0619,11.4122 -32.0097,22.9852 -47.8358,34.7223 -15.9348,11.8177 -31.7462,23.8016 -47.4329,35.947 -23.834,18.4534 -47.3801,37.2796 -70.6509,56.4393 -23.7107,19.5218 -47.1355,39.39 -70.2916,59.5659 -23.7376,20.6826 -47.1928,41.6886 -70.4058,62.9581 -23.7911,21.7992 -47.3279,43.8751 -70.6515,66.1732 -18.1742,17.3752 -36.219,34.8852 -54.1537,52.5072 -17.2195,16.9191 -34.3374,33.9414 -51.3691,51.0494 -16.072,16.1442 -32.0672,32.3648 -47.9998,48.6465 -14.9338,15.2609 -29.8126,30.5754 -44.6454,45.9345 -21.6737,22.4428 -43.2491,44.9808 -64.7473,67.5918 -20.9788,22.0647 -41.8843,44.199 -62.7457,66.3746 -20.5438,21.838 -41.0449,43.716 -61.5147,65.6232 -20.5553,21.9987 -41.0789,44.0268 -61.5878,66.0686 -20.9299,22.4941 -41.8445,45.0026 -62.7554,67.51442 -21.57,23.22147 -43.1361,46.44661 -64.7113,69.6633 -17.5509,18.88631 -35.1079,37.76704 -52.6717,56.64146 -18.1832,19.54018 -36.3738,39.07361 -54.5904,58.58269 -11.3234,12.12667 -22.6567,24.24394 -33.9901,36.36121"
             inkscape:connector-curvature="0" />
          <path
             id="path4962"
             style="fill:none;stroke:#000000;stroke-width:15.11811043;stroke-linecap:round;stroke-miterlimit:4;stroke-dasharray:none"
             d="M 8692.9134,1133.9413 Z"
             inkscape:connector-curvature="0" />
          <path
             id="path4964"
             style="fill:none;stroke:#000000;stroke-width:15.11811043;stroke-linecap:round;stroke-miterlimit:4;stroke-dasharray:none"
             d="M 1133.8583,1133.9413 Z"
             inkscape:connector-curvature="0" />
          <path
             id="path4968"
             style="fill:none;stroke:#000000;stroke-width:15.11811043;stroke-linecap:round;stroke-miterlimit:4;stroke-dasharray:none"
             d="m 6804.4225,-745.71277 c -3.212,0.0725 -6.4241,0.14491 -9.6416,0.22268 -13.9978,0.33834 -28.0993,0.7774 -42.2008,1.21645"
             inkscape:connector-curvature="0" />
          <path
             id="path4970"
             style="fill:none;stroke:#000000;stroke-width:15.11811043;stroke-linecap:round;stroke-miterlimit:4;stroke-dasharray:none"
             d="m 8692.9134,-620.63888 -0.074,-0.0209 -0.074,-0.0209 -0.074,-0.0209 -0.074,-0.0209 z"
             inkscape:connector-curvature="0" />
          <path
             id="path4974"
             style="fill:none;stroke:#000000;stroke-width:15.11811043;stroke-linecap:round;stroke-miterlimit:4;stroke-dasharray:none"
             d="m 947.58482,1133.6874 c -7.02613,-0.011 -14.05226,-0.021 -21.07841,-0.029 -24.07819,-0.028 -48.15657,-0.03 -72.23451,0.02 -25.23834,0.052 -50.47618,0.1584 -75.71542,0.2189 -26.56821,0.064 -53.13798,0.076 -79.70105,-0.4899 -21.65365,-0.4611 -43.30284,-1.3062 -64.91355,-2.7508 -22.19267,-1.4836 -44.34476,-3.5994 -66.42251,-6.3091 -22.55227,-2.7679 -45.02698,-6.1556 -67.40321,-10.0983 -22.71881,-4.0032 -45.33611,-8.5786 -67.8314,-13.6893 -22.6999,-5.1571 -45.27558,-10.8592 -67.70708,-17.0806 -22.49588,-6.2391 -44.84677,-13.0005 -67.0302,-20.2725 -21.53658,-7.0599 -42.91533,-14.6011 -64.11184,-22.6244 -21.00061,-7.9492 -41.82235,-16.3716 -62.43488,-25.2792 -20.29808,-8.7717 -40.3933,-18.01391 -60.24732,-27.74955 C 91.323005,978.02481 72.123587,968.02426 53.204269,957.51716 34.804698,947.2987 16.670049,936.60114 -1.136168,925.37984 c -17.207626,-10.84408 -34.108531,-22.1773 -50.62111,-34.05473 -15.857876,-11.4065 -31.357609,-23.31493 -46.39119,-35.7878 -12.597812,-10.452 -24.868292,-21.30035 -36.721042,-32.5911 -11.33621,-10.79869 -22.2903,-22.00205 -32.74953,-33.65338 -9.974,-11.11078 -19.49798,-22.62892 -28.43597,-34.59219 -8.51331,-11.39485 -16.49498,-23.19353 -23.78035,-35.40752 -4.66975,-7.82888 -9.05342,-15.82839 -13.09819,-23.99699 -3.92844,-7.93367 -7.5372,-16.02685 -10.77565,-24.26789 -3.15719,-8.03427 -5.96242,-16.20908 -8.35176,-24.5022 -2.34239,-8.13017 -4.28509,-16.37405 -5.82652,-24.69993 -1.5225,-8.22362 -2.65354,-16.52724 -3.19993,-24.86106 -0.54473,-8.30853 -0.50836,-16.64707 -0.47199,-24.98562"
             inkscape:connector-curvature="0" />
          <path
             id="path4976"
             style="fill:none;stroke:#000000;stroke-width:15.11811043;stroke-linecap:round;stroke-miterlimit:4;stroke-dasharray:none"
             d="m 8692.9134,1133.9413 c 32.9266,0 65.7621,-1.1173 98.4516,-3.2941 32.6894,-2.1768 65.2326,-5.4131 97.5745,-9.651 32.3419,-4.2378 64.4824,-9.4772 96.3664,-15.6604 31.884,-6.1831 63.5115,-13.31 94.8272,-21.3226 31.3158,-8.0127 62.3198,-16.9112 92.9569,-26.6376 30.6371,-9.7264 60.9073,-20.2808 90.7554,-31.6053 29.8481,-11.3244 59.2741,-23.4189 88.2228,-36.22563 28.9487,-12.8067 57.4202,-26.32559 85.3592,-40.49878 27.9389,-14.17319 55.3455,-29.0007 82.1643,-44.42463 26.8189,-15.42393 53.0501,-31.44428 78.6385,-48.00319 25.5883,-16.55891 50.5339,-33.65636 74.7814,-51.23449 24.2475,-17.57813 47.797,-35.63692 70.5933,-54.11851 22.7963,-18.48158 44.8394,-37.38596 66.0741,-56.65525 21.2346,-19.26929 41.6609,-38.90349 61.2237,-58.84472 19.5627,-19.94123 38.2618,-40.18949 56.0422,-60.68691 17.7804,-20.49741 34.642,-41.24398 50.5297,-62.18182 14.1304,-18.62205 27.4904,-37.39541 40.1214,-56.25351 12.63,-18.85811 24.532,-37.80098 35.745,-56.76205 11.213,-18.96107 21.738,-37.94036 31.616,-56.8713 9.878,-18.93094 19.109,-37.81355 27.733,-56.58127 8.625,-18.76772 16.644,-37.42055 24.098,-55.89196 7.454,-18.4714 14.343,-36.76137 20.708,-54.80337 6.365,-18.04199 12.207,-35.836 17.565,-53.31549 5.359,-17.47949 10.235,-34.644452 14.67,-51.428343 4.434,-16.78389 8.427,-33.186708 12.019,-49.141907 3.593,-15.955199 6.785,-31.462778 9.617,-46.456192 2.833,-14.993413 5.306,-29.47266 7.461,-43.371194 2.155,-13.898534 3.992,-27.216355 5.551,-39.886914 1.56,-12.67056 2.842,-24.69386 3.889,-36.00336 1.046,-11.30949 1.856,-21.90518 2.472,-31.72052 0.615,-9.81533 1.036,-18.85031 1.302,-27.03839 0.267,-8.18808 0.379,-15.52926 0.379,-21.957"
             inkscape:connector-curvature="0" />
          <path
             id="path4978"
             style="fill:none;stroke:#000000;stroke-width:15.11811043;stroke-linecap:round;stroke-miterlimit:4;stroke-dasharray:none"
             d="m 9428.7362,-518.985 c 0,-5.6e-4 -0.01,-10e-4 -0.018,-0.003 -0.011,-0.002 -0.03,-0.005 -0.053,-0.009 -0.024,-0.004 -0.054,-0.009 -0.089,-0.0145 -0.036,-0.006 -0.077,-0.0126 -0.1249,-0.0204 -0.048,-0.008 -0.1011,-0.0165 -0.1605,-0.0263 -0.059,-0.01 -0.1249,-0.0204 -0.1962,-0.0321 -0.071,-0.0117 -0.1487,-0.0244 -0.2318,-0.038 -0.083,-0.0137 -0.1725,-0.0283 -0.2675,-0.0439 -0.095,-0.0156 -0.1962,-0.0323 -0.303,-0.0498 -0.1072,-0.0176 -0.2201,-0.0362 -0.3387,-0.0558 -0.1191,-0.0196 -0.2439,-0.0402 -0.3743,-0.0617 -0.131,-0.0216 -0.2677,-0.0441 -0.41,-0.0676 -0.1429,-0.0236 -0.2914,-0.0481 -0.4455,-0.0736 -0.1549,-0.0256 -0.3153,-0.0521 -0.4812,-0.0796 -0.1668,-0.0276 -0.3391,-0.0561 -0.5168,-0.0856 -0.1787,-0.0296 -0.3629,-0.0601 -0.5525,-0.0916 -0.1906,-0.0316 -0.3867,-0.0641 -0.5881,-0.0976 -0.2025,-0.0336 -0.4105,-0.0682 -0.6237,-0.10358 -0.2145,-0.0356 -0.4344,-0.0722 -0.6594,-0.10961 -0.2265,-0.0377 -0.4582,-0.0762 -0.6951,-0.11564 -0.2385,-0.0397 -0.4821,-0.0802 -0.7308,-0.12168 -0.2504,-0.0417 -0.5059,-0.0843 -0.7665,-0.12773 -0.2624,-0.0438 -0.5298,-0.0884 -0.8022,-0.1338 -0.2744,-0.0458 -0.5537,-0.0924 -0.8379,-0.13986 -0.2864,-0.0478 -0.5777,-0.0965 -0.8737,-0.14593 -0.2984,-0.0499 -0.6016,-0.10054 -0.9095,-0.15202 -0.3104,-0.0519 -0.6255,-0.1046 -0.9453,-0.1581 -0.3224,-0.0539 -0.6495,-0.10868 -0.9811,-0.1642 -0.3344,-0.056 -0.6735,-0.11276 -1.017,-0.1703 -0.3464,-0.058 -0.6974,-0.11685 -1.0528,-0.17641 -0.3585,-0.0601 -0.7215,-0.12092 -1.0888,-0.18251 -1.2206,-0.20468 -2.4896,-0.41766 -3.8015,-0.63803 -1.3535,-0.22733 -2.7527,-0.46253 -4.1924,-0.70466 -1.4868,-0.25005 -3.0167,-0.5075 -4.5846,-0.77141 -1.6203,-0.27274 -3.2812,-0.55239 -4.9782,-0.83821 -3.0646,-0.51612 -6.2472,-1.05234 -9.5156,-1.60241 -3.5584,-0.59888 -7.2185,-1.21418 -10.9561,-1.84128 -2.9547,-0.49576 -5.9579,-0.99889 -8.9923,-1.50577 -3.4626,-0.57839 -6.9658,-1.16167 -10.4943,-1.74664 -3.9767,-0.65925 -7.9855,-1.32065 -12.016,-1.98206 -4.4964,-0.73788 -9.0196,-1.47576 -13.5588,-2.21151 -7.5365,-1.22157 -15.1169,-2.43724 -22.733,-3.64644 -7.9178,-1.25711 -15.8741,-2.50722 -23.8711,-3.75212 -7.2491,-1.12848 -14.5317,-2.25268 -21.8459,-3.37294 -7.7051,-1.18014 -15.4453,-2.35592 -23.2141,-3.5266 -8.1674,-1.23073 -16.3664,-2.45583 -24.5934,-3.67523 -8.6316,-1.27938 -17.294,-2.55249 -25.9809,-3.81861 -9.719,-1.41655 -19.4685,-2.82435 -29.2354,-4.22132 -10.8175,-1.54722 -21.6562,-3.08115 -32.5094,-4.60143 -11.9207,-1.66982 -23.8588,-3.32316 -35.8061,-4.95968 -21.0677,-2.88583 -42.1638,-5.71934 -63.2905,-8.50849 -21.8596,-2.88592 -43.7519,-5.72434 -65.6821,-8.52359 -22.5581,-2.87939 -45.1565,-5.71732 -67.7979,-8.52145 -9.5854,-1.18714 -19.1786,-2.36823 -28.78,-3.54386 -9.5612,-1.17072 -19.1306,-2.33604 -28.7091,-3.49661 -9.5281,-1.15446 -19.0652,-2.30423 -28.6118,-3.44993 -9.4862,-1.13844 -18.9818,-2.27285 -28.4878,-3.40379 -9.4355,-1.12254 -18.8812,-2.24166 -28.3368,-3.35809 -9.375,-1.1069 -18.7598,-2.21115 -28.1589,-3.31277 -9.3084,-1.091 -18.6309,-2.17942 -27.9534,-3.26783"
             inkscape:connector-curvature="0" />
          <path
             id="path4980"
             style="fill:none;stroke:#000000;stroke-width:15.11811043;stroke-linecap:round;stroke-miterlimit:4;stroke-dasharray:none"
             d="m 9428.7362,-518.985 c 6.6375,1.33934 13.2468,2.68254 19.8276,4.02945 22.5209,4.60952 44.7062,9.26264 66.5353,13.95418 21.8292,4.69154 43.3021,9.4215 64.3981,14.1847 21.0961,4.7632 41.8153,9.55964 62.137,14.38413 20.3216,4.82449 40.2458,9.67704 59.7518,14.55245 19.506,4.87541 38.5939,9.77369 57.243,14.68965 18.649,4.91597 36.8593,9.84961 54.6101,14.79576 15.7875,4.39908 31.2116,8.80805 46.2577,13.22326 15.0461,4.41522 29.7142,8.83667 43.9899,13.26071 14.2757,4.42404 28.1588,8.85067 41.635,13.27625 13.4761,4.42558 26.5453,8.8501 39.1929,13.26991 12.6476,4.41982 24.8734,8.83493 36.6634,13.24169 11.79,4.40677 23.144,8.80517 34.047,13.19158 10.904,4.38641 21.357,8.76083 31.344,13.11959 9.988,4.35876 19.51,8.70188 28.553,13.0257 9.043,4.32383 17.606,8.62835 25.675,12.90994 8.069,4.28159 15.644,8.54023 22.71,12.77228 7.066,4.23206 13.624,8.43752 19.658,12.61275 6.034,4.17522 11.545,8.32021 16.519,12.43132 4.973,4.1111 9.409,8.18832 13.292,12.228 3.883,4.03969 7.214,8.04184 9.978,12.00281 2.764,3.96098 4.962,7.88077 6.578,11.75573 1.616,3.87497 2.651,7.7051 3.089,11.48676"
             inkscape:connector-curvature="0" />
          <path
             id="path4984"
             style="fill:none;stroke:#000000;stroke-width:15.11811043;stroke-linecap:round;stroke-miterlimit:4;stroke-dasharray:none"
             d="m 8604.2097,-715.31693 c 4.5597,0.68769 9.1193,1.37537 13.6749,2.06274 4.1631,0.62813 8.3227,1.256 12.4801,1.88396 3.7757,0.57031 7.5496,1.14068 11.3214,1.71131 3.4,0.51436 6.7983,1.02892 10.1952,1.54385 3.0338,0.45989 6.0664,0.92008 9.098,1.3807 2.6762,0.40664 5.3516,0.81362 8.0261,1.22104 2.3261,0.35433 4.6517,0.709 6.9766,1.06408 1.9824,0.30275 3.9643,0.6058 5.9459,0.90918 1.644,0.25169 3.2877,0.50361 4.9312,0.7558 1.3099,0.20102 2.6198,0.40221 3.9294,0.60354 0.9794,0.15056 1.9587,0.30121 2.938,0.45198 0.6514,0.10029 1.3027,0.20063 1.9539,0.30083 0.325,0.05 0.6499,0.1 0.9749,0.14991 4.5988,0.70678 9.1929,1.40801 13.7849,2.11024 4.3617,0.66704 8.7214,1.33498 13.0789,2.00297 4.1349,0.63388 8.2678,1.26781 12.399,1.90261 3.9157,0.60171 7.8299,1.20422 11.7427,1.8078 3.7038,0.57134 7.4063,1.14365 11.1077,1.71716 3.4979,0.542 6.9948,1.08508 10.4904,1.62866 3.296,0.51254 6.5909,1.02553 9.8842,1.53769 3.097,0.48164 6.1926,0.96255 9.287,1.44328 6.4964,1.00925 12.9874,2.0177 19.474,3.02761 6.2864,0.97875 12.5688,1.95886 18.8462,2.93836 6.0778,0.94836 12.1511,1.89615 18.2198,2.84359 5.8726,0.91681 11.741,1.83329 17.6057,2.75072 5.6736,0.88754 11.3437,1.77597 17.01,2.66411 15.6287,2.44965 31.2278,4.89704 46.8041,7.35687 14.6083,2.30695 29.1965,4.62484 43.7744,6.97732 10.4755,1.69046 20.9456,3.39877 31.4182,5.14638 10.0296,1.67369 20.0613,3.38342 30.0998,5.1459 9.6121,1.68764 19.2304,3.42364 28.8607,5.23167 8.9694,1.68397 17.9494,3.43042 26.9373,5.24591 7.9791,1.6117 15.9646,3.27781 23.9507,4.99482 7.0654,1.51906 14.1312,3.07795 21.1916,4.66967 6.2152,1.40118 12.4261,2.8278 18.6232,4.26233 7.9671,1.84426 15.9112,3.70159 23.8197,5.55216 7.0642,1.653 14.1,3.3006 21.0923,4.91657 3.7254,0.86096 7.4384,1.71295 11.1412,2.56084 3.6662,0.83947 7.3223,1.67493 10.9683,2.50681 3.5212,0.80337 7.0329,1.60339 10.5432,2.41581 3.7994,0.87932 7.597,1.77315 11.397,2.69121 1.4698,0.35512 2.94,0.71386 4.4127,1.08047 2.1913,0.54555 4.3881,1.10852 6.5932,1.6965 2.1135,0.56352 4.2347,1.15001 6.3656,1.76596 1.5871,0.45876 3.1796,0.93387 4.7799,1.43194 1.9895,0.61921 3.991,1.27391 6.0052,1.97114 1.7598,0.60913 3.5292,1.25073 5.3093,1.93274 1.9662,0.75329 3.9456,1.55589 5.9356,2.41299 1.8479,0.7959 3.7051,1.63879 5.5678,2.52922 1.9526,0.93342 3.9112,1.91908 5.8706,2.94801 1.9629,1.03081 3.9265,2.10505 5.8871,3.2172 1.8486,1.04864 3.6945,2.13098 5.5365,3.23385 2.0753,1.24256 4.1456,2.51116 6.2105,3.80119 1.7855,1.11554 3.567,2.2471 5.3448,3.3897 2.1076,1.35465 4.2101,2.72481 6.3083,4.10543 0.9405,0.61884 1.8802,1.23978 2.8187,1.86359 0.9923,0.6595 1.9833,1.32221 2.9738,1.9856 0.5103,0.34181 1.0205,0.6838 1.5304,1.02457 0.4529,0.30274 0.9056,0.60451 1.3576,0.90697 0.2282,0.15267 0.4562,0.30551 0.6842,0.45903 0.2521,0.16974 0.5042,0.34029 0.7562,0.51097 0.099,0.0667 0.197,0.13339 0.2954,0.20001 0.087,0.0589 0.1738,0.11763 0.2605,0.17632 0.075,0.051 0.1507,0.10185 0.2259,0.15267 0.064,0.0431 0.1276,0.0862 0.1911,0.12906 0.052,0.0353 0.1042,0.0704 0.1563,0.1055 0.041,0.0277 0.082,0.0553 0.1217,0.082 0.029,0.0196 0.057,0.0387 0.087,0.0585 0.02,0.0131 0.04,0.0266 0.052,0.0351 0.01,0.005 0.013,0.008 0.017,0.0118"
             inkscape:connector-curvature="0" />
          <path
             id="path4986"
             style="fill:none;stroke:#000000;stroke-width:15.11811043;stroke-linecap:round;stroke-miterlimit:4;stroke-dasharray:none"
             d="m 9331.863,-560.01093 c 14.4802,9.93885 30.0925,18.51133 46.4004,25.41772 16.3078,6.90638 33.3046,12.14394 50.4728,15.60821"
             inkscape:connector-curvature="0" />
          <path
             id="path4988"
             style="fill:none;stroke:#000000;stroke-width:15.11811043;stroke-linecap:round;stroke-miterlimit:4;stroke-dasharray:none"
             d="M 1133.8583,1133.9413 Z"
             inkscape:connector-curvature="0" />
          <path
             id="path4990"
             style="fill:none;stroke:#414141;stroke-width:15.11811043;stroke-linecap:round;stroke-miterlimit:4;stroke-dasharray:none"
             d="m 8692.6177,-620.72247 c -14.4623,-1.81571 -28.9246,-3.63142 -43.456,-5.4933 -14.5513,-1.86443 -29.1718,-3.77514 -43.8489,-5.72076 -23.1106,-3.06358 -46.3613,-6.2137 -69.7383,-9.48856 -20.773,-2.91009 -41.6457,-5.91868 -62.5167,-8.89942 -0.4803,-0.0686 -0.9607,-0.13717 -1.441,-0.20575"
             inkscape:connector-curvature="0" />
          <path
             id="path4992"
             style="fill:none;stroke:#414141;stroke-width:15.11811043;stroke-linecap:round;stroke-miterlimit:4;stroke-dasharray:none"
             d="m 6752.5801,-744.27364 c -24.3638,0.67095 -48.7277,1.3419 -73.1429,2.10839 -38.382,1.20495 -76.8909,2.64601 -115.4321,4.22343 -38.6246,1.58082 -77.2817,3.29859 -115.9719,5.15926 -50.8574,2.4458 -101.7722,5.13852 -152.7097,8.01748 -51.0391,2.88472 -102.1012,5.95644 -153.1729,9.17226 -51.1444,3.2204 -102.2986,6.5853 -153.4534,10.08111 -54.8612,3.74909 -109.7231,7.64874 -164.5759,11.7068 -54.8482,4.05773 -109.6874,8.27385 -164.5108,12.67013 -55.0934,4.41794 -110.1708,9.01782 -165.2666,13.53654 -55.5913,4.55936 -111.2012,9.03609 -166.8554,13.19537 -56.0929,4.19207 -112.2306,8.06166 -168.4182,11.4214 -40.1552,2.40108 -80.3358,4.54175 -120.5365,6.37847 -40.4204,1.84676 -80.8611,3.38624 -121.312,4.5796 -40.694,1.20053 -81.3982,2.05077 -122.097,2.52796 -40.9981,0.48069 -81.9908,0.58281 -122.9562,0.26784 -41.2859,-0.31743 -82.5441,-1.05851 -123.7424,-2.19734 -41.1555,-1.13764 -82.2512,-2.67221 -123.266,-4.48747 -40.7125,-1.80188 -81.3452,-3.88034 -121.8747,-6.14671 -40.2418,-2.25029 -80.3818,-4.68583 -120.4079,-7.21552 -39.7054,-2.50941 -79.2987,-5.11146 -118.7334,-7.70283 -39.04,-2.56545 -77.9246,-5.12043 -116.7252,-7.66957 -38.4402,-2.52545 -76.798,-5.04517 -114.6959,-7.16552 -3.8688,-0.21646 -7.7328,-0.42875 -11.5968,-0.64105"
             inkscape:connector-curvature="0" />
          <path
             id="path4994"
             style="fill:none;stroke:#414141;stroke-width:15.11811043;stroke-linecap:round;stroke-miterlimit:4;stroke-dasharray:none"
             d="m 2805.8075,-780.7291 c 8.6006,-1.94615 17.2012,-3.89231 25.8477,-5.78202 35.9423,-7.8553 72.6774,-14.73528 109.6799,-21.21621 36.7542,-6.4374 73.7722,-12.4811 111.1595,-17.87209 37.2281,-5.36803 74.8223,-10.0889 112.7138,-14.15909 37.7208,-4.05185 75.7362,-7.45886 114.0409,-10.26707 38.2674,-2.80548 76.8236,-5.01332 115.6413,-6.77361 39.0991,-1.77306 78.4636,-3.09205 118.0283,-4.06397 39.8336,-0.97853 79.8702,-1.60526 120.0878,-1.88199 40.1795,-0.27646 80.5397,-0.20357 121.0824,0.3091 40.2876,0.50945 80.7554,1.45317 121.4072,2.79596 40.7607,1.34639 81.7063,3.09398 122.8182,5.13866 41.3206,2.05506 82.8092,4.41024 124.4566,6.95104 41.9004,2.55624 83.9616,5.30037 126.1731,8.1137 37.053,2.46953 74.2218,4.99237 111.5029,7.46938 37.3259,2.48 74.7644,4.91405 112.3089,7.20878 37.5873,2.29736 75.2809,4.45508 113.0742,6.35052 37.6205,1.88678 75.3397,3.51367 113.1397,4.82346 37.6093,1.30318 75.2985,2.29246 113.0451,2.97274 37.6075,0.67778 75.2719,1.04882 112.9722,1.10028 37.6131,0.0513 75.2619,-0.21543 112.9252,-0.79614 37.6302,-0.5802 75.2749,-1.47379 112.9141,-2.67226 37.7917,-1.20333 75.5778,-2.71401 113.342,-4.49152 37.8347,-1.78081 75.6473,-3.82945 113.426,-6.09772 37.892,-2.27507 75.7499,-4.77108 113.5706,-7.3997 37.9659,-2.6387 75.8944,-5.41101 113.7891,-8.21953 38.0595,-2.82071 76.085,-5.67794 114.0799,-8.52476 49.9691,-3.74399 99.8853,-7.46998 149.7467,-11.13073 49.986,-3.6699 99.917,-7.27424 149.7968,-10.72426 49.9387,-3.45411 99.826,-6.75354 149.6608,-9.80534 53.3322,-3.26597 106.6042,-6.24833 159.8029,-8.83084 52.9246,-2.56919 105.7766,-4.74264 158.53,-6.45171 52.3547,-1.69615 104.6123,-2.93491 156.7351,-3.74203 51.8063,-0.80222 103.4796,-1.17803 154.9663,-1.28865 51.2445,-0.1101 102.3041,0.0425 153.1532,0.5381 46.0926,0.44924 92.0122,1.1803 137.7311,2.1707 45.6603,0.98913 91.1205,2.23692 136.3774,3.88511 45.2771,1.64892 90.3507,3.69858 135.2151,6.22378 44.9628,2.53074 89.7154,5.53911 134.2548,9.08124 44.7122,3.55586 89.2095,7.64964 133.4794,12.21722 44.5039,4.59173 88.7779,9.66227 132.8132,15.13188 44.3112,5.50386 88.3806,11.4118 132.1963,17.60968 40.5103,5.73031 80.8036,11.70846 120.9102,17.90248 40.2961,6.2233 80.4036,12.66451 120.3153,19.24509 39.9477,6.58652 79.6991,13.31266 119.243,20.13709 39.5783,6.83037 78.9487,13.7592 118.1164,20.71552 39.2091,6.96368 78.2151,13.95491 116.817,20.53643 38.7092,6.59981 77.0119,12.78764 115.3146,18.97548"
             inkscape:connector-curvature="0" />
          <path
             id="path4996"
             style="fill:none;stroke:#414141;stroke-width:15.11811043;stroke-linecap:round;stroke-miterlimit:4;stroke-dasharray:none"
             d="m 8463.1539,-651.73874 c 1.5491,0.21923 3.0981,0.43846 4.6426,0.65708 1.9761,0.27972 3.9447,0.55844 5.9133,0.83716"
             inkscape:connector-curvature="0" />
          <path
             id="path4998"
             style="fill:none;stroke:#000000;stroke-width:15.11811043;stroke-linecap:round;stroke-miterlimit:4;stroke-dasharray:none"
             d="m 8471.6168,-650.53026 -16.5045,-2.3568"
             inkscape:connector-curvature="0" />
          <path
             id="path5000"
             style="fill:none;stroke:#000000;stroke-width:15.11811043;stroke-linecap:round;stroke-miterlimit:4;stroke-dasharray:none"
             d="m 3821.1263,-672.45361 -33.0784,-1.82849"
             inkscape:connector-curvature="0" />
          <path
             id="path5002"
             style="fill:none;stroke:#414141;stroke-width:15.11811043;stroke-linecap:round;stroke-miterlimit:4;stroke-dasharray:none"
             d="m 3788.0341,-674.29851 25.1362,1.36501"
             inkscape:connector-curvature="0" />
          <path
             style="fill:none;stroke:#000000;stroke-width:15.11811043;stroke-linecap:butt;stroke-linejoin:miter;stroke-opacity:1;stroke-miterlimit:4;stroke-dasharray:none"
             d="m 1133.8583,1133.9351 7559.055,0.01"
             id="path5060"
             inkscape:connector-curvature="0" />
        </g>
      </g>
    </g>
  </g>
</svg>
